<svg width="214" height="53" fill="none" xmlns="http://www.w3.org/2000/svg" xmlns:xlink="http://www.w3.org/1999/xlink">
  <g clip-path="url(#clip0)">
    <path fill="url(#pattern0)" d="M-3 7.382h29.657v23.589H-3z"/>
    <path d="M21.9 27.49l-20.182.075c-.79 0-1.406-.684-1.31-1.465.617-5.573 2.87-10.69 6.26-14.838a1.329 1.329 0 011.963-.114l14.174 14.134c.848.819.25 2.207-.905 2.207z" fill="#fff"/>
    <path fill="url(#pattern1)" d="M2.007 27.356h25.228v20.165H2.007z"/>
    <path d="M23.614 32.454L12.098 43.925c-.462.457-1.213.4-1.637-.095-2.715-3.348-4.545-7.438-5.084-11.908a1.086 1.086 0 011.078-1.218l16.389-.076c.963 0 1.444 1.16.77 1.826z" fill="#F2F2F2"/>
    <path fill="url(#pattern2)" d="M10.673 30.971h20.413v24.92H10.673z"/>
    <path d="M27.658 35.308l-.077 16.189c0 .646-.578 1.122-1.232 1.065a24.052 24.052 0 01-11.998-4.89 1.074 1.074 0 01-.116-1.616l11.555-11.51c.713-.684 1.868-.19 1.868.762z" fill="#F2F2F2"/>
    <path fill="url(#pattern3)" d="M27.234 30.78H47.84v25.111H27.234z"/>
    <path d="M43.97 47.597a24.055 24.055 0 01-12.114 4.965c-.655.076-1.232-.419-1.213-1.065l.077-16.227c0-.951 1.175-1.427 1.849-.742l11.516 11.47c.462.457.404 1.2-.116 1.599z" fill="#F2F2F2"/>
    <path fill="url(#pattern4)" d="M31.086 27.166h25.228v20.355H31.086z"/>
    <path d="M52.924 31.731a23.57 23.57 0 01-5.045 12.042 1.09 1.09 0 01-1.637.095L34.745 32.416c-.674-.666-.193-1.826.77-1.826l16.312-.076c.654 0 1.155.57 1.097 1.217z" fill="#F2F2F2"/>
    <path fill="url(#pattern5)" d="M30.894 10.616h25.42v20.355h-25.42z"/>
    <path d="M51.827 27.508l-16.407.076c-.963 0-1.445-1.14-.77-1.826L46.203 14.25c.462-.456 1.213-.4 1.637.095 2.715 3.367 4.545 7.476 5.065 11.966a1.08 1.08 0 01-1.079 1.198z" fill="#F2F2F2"/>
    <path fill="url(#pattern6)" d="M27.428 2.245h20.221v24.92H27.428z"/>
    <path d="M44.047 12.118l-11.42 11.376c-.674.685-1.849.21-1.849-.76l.077-16.075c0-.647.578-1.142 1.233-1.066a23.932 23.932 0 0111.863 4.89c.5.418.558 1.16.096 1.635z" fill="#F2F2F2"/>
    <path fill="url(#pattern7)" d="M7.399-2.891h23.302v28.915H7.399z"/>
    <path d="M27.408 1.713l-.077 19.613c0 1.16-1.425 1.73-2.253.913L11.058 8.295c-.558-.552-.481-1.465.135-1.96A29.138 29.138 0 0125.925.42c.79-.076 1.483.514 1.483 1.294zM66.512 5.899V8.18h-.234c-.118-.542-.275-.89-.431-1.122a1.525 1.525 0 00-.666-.541c-.156-.078-.43-.116-.822-.116h-.626v6.458c0 .426.039.697.078.813.04.116.157.193.274.27.157.078.313.116.587.116h.274v.232h-4.424v-.232h.274c.235 0 .43-.038.587-.116.118-.038.196-.154.275-.31.039-.115.078-.347.078-.773V6.402h-.627c-.587 0-.978.116-1.252.348-.353.348-.588.812-.705 1.43h-.235V5.9h7.595zM71.76 5.783c1.33-.039 2.426.348 3.288 1.16.861.812 1.253 1.856 1.253 3.094 0 1.044-.314 2.011-.94 2.785-.822 1.083-1.997 1.585-3.524 1.585-1.526 0-2.701-.502-3.523-1.547-.666-.812-.979-1.779-.979-2.862 0-1.237.43-2.281 1.292-3.094.861-.812 1.88-1.198 3.132-1.121zm.038.387c-.783 0-1.37.386-1.762 1.16-.313.657-.508 1.547-.508 2.746 0 1.43.234 2.475.743 3.171.353.464.862.696 1.488.696.43 0 .783-.116 1.057-.31.352-.27.666-.695.861-1.275.196-.58.314-1.315.314-2.244 0-1.121-.118-1.933-.314-2.475-.195-.541-.47-.928-.783-1.16-.313-.232-.665-.31-1.096-.31zM82.447 9.805c.822.194 1.37.426 1.683.658.47.386.705.85.705 1.47 0 .618-.274 1.16-.783 1.546-.626.503-1.527.735-2.74.735h-4.307v-.232c.392 0 .666-.039.783-.116.157-.077.235-.155.274-.27.04-.117.078-.387.078-.852V7.33c0-.464-.039-.735-.078-.85-.04-.117-.156-.194-.313-.272-.157-.077-.392-.116-.783-.116V5.86h4.072c.978 0 1.644.078 2.075.271.391.155.704.425.94.774.234.348.352.696.352 1.082 0 .387-.157.774-.431 1.083-.274.31-.783.542-1.527.735zm-2.27.31v2.978c0 .232.038.386.156.502.117.116.274.155.509.155.352 0 .626-.077.94-.232.273-.155.508-.348.665-.619.157-.27.235-.58.235-.928 0-.387-.078-.735-.274-1.044-.196-.31-.43-.542-.744-.658-.313-.116-.861-.155-1.488-.155zm0-.465c.586 0 1.017-.077 1.291-.193s.51-.31.666-.541c.156-.232.235-.542.235-.929 0-.386-.079-.657-.235-.928a1.419 1.419 0 00-.627-.541c-.274-.116-.704-.194-1.33-.194V9.65zM89.808 11.855h-2.976l-.352.812c-.118.27-.157.503-.157.657 0 .232.079.426.274.503.118.078.392.116.823.155v.232H84.6v-.232c.314-.039.549-.155.745-.387.195-.232.43-.619.704-1.276l3.015-6.69h.117l3.054 6.845c.274.657.548 1.044.705 1.237.157.116.352.194.587.232v.232h-4.11v-.232h.156c.313 0 .548-.038.705-.154.078-.078.156-.155.156-.271 0-.078 0-.155-.039-.232 0-.039-.078-.194-.196-.464l-.391-.967zm-.235-.464L88.32 8.529l-1.292 2.862h2.545zM97.168 10.463v2.32c0 .464.04.735.079.85.039.117.156.194.313.272.156.077.391.116.783.116v.232h-4.307v-.232c.392 0 .666-.04.783-.117.157-.077.235-.154.274-.27.04-.116.079-.387.079-.851V7.369c0-.465-.04-.735-.079-.851-.039-.116-.156-.194-.313-.271-.156-.077-.391-.116-.783-.116v-.232h3.68c1.214 0 2.075.232 2.623.657.549.426.784.967.784 1.586 0 .541-.157 1.006-.509 1.392a2.525 2.525 0 01-1.41.774c-.352.116-1.057.155-1.997.155zm0-4.1V9.96h.314c.508 0 .9-.155 1.174-.464.274-.31.43-.774.43-1.393 0-.618-.156-1.083-.43-1.353-.274-.271-.665-.426-1.214-.426h-.274v.039zM104.999 10.23v2.592c0 .425.039.696.078.812.039.116.157.193.274.27.157.078.313.117.548.117h.274v.232h-4.424v-.232h.274c.235 0 .431-.04.587-.117.118-.038.196-.154.235-.309.039-.116.079-.348.079-.773V7.33c0-.426-.04-.696-.079-.812-.039-.116-.156-.194-.274-.271a1.146 1.146 0 00-.548-.116h-.274v-.232h4.424v.232h-.274c-.235 0-.431.039-.587.116-.118.039-.196.155-.274.31-.039.115-.079.347-.079.773v2.359h2.976v-2.36c0-.425-.039-.695-.078-.811-.04-.116-.157-.194-.274-.271-.157-.077-.314-.116-.588-.116h-.274v-.232h4.424v.232h-.274c-.235 0-.43.039-.587.116-.117.039-.196.155-.274.31-.039.115-.078.347-.078.773v5.492c0 .425.039.696.078.812.039.116.157.193.274.27.157.078.313.117.587.117h.274v.232h-4.424v-.232h.274c.235 0 .431-.04.588-.117.117-.038.195-.154.274-.309.039-.116.078-.348.078-.773V10.23h-2.936zM116.783 11.855h-2.975l-.353.812c-.117.27-.156.503-.156.657 0 .232.078.426.274.503.117.078.391.116.822.155v.232h-2.819v-.232c.313-.039.548-.155.744-.387.196-.232.431-.619.705-1.276l3.014-6.69h.118l3.054 6.845c.274.657.548 1.044.704 1.237.157.116.353.194.588.232v.232h-4.111v-.232h.156c.314 0 .549-.038.705-.154.078-.078.157-.155.157-.271 0-.078 0-.155-.039-.232 0-.039-.079-.194-.196-.464l-.392-.967zm-.235-.464l-1.252-2.862-1.292 2.862h2.544zM124.104 5.899h7.322V8.18h-.235c-.078-.426-.196-.774-.392-1.044-.195-.271-.391-.465-.665-.542-.274-.116-.666-.155-1.175-.155h-1.566V9.69h1.136c1.213 0 2.075.193 2.623.619.548.425.822.967.822 1.663 0 .464-.157.89-.431 1.237a2.345 2.345 0 01-1.057.774c-.43.155-1.018.27-1.84.27h-4.542v-.231c.509 0 .862-.078 1.018-.194.157-.116.235-.425.235-.85V7.252c0-.465-.078-.774-.235-.929-.156-.154-.469-.193-1.018-.193v-.232zm3.25 4.331v2.514c0 .387.039.696.157.851.117.155.313.232.626.232.47 0 .861-.155 1.096-.503.235-.309.353-.734.353-1.198 0-.465-.118-.851-.353-1.2-.235-.309-.469-.502-.744-.618a7.3 7.3 0 00-1.135-.078zM137.025 14.02v.233h-4.424v-.232h.274c.235 0 .43-.04.587-.117.117-.038.196-.154.235-.309.039-.116.078-.348.078-.773V7.33c0-.426-.039-.696-.078-.812-.039-.116-.157-.194-.274-.271a1.149 1.149 0 00-.548-.116h-.274v-.232h4.424v.232h-.274c-.235 0-.431.039-.588.116-.117.039-.195.155-.274.31-.039.115-.078.347-.078.773v5.492c0 .425.039.696.078.812.039.116.157.193.274.27.157.078.314.117.549.117h.313zM140.783 10.463v2.32c0 .464.039.735.078.85.039.117.157.194.313.272.157.077.392.116.783.116v.232h-4.307v-.232c.392 0 .666-.04.784-.117.156-.077.234-.154.274-.27.039-.116.078-.387.078-.851V7.369c0-.465-.039-.735-.078-.851-.04-.116-.157-.194-.314-.271-.156-.077-.391-.116-.783-.116v-.232h3.681c1.213 0 2.075.232 2.623.657.548.426.783.967.783 1.586 0 .541-.157 1.006-.509 1.392a2.523 2.523 0 01-1.41.774c-.352.116-1.057.155-1.996.155zm0-4.1V9.96h.313c.509 0 .9-.155 1.174-.464.274-.31.431-.774.431-1.393 0-.618-.157-1.083-.431-1.353-.274-.271-.665-.426-1.213-.426h-.274v.039zM153.154 5.899v.232c-.509 0-.822.077-.978.193-.157.116-.196.426-.196.812V9.69c.431 0 .705-.039.861-.077.157-.039.313-.155.431-.348.117-.194.274-.542.391-1.045.157-.618.314-1.083.47-1.392.157-.31.353-.541.627-.735.274-.193.587-.27 1.018-.27.391 0 .743.116.978.348.235.232.353.502.353.812a.875.875 0 01-.235.619c-.157.154-.353.232-.627.232-.469 0-.743-.271-.783-.813-.039-.27-.117-.425-.313-.425-.117 0-.274.077-.391.232-.157.155-.314.542-.509 1.199-.157.541-.314.967-.392 1.238-.117.27-.274.464-.509.618.313.116.548.194.705.348.157.116.313.271.431.426.117.154.352.58.704 1.237l.705 1.315c.235.387.392.62.548.735.157.078.353.155.627.155v.232h-2.624l-1.644-3.287c-.157-.31-.274-.503-.352-.58-.079-.078-.274-.117-.509-.117v2.708c0 .425.039.657.117.735.078.077.157.154.274.232.118.077.392.077.783.077v.232h-4.267v-.232c.313 0 .587-.039.744-.078a.497.497 0 00.352-.27c.078-.116.117-.348.117-.696v-2.746c-.234 0-.391.038-.469.077-.079.039-.196.232-.353.503l-1.683 3.403h-2.623v-.232c.391 0 .665-.077.822-.27.156-.194.509-.813 1.096-1.934.431-.774.705-1.277.94-1.47.235-.193.509-.387.939-.503-.235-.116-.391-.348-.509-.58-.117-.27-.235-.696-.391-1.237-.196-.658-.353-1.045-.509-1.2-.157-.154-.274-.231-.392-.231-.195 0-.274.154-.313.425-.039.542-.313.812-.783.812-.235 0-.47-.077-.626-.232-.157-.154-.235-.348-.235-.619 0-.309.117-.58.352-.812.235-.232.548-.348.979-.348.431 0 .744.078 1.018.27.274.194.47.426.626.736.157.31.314.773.47 1.392.157.657.352 1.083.587 1.238.196.154.588.232 1.097.232V7.175c0-.425-.079-.696-.235-.812-.157-.116-.47-.193-.94-.193v-.232h4.228v-.04zM162.629 11.855h-2.976l-.352.812c-.117.27-.156.503-.156.657 0 .232.078.426.274.503.117.078.391.116.822.155v.232h-2.819v-.232c.313-.039.548-.155.744-.387.195-.232.43-.619.704-1.276l3.015-6.69h.118l3.053 6.845c.274.657.549 1.044.705 1.237.157.116.352.194.587.232v.232h-4.11v-.232h.156c.313 0 .548-.038.705-.154.078-.078.156-.155.156-.271 0-.078 0-.155-.039-.232 0-.039-.078-.194-.195-.464l-.392-.967zm-.196-.464l-1.253-2.862-1.292 2.862h2.545zM65.73 29.181h-.314l-.666-2.359a3.37 3.37 0 01-.117-.812c0-.27.078-.464.274-.658a.864.864 0 01.666-.27c.274 0 .508.077.665.27a.942.942 0 01.235.62c0 .193-.04.463-.157.85l-.587 2.36zm3.014 0h-.314l-.626-2.359a2.801 2.801 0 01-.157-.85c0-.233.079-.465.275-.62a.864.864 0 01.665-.27c.313 0 .51.116.666.27.156.194.235.387.235.58 0 .155-.04.426-.157.852l-.587 2.397zM77.083 25.236h2.819v.232c-.275.039-.549.116-.705.31-.157.193-.43.58-.705 1.121l-2.623 5.105c-.43.813-.783 1.277-1.057 1.47-.313.193-.666.27-1.096.27-.47 0-.783-.115-1.018-.347a1.106 1.106 0 01-.353-.813c0-.232.079-.425.235-.618a.802.802 0 01.588-.232c.234 0 .391.038.508.154.118.116.196.31.235.62.04.347.196.54.431.54.274 0 .587-.27.822-.812l.118-.232-3.015-5.414c-.274-.464-.47-.735-.665-.89-.196-.154-.47-.232-.823-.232v-.232h4.229v.232h-.157c-.509 0-.744.116-.744.348 0 .078.04.233.157.387l2.114 3.829 1.605-3.133c.235-.425.313-.735.313-.928a.405.405 0 00-.195-.348c-.118-.077-.47-.155-.98-.155v-.232h-.038zM80.293 25.236h4.424v.233h-.156c-.431 0-.705.077-.823.232-.156.154-.195.425-.195.85v2.514c.587 0 .978-.038 1.135-.077a.796.796 0 00.47-.348c.156-.194.274-.542.43-1.083.157-.619.314-1.083.47-1.392.157-.31.353-.542.627-.735.274-.194.587-.27 1.018-.27.391 0 .704.115.978.347.235.232.353.503.353.812 0 .271-.079.465-.235.62a.802.802 0 01-.587.231c-.47 0-.744-.27-.783-.812 0-.27-.118-.425-.275-.425-.195 0-.352.116-.47.31-.117.192-.273.58-.43 1.12-.157.542-.274.929-.391 1.2-.118.27-.274.502-.47.657.274.077.47.155.626.27.157.117.274.233.392.426.117.155.352.619.743 1.315l.862 1.508c.117.232.274.387.47.503.195.116.391.155.665.155v.232h-2.819l-1.722-3.21c-.196-.348-.353-.58-.431-.658-.078-.077-.274-.116-.587-.116v2.824c0 .386.078.657.235.773.156.116.47.155.94.155v.232h-4.425v-.232c.47 0 .822-.078.94-.232.156-.116.235-.426.235-.851v-5.608c0-.503-.079-.812-.196-1.005-.118-.155-.392-.271-.822-.271h-.196v-.194zM92.743 29.839v2.32c0 .464.04.735.079.851.039.116.156.193.313.27.157.078.392.117.783.117v.232h-4.307v-.232c.392 0 .666-.039.783-.116.157-.078.235-.155.274-.27.04-.117.079-.388.079-.852v-5.414c0-.464-.04-.735-.079-.851-.039-.116-.156-.193-.313-.27-.156-.078-.391-.117-.783-.117v-.232h3.68c1.214 0 2.076.232 2.624.658.548.425.783.966.783 1.585 0 .542-.157 1.006-.51 1.393a2.522 2.522 0 01-1.409.773c-.352.077-1.057.155-1.996.155zm0-4.1v3.597h.314c.509 0 .9-.155 1.174-.464.274-.31.431-.774.431-1.392 0-.62-.157-1.083-.43-1.354-.275-.27-.666-.425-1.214-.425h-.275v.038zM100.77 31.231h-2.976l-.352.812c-.118.27-.157.503-.157.658 0 .232.079.425.274.502.118.078.392.116.822.155v.232h-2.819v-.232c.314-.039.549-.155.744-.387.196-.232.431-.618.705-1.276l3.015-6.69h.117l3.054 6.845c.274.657.548 1.044.705 1.237.156.116.352.194.587.232v.232h-4.111v-.232h.157c.313 0 .548-.038.704-.154.079-.078.157-.155.157-.271 0-.077 0-.155-.039-.232 0-.039-.078-.193-.196-.464l-.391-.967zm-.196-.464l-1.253-2.862-1.292 2.862h2.545zM109.383 33.397v.232h-4.424v-.232h.274c.235 0 .431-.039.587-.116.118-.039.196-.155.235-.31.039-.116.079-.348.079-.773v-5.492c0-.425-.04-.696-.079-.812-.039-.116-.156-.193-.274-.27a1.146 1.146 0 00-.548-.117h-.274v-.232h4.424v.232h-.274c-.235 0-.431.039-.587.116-.118.039-.196.155-.274.31-.039.116-.079.348-.079.773v5.492c0 .425.04.696.079.812.039.116.156.194.274.27.156.078.313.117.548.117h.313zM106.016 22.8a.8.8 0 01.822.812.8.8 0 01-.822.812.8.8 0 01-.822-.812.8.8 0 01.822-.812zm2.31 0a.8.8 0 01.822.812.8.8 0 01-.822.812.8.8 0 01-.822-.812.78.78 0 01.235-.58.867.867 0 01.587-.232zM113.181 29.607v2.59c0 .426.039.697.079.813.039.116.156.193.274.27.156.078.313.117.548.117h.274v.232h-4.424v-.232h.274c.235 0 .43-.039.587-.116.117-.039.196-.155.235-.31.039-.116.078-.348.078-.773v-5.492c0-.425-.039-.696-.078-.812-.039-.116-.157-.193-.274-.27a1.15 1.15 0 00-.548-.117h-.274v-.232h4.424v.232h-.274c-.235 0-.431.039-.588.116-.117.039-.195.155-.274.31-.039.116-.078.348-.078.773v2.36h2.976v-2.36c0-.425-.04-.696-.079-.812-.039-.116-.156-.193-.274-.27-.156-.078-.313-.117-.587-.117h-.274v-.232h4.424v.232h-.274c-.235 0-.431.039-.587.116-.118.039-.196.155-.274.31-.04.116-.079.348-.079.773v5.492c0 .425.039.696.079.812.039.116.156.193.274.27.156.078.313.117.587.117h.274v.232h-4.424v-.232h.274c.235 0 .431-.039.587-.116.118-.039.196-.155.274-.31.039-.116.079-.348.079-.773v-2.591h-2.937zM128.136 25.043v2.9h-.235c-.195-.773-.509-1.353-1.017-1.74-.509-.386-1.058-.618-1.684-.618-.548 0-1.018.154-1.449.464-.43.31-.783.696-.978 1.16-.274.619-.392 1.315-.392 2.088 0 .735.078 1.431.274 2.05.196.619.509 1.083.901 1.392.391.31.939.465 1.566.465.548 0 1.018-.117 1.448-.349.431-.232.901-.618 1.41-1.198v.734c-.47.503-.979.851-1.488 1.083-.509.232-1.096.348-1.801.348-.9 0-1.723-.193-2.388-.541a3.628 3.628 0 01-1.605-1.547 4.149 4.149 0 01-.588-2.127c0-.812.196-1.547.627-2.282.43-.696.979-1.276 1.722-1.663a4.722 4.722 0 012.271-.58c.587 0 1.214.116 1.879.387.392.154.627.232.744.232a.482.482 0 00.353-.155c.117-.077.156-.232.195-.464h.235v-.039zM132.326 29.065h1.135c1.214 0 2.075.194 2.623.619s.823.967.823 1.663c0 .464-.157.89-.431 1.238a2.35 2.35 0 01-1.057.773c-.431.155-1.018.27-1.84.27h-4.542v-.231c.509 0 .861-.078 1.018-.194.157-.116.235-.425.235-.85v-5.57c0-.58-.078-.966-.196-1.082-.117-.117-.43-.194-.979-.194v-.232h4.346v.232c-.391 0-.665.039-.783.116-.117.078-.235.155-.274.27-.039.117-.078.349-.078.774v2.398zm0 .542v2.514c0 .386.039.696.156.85.118.155.314.232.627.232.47 0 .861-.154 1.096-.502.235-.31.352-.735.352-1.2 0-.463-.117-.85-.352-1.198-.235-.31-.47-.503-.744-.619a7.322 7.322 0 00-1.135-.077zM137.572 25.236h4.424v.233h-.156c-.431 0-.705.077-.822.232-.157.154-.196.425-.196.85v2.514c.587 0 .979-.038 1.135-.077a.793.793 0 00.47-.348c.157-.194.274-.542.431-1.083.156-.619.313-1.083.47-1.392.156-.31.352-.542.626-.735.274-.194.587-.27 1.018-.27.391 0 .705.115.979.347.235.232.352.503.352.812 0 .271-.078.465-.235.62a.8.8 0 01-.587.231c-.47 0-.744-.27-.783-.812 0-.27-.118-.425-.274-.425-.196 0-.353.116-.47.31-.117.192-.274.58-.431 1.12-.156.542-.274.929-.391 1.2-.118.27-.274.502-.47.657.274.077.47.155.626.27.157.117.274.233.392.426.117.155.352.619.744 1.315l.861 1.508c.118.232.274.387.47.503.196.116.391.155.666.155v.232h-2.819l-1.723-3.21c-.196-.348-.352-.58-.431-.658-.078-.077-.274-.116-.587-.116v2.824c0 .386.078.657.235.773.157.116.47.155.94.155v.232h-4.425v-.232c.47 0 .823-.078.94-.232.157-.116.235-.426.235-.851v-5.608c0-.503-.078-.812-.196-1.005-.117-.155-.391-.271-.822-.271h-.196v-.194zM153.037 26.629c0-.465-.079-.774-.157-.929-.117-.154-.352-.232-.783-.232h-.274v-.232h4.541v.232h-.274c-.391 0-.665.078-.783.232-.117.155-.195.465-.195.967v5.492c0 .503.078.85.195 1.006.118.154.392.232.783.232h.274v.232h-4.541v-.232h.274c.391 0 .666-.078.783-.232.117-.155.196-.465.196-.967v-4.525l-2.976 4.64c0 .387.039.697.157.852.117.193.352.27.822.27h.274v.232h-4.541v-.232h.274c.391 0 .665-.077.783-.232.117-.154.195-.464.195-.967v-5.491c0-.503-.039-.813-.156-.967-.118-.155-.392-.232-.822-.232h-.274v-.232h4.541v.232h-.274c-.391 0-.626.077-.783.232-.117.155-.196.464-.196.967v4.563l2.937-4.68zM162.982 26.629c0-.464-.078-.774-.157-.928-.117-.155-.352-.233-.783-.233h-.274v-.232h4.542v.232h-.274c-.392 0-.666.078-.783.233-.118.154-.196.464-.196.966v5.492c0 .503.078.851.196 1.006.117.154.391.232.783.232h.274v.232h-4.542v-.232h.274c.392 0 .666-.078.783-.232.118-.155.196-.464.196-.967v-4.525l-2.975 4.64c0 .388.039.697.156.852.118.193.353.27.822.27h.274v.232h-4.541v-.232h.274c.391 0 .665-.077.783-.232.117-.154.196-.464.196-.966v-5.492c0-.503-.039-.812-.157-.967-.117-.155-.391-.232-.822-.232h-.274v-.232h4.541v.232h-.274c-.391 0-.626.077-.783.232-.117.155-.195.464-.195.967v4.563l2.936-4.68zm-1.527-2.166c-.861 0-1.488-.116-1.84-.348-.392-.232-.587-.503-.587-.812 0-.155.078-.31.195-.426a.594.594 0 01.431-.154c.352 0 .587.232.783.657.118.232.235.387.392.503.156.077.352.155.626.155.313 0 .548-.04.666-.155.156-.078.274-.27.391-.542.196-.425.47-.618.783-.618.157 0 .313.038.431.154.117.116.196.271.196.464 0 .31-.196.58-.588.813-.391.193-1.018.309-1.879.309zM169.911 33.629v-.232h.235c.431 0 .705-.078.783-.232.078-.155.157-.503.157-.967v-5.492c0-.503-.079-.812-.196-.967-.117-.155-.352-.232-.744-.232h-.274v-.232h4.424v.232h-.156c-.392 0-.666.077-.823.194-.156.116-.195.464-.195 1.005v5.57c0 .425.039.657.078.734.078.077.313.116.744.116h1.253c.469 0 .744-.039.822-.077.078-.078.117-.31.117-.696v-5.608c0-.503-.039-.812-.156-.967-.118-.155-.353-.232-.744-.232h-.313v-.232h4.306v.232h-.156c-.353 0-.588.077-.705.193-.118.116-.196.464-.196 1.006v5.492c0 .502.078.85.196 1.005.117.155.352.232.744.232h.156v2.669h-.234c-.314-1.625-1.253-2.437-2.78-2.437h-6.343v-.077zM183.066 25.74v3.402h.157c.548 0 .939-.154 1.174-.502s.392-.812.47-1.47h.235v4.37h-.235a3.153 3.153 0 00-.313-1.16c-.157-.31-.353-.503-.548-.619-.196-.116-.509-.154-.94-.154v2.359c0 .464.039.734.078.85.039.117.118.194.235.271.118.078.274.116.509.116h.509c.783 0 1.41-.193 1.919-.541.469-.348.822-.928 1.018-1.663h.234l-.391 2.668h-7.321v-.232h.274c.235 0 .43-.038.587-.116.117-.038.196-.154.235-.31.039-.115.078-.347.078-.773v-5.491c0-.387 0-.62-.039-.697a.56.56 0 00-.235-.347c-.157-.117-.391-.155-.666-.155h-.274v-.232h7.087v2.475h-.235c-.118-.619-.274-1.044-.509-1.315a1.772 1.772 0 00-.94-.58c-.235-.077-.665-.116-1.292-.116h-.861v-.039zM191.64 29.607v2.59c0 .426.039.697.078.813.04.116.157.193.275.27.156.078.313.117.548.117h.274v.232h-4.424v-.232h.274c.235 0 .43-.039.587-.116.117-.039.196-.155.235-.31.039-.116.078-.348.078-.773v-5.492c0-.425-.039-.696-.078-.812-.039-.116-.157-.193-.274-.27a1.15 1.15 0 00-.548-.117h-.274v-.232h4.424v.232h-.274c-.235 0-.431.039-.588.116-.117.039-.195.155-.274.31-.039.116-.078.348-.078.773v2.36h2.976v-2.36c0-.425-.04-.696-.079-.812-.039-.116-.156-.193-.274-.27-.156-.078-.313-.117-.587-.117h-.274v-.232h4.424v.232h-.274c-.235 0-.431.039-.587.116-.118.039-.196.155-.274.31-.04.116-.079.348-.079.773v5.492c0 .425.039.696.079.812.039.116.156.193.274.27.156.078.313.117.587.117h.274v.232h-4.424v-.232h.274c.235 0 .431-.039.587-.116.118-.039.196-.155.274-.31.039-.116.079-.348.079-.773v-2.591h-2.937zM206.127 25.236v2.282h-.235c-.118-.541-.274-.89-.431-1.121a1.523 1.523 0 00-.666-.542c-.156-.077-.43-.116-.822-.116h-.626v6.459c0 .425.039.696.078.812.039.116.157.193.274.27.157.078.313.117.587.117h.275v.232h-4.425v-.232h.275c.234 0 .43-.039.587-.116.117-.04.196-.155.274-.31.039-.116.078-.348.078-.773v-6.459h-.626c-.588 0-.979.116-1.253.348-.352.348-.587.812-.705 1.431h-.235v-2.282h7.596zM210.041 29.839v2.32c0 .464.04.735.079.851.039.116.156.193.313.27.157.078.391.117.783.117v.232h-4.307v-.232c.392 0 .666-.039.783-.116.157-.078.235-.155.274-.27.04-.117.079-.388.079-.852v-5.414c0-.464-.039-.735-.079-.851-.039-.116-.156-.193-.313-.27-.156-.078-.391-.117-.783-.117v-.232h3.68c1.214 0 2.075.232 2.624.658.548.425.783.966.783 1.585 0 .542-.157 1.006-.509 1.393a2.527 2.527 0 01-1.41.773c-.352.077-1.018.155-1.997.155zm0-4.1v3.597h.314c.509 0 .9-.155 1.174-.464.274-.31.431-.774.431-1.392 0-.62-.157-1.083-.431-1.354-.274-.27-.665-.425-1.214-.425h-.274v.038zM71.3 44.38h7.322v2.282h-.235c-.078-.426-.196-.774-.391-1.044-.196-.271-.392-.465-.666-.542-.274-.116-.665-.155-1.174-.155h-1.567v3.249h1.136c1.214 0 2.075.193 2.623.619.548.425.822.967.822 1.663 0 .464-.156.89-.43 1.237a2.349 2.349 0 01-1.057.774c-.431.154-1.019.27-1.84.27H71.3v-.231c.509 0 .861-.078 1.018-.194.156-.116.235-.425.235-.85v-5.724c0-.465-.079-.774-.235-.929-.157-.154-.47-.193-1.018-.193v-.232zm3.25 4.331v2.514c0 .387.04.696.157.851.117.155.313.232.626.232.47 0 .862-.154 1.097-.503.234-.309.352-.734.352-1.199 0-.464-.117-.85-.352-1.198-.235-.31-.47-.503-.744-.62a7.312 7.312 0 00-1.136-.077zM84.221 52.502v.232h-4.424V52.5h.274c.235 0 .43-.038.587-.115.118-.04.196-.155.235-.31.04-.116.078-.348.078-.773V45.81c0-.426-.039-.696-.078-.812-.039-.116-.156-.194-.274-.271a1.148 1.148 0 00-.548-.116h-.274v-.232h4.424v.232h-.274c-.235 0-.43.039-.587.116-.118.039-.196.155-.274.31-.04.115-.079.347-.079.773v5.492c0 .425.04.696.079.812.039.116.156.193.274.27.156.078.313.117.548.117h.313zM87.979 48.944v2.32c0 .464.039.735.078.85.04.117.157.194.313.272.157.077.392.115.783.115v.233h-4.306V52.5c.391 0 .665-.038.783-.115.156-.078.235-.155.274-.271.039-.116.078-.387.078-.851v-5.415c0-.464-.039-.734-.078-.85-.04-.116-.157-.194-.313-.271-.157-.077-.392-.116-.783-.116v-.232h3.68c1.213 0 2.075.232 2.623.657.548.426.783.967.783 1.586 0 .541-.157 1.006-.509 1.392a2.522 2.522 0 01-1.41.774c-.352.116-1.056.154-1.996.154zm0-4.1v3.597h.313c.51 0 .9-.155 1.175-.464.274-.31.43-.774.43-1.393s-.156-1.083-.43-1.353c-.274-.271-.666-.426-1.214-.426h-.274v.039zM100.351 44.38v.232c-.51 0-.822.078-.979.194-.156.116-.196.425-.196.812v2.552c.431 0 .705-.038.862-.077.156-.039.313-.155.43-.348.118-.194.274-.542.392-1.044.156-.62.313-1.083.47-1.393.156-.31.352-.541.626-.734.274-.194.587-.271 1.018-.271.392 0 .744.116.979.348.235.232.352.503.352.812a.87.87 0 01-.235.619c-.156.154-.352.232-.626.232-.47 0-.744-.27-.783-.812-.039-.271-.118-.426-.313-.426-.118 0-.274.078-.392.232-.156.155-.313.542-.509 1.2-.156.54-.313.966-.391 1.237-.118.27-.274.464-.509.619.313.116.548.193.704.348.157.116.314.27.431.425.118.155.352.58.705 1.238l.705 1.315c.234.386.391.618.548.734.156.078.352.155.626.155v.232h-2.623l-1.644-3.287c-.157-.31-.274-.503-.353-.58-.078-.078-.274-.116-.509-.116v2.707c0 .425.04.657.118.735.078.077.156.154.274.232.117.077.391.077.783.077v.232h-4.346v-.232c.313 0 .587-.039.744-.077a.497.497 0 00.352-.271c.079-.116.118-.348.118-.696v-2.746c-.235 0-.392.039-.47.077-.078.039-.196.232-.352.503l-1.684 3.403H92.05v-.232c.391 0 .665-.077.822-.27.157-.194.509-.813 1.096-1.934.43-.773.705-1.276.94-1.47.235-.193.509-.386.94-.502-.235-.116-.392-.348-.51-.58-.117-.271-.234-.697-.391-1.238-.196-.658-.352-1.044-.509-1.2-.157-.154-.274-.231-.391-.231-.196 0-.275.155-.314.425-.039.542-.313.813-.783.813-.235 0-.47-.078-.626-.233-.157-.154-.235-.348-.235-.618 0-.31.117-.58.352-.813.235-.232.548-.348.98-.348.43 0 .743.078 1.017.271.274.194.47.426.626.735.157.31.314.773.47 1.392.157.658.353 1.083.588 1.238.195.155.587.232 1.096.232v-2.553c0-.425-.078-.696-.235-.812-.157-.116-.47-.193-.94-.193v-.232h4.307v-.039zM109.121 44.264c1.332-.039 2.428.348 3.289 1.16.861.813 1.253 1.857 1.253 3.094 0 1.044-.313 2.011-.94 2.785-.822 1.083-1.996 1.586-3.523 1.586-1.527 0-2.702-.503-3.524-1.547-.666-.813-.979-1.78-.979-2.862 0-1.238.431-2.282 1.292-3.094.862-.813 1.88-1.2 3.132-1.122zm.079.387c-.783 0-1.371.387-1.762 1.16-.313.657-.509 1.547-.509 2.746 0 1.43.235 2.475.744 3.171.352.464.861.696 1.488.696.43 0 .783-.116 1.057-.309.352-.27.665-.696.861-1.276.196-.58.313-1.315.313-2.243 0-1.122-.117-1.934-.313-2.475-.196-.542-.47-.929-.783-1.16-.313-.233-.666-.31-1.096-.31zM119.809 48.286c.823.194 1.371.425 1.684.658.47.386.705.85.705 1.47 0 .618-.274 1.16-.783 1.546-.627.503-1.527.735-2.741.735h-4.307v-.232c.392 0 .666-.039.783-.116.157-.077.235-.155.274-.27.04-.117.079-.388.079-.852v-5.414c0-.464-.039-.735-.079-.85-.039-.117-.156-.194-.313-.272-.156-.077-.391-.116-.783-.116v-.232h4.072c.979 0 1.644.078 2.075.271.391.155.705.425.94.773.234.349.352.697.352 1.083 0 .387-.157.774-.431 1.083-.235.31-.783.542-1.527.735zm-2.27.31v2.978c0 .232.039.386.156.502.118.116.274.155.509.155.352 0 .627-.078.94-.232.274-.155.509-.348.665-.619.157-.27.235-.58.235-.928 0-.387-.078-.735-.274-1.044-.196-.31-.43-.542-.744-.658-.313-.116-.822-.154-1.487-.154zm0-.465c.587 0 1.017-.077 1.292-.193a1.52 1.52 0 00.665-.541c.157-.233.235-.542.235-.929 0-.386-.078-.657-.235-.928a1.415 1.415 0 00-.626-.541c-.274-.116-.705-.194-1.331-.194v3.326zM127.601 44.264c1.331-.039 2.427.348 3.289 1.16.861.813 1.252 1.857 1.252 3.094 0 1.044-.313 2.011-.939 2.785-.822 1.083-1.997 1.586-3.524 1.586s-2.701-.503-3.523-1.547c-.666-.813-.979-1.78-.979-2.862 0-1.238.43-2.282 1.292-3.094.861-.813 1.879-1.2 3.132-1.122zm.078.387c-.783 0-1.37.387-1.762 1.16-.313.657-.509 1.547-.509 2.746 0 1.43.235 2.475.744 3.171.353.464.862.696 1.488.696.431 0 .783-.116 1.057-.309.352-.27.666-.696.861-1.276.196-.58.314-1.315.314-2.243 0-1.122-.118-1.934-.314-2.475-.195-.542-.469-.929-.783-1.16-.313-.233-.665-.31-1.096-.31zM137.31 52.502v.232h-4.424v-.232h.274c.235 0 .43-.04.587-.116.118-.04.196-.155.235-.31.039-.116.078-.348.078-.773V45.81c0-.425-.039-.696-.078-.812-.039-.116-.157-.194-.274-.271a1.15 1.15 0 00-.548-.116h-.274v-.232h4.424v.232h-.313c-.235 0-.431.039-.588.116-.117.039-.195.155-.274.31-.039.115-.078.348-.078.773v5.492c0 .425.039.696.078.812.039.116.157.193.274.27.157.078.314.117.548.117h.353zm-3.367-10.597a.802.802 0 01.822.812.802.802 0 01-.822.812.8.8 0 01-.822-.812.8.8 0 01.822-.812zm2.31 0a.802.802 0 01.822.812.802.802 0 01-.822.812.804.804 0 01-.588-.232.784.784 0 01-.234-.58c0-.232.078-.425.234-.58a.804.804 0 01.588-.232zM148.86 44.38v2.282h-.235c-.117-.542-.274-.89-.431-1.122a1.52 1.52 0 00-.665-.541c-.157-.078-.431-.116-.822-.116h-.627v6.42c0 .425.039.696.079.812.039.116.156.193.274.27.156.078.313.117.587.117h.274v.232h-4.424v-.232h.274c.235 0 .431-.04.587-.116.118-.04.196-.155.274-.31.039-.116.079-.348.079-.773v-6.459h-.627c-.587 0-.979.116-1.253.348-.352.348-.587.812-.704 1.431h-.235v-2.282h7.595v.039zM154.067 44.264c1.331-.039 2.427.348 3.288 1.16.862.813 1.253 1.857 1.253 3.094 0 1.044-.313 2.011-.939 2.785-.823 1.083-1.997 1.586-3.524 1.586s-2.701-.503-3.524-1.547c-.665-.813-.978-1.78-.978-2.862 0-1.238.43-2.282 1.292-3.094.861-.813 1.879-1.2 3.132-1.122zm.078.387c-.783 0-1.37.387-1.762 1.16-.313.657-.509 1.547-.509 2.746 0 1.43.235 2.475.744 3.171.352.464.861.696 1.488.696.431 0 .783-.116 1.057-.309.352-.27.666-.696.861-1.276.196-.58.313-1.315.313-2.243 0-1.122-.117-1.934-.313-2.475-.195-.542-.47-.929-.783-1.16-.313-.233-.665-.31-1.096-.31zM162.524 48.944v2.32c0 .464.039.735.078.85.039.117.157.194.313.272.157.077.392.115.783.115v.233h-4.306V52.5c.391 0 .665-.038.783-.115.156-.078.235-.155.274-.271.039-.116.078-.387.078-.851v-5.415c0-.464-.039-.734-.078-.85-.039-.116-.157-.194-.313-.271-.157-.077-.392-.116-.783-.116v-.232h3.68c1.213 0 2.075.232 2.623.657.548.426.783.967.783 1.586 0 .541-.157 1.006-.509 1.392a2.52 2.52 0 01-1.41.774c-.352.116-1.017.154-1.996.154zm0-4.1v3.597h.313c.509 0 .9-.155 1.175-.464.274-.31.43-.774.43-1.393s-.156-1.083-.43-1.353c-.275-.271-.666-.426-1.214-.426h-.274v.039zM167.144 44.38h7.477v2.282h-.234c-.118-.542-.235-.967-.392-1.2-.157-.231-.352-.386-.587-.425-.235-.077-.666-.116-1.331-.116h-1.723v6.498c0 .464.078.773.196.89.156.115.391.193.783.193h.235v.232h-4.424V52.5h.234c.353 0 .627-.077.744-.193.118-.116.196-.425.196-.89v-5.762c0-.387-.039-.657-.157-.812-.117-.155-.352-.232-.743-.232h-.274v-.232zM179.711 52.502v.232h-4.424V52.5h.274c.235 0 .431-.038.587-.115.118-.04.196-.155.235-.31.039-.116.079-.348.079-.773V45.81c0-.426-.04-.696-.079-.812-.039-.116-.156-.194-.274-.271a1.146 1.146 0 00-.548-.116h-.274v-.232h4.424v.232h-.274c-.235 0-.43.039-.587.116-.118.039-.196.155-.274.31-.039.115-.078.347-.078.773v5.492c0 .425.039.696.078.812.039.116.156.193.274.27.157.078.313.117.548.117h.313zM185.702 48.286c.822.194 1.37.425 1.683.658.47.386.705.85.705 1.47 0 .618-.274 1.16-.783 1.546-.626.503-1.527.735-2.74.735h-4.307v-.232c.391 0 .665-.039.783-.116.156-.077.235-.155.274-.27.039-.117.078-.388.078-.852v-5.414c0-.464-.039-.735-.078-.85-.039-.117-.157-.194-.313-.272-.157-.077-.392-.116-.783-.116v-.232h4.071c.979 0 1.645.078 2.075.271.392.155.705.425.94.773.235.349.353.697.353 1.083 0 .387-.157.774-.431 1.083-.274.31-.783.542-1.527.735zm-2.271.31v2.978c0 .232.039.386.157.502.117.116.274.155.509.155.352 0 .626-.078.939-.232.274-.155.509-.348.666-.619.157-.27.235-.58.235-.928 0-.387-.078-.735-.274-1.044-.196-.31-.431-.542-.744-.658-.313-.116-.861-.154-1.488-.154zm0-.465c.587 0 1.018-.077 1.292-.193a1.53 1.53 0 00.666-.541c.156-.233.235-.542.235-.929 0-.386-.079-.657-.235-.928a1.423 1.423 0 00-.627-.541c-.274-.116-.704-.194-1.331-.194v3.326zM197.212 44.573c-.47 0-.744.078-.9.232-.118.155-.196.426-.196.813v5.8c0 .426.078.736.196.852.117.115.43.193.9.193v.232h-4.228v-.232c.352 0 .587-.039.704-.078.157-.038.235-.154.314-.27.078-.116.078-.348.078-.696v-6.536h-2.036v2.514c0 1.044-.039 1.856-.078 2.397a4.14 4.14 0 01-.431 1.547 2.95 2.95 0 01-.9 1.122 2.257 2.257 0 01-1.214.387c-.392 0-.705-.116-.94-.31a.968.968 0 01-.352-.773c0-.271.078-.464.196-.658a.8.8 0 01.587-.232c.47 0 .744.31.783.89.039.27.117.386.313.386.274 0 .548-.154.822-.502.314-.348.509-.812.588-1.431.078-.619.156-1.508.156-2.63v-1.586c0-.464-.039-.735-.078-.89a.423.423 0 00-.313-.309c-.157-.077-.431-.116-.862-.116v-.232h6.891v.116zM202.263 52.502v.232h-4.424V52.5h.274c.235 0 .431-.038.587-.115.118-.04.196-.155.235-.31.039-.116.078-.348.078-.773V45.81c0-.426-.039-.696-.078-.812-.039-.116-.157-.194-.274-.271a1.148 1.148 0 00-.548-.116h-.274v-.232h4.424v.232h-.274c-.235 0-.431.039-.587.116-.118.039-.196.155-.274.31-.04.115-.079.347-.079.773v5.492c0 .425.039.696.079.812.039.116.156.193.274.27.156.078.313.117.548.117h.313zM204.729 48.286h-.313l-.666-2.36a3.382 3.382 0 01-.117-.811c0-.271.078-.464.274-.658a.863.863 0 01.665-.27c.275 0 .509.077.666.27a.94.94 0 01.235.619c0 .193-.039.464-.157.85l-.587 2.36zm3.015 0h-.313l-.627-2.36a2.821 2.821 0 01-.157-.85c0-.232.079-.464.275-.619a.862.862 0 01.665-.27c.313 0 .509.116.666.27.156.194.235.387.235.58 0 .155-.04.426-.157.851l-.587 2.398z" fill="#fff"/>
  </g>
  <defs>
    <pattern id="pattern0" patternContentUnits="objectBoundingBox" width="1" height="1">
      <use xlink:href="#image0"/>
    </pattern>
    <pattern id="pattern1" patternContentUnits="objectBoundingBox" width="1" height="1">
      <use xlink:href="#image1"/>
    </pattern>
    <pattern id="pattern2" patternContentUnits="objectBoundingBox" width="1" height="1">
      <use xlink:href="#image2"/>
    </pattern>
    <pattern id="pattern3" patternContentUnits="objectBoundingBox" width="1" height="1">
      <use xlink:href="#image3"/>
    </pattern>
    <pattern id="pattern4" patternContentUnits="objectBoundingBox" width="1" height="1">
      <use xlink:href="#image4"/>
    </pattern>
    <pattern id="pattern5" patternContentUnits="objectBoundingBox" width="1" height="1">
      <use xlink:href="#image5"/>
    </pattern>
    <pattern id="pattern6" patternContentUnits="objectBoundingBox" width="1" height="1">
      <use xlink:href="#image6"/>
    </pattern>
    <pattern id="pattern7" patternContentUnits="objectBoundingBox" width="1" height="1">
      <use xlink:href="#image7"/>
    </pattern>
    <clipPath id="clip0">
      <path fill="#fff" d="M0 0h214v53H0z"/>
    </clipPath>
  </defs>
</svg>
