<svg width="196" height="47" fill="none" xmlns="http://www.w3.org/2000/svg">
  <path d="M180.737 14.566l-8.765-8.56-8.764 8.56 8.764 8.559 8.765-8.56zM172.275.3h9.067L196 14.565l-14.658 14.266h-9.067l14.658-14.265L172.275.3z" fill="#fff"/>
  <path d="M80.395 19.22a7.054 7.054 0 01-6.347 3.905c-4.987 0-7.405-4.055-7.405-8.41 0-4.354 2.569-8.408 7.405-8.408 2.72 0 5.289 1.501 6.347 3.904l6.649-2.853C84.777 2.853 80.244 0 74.048 0c-9.37 0-14.659 6.307-14.659 14.716 0 8.409 5.44 14.715 14.659 14.715 6.196 0 10.73-2.853 12.996-7.207l-6.65-3.004zM42.918 6.157c4.986 0 7.404 4.054 7.404 8.409 0 4.354-2.569 8.408-7.405 8.408-4.835 0-7.404-4.054-7.404-8.409 0-4.354 2.418-8.408 7.404-8.408zm0-6.157c-9.37 0-14.659 6.307-14.659 14.716 0 8.409 5.44 14.715 14.658 14.715 9.219 0 14.659-6.306 14.659-14.715C57.576 6.306 52.136 0 42.917 0zM7.102 16.818h9.067c2.72 0 3.627 1.051 3.627 3.454 0 1.802-1.058 3.303-4.987 3.303H7.103v-6.757zM6.95 5.706h8.01c2.418 0 3.778.6 3.778 3.003 0 2.103-1.512 3.004-3.778 3.004H6.95V5.706zM0 28.831h15.263c7.405 0 11.938-2.253 11.938-8.109 0-4.204-3.173-6.307-7.253-6.457v-.15c3.929-.9 6.195-2.853 6.195-6.457C26.143 2.252 22.214.3 16.17.3H0v28.53zM125.277 6.157c4.987 0 7.405 4.054 7.405 8.409 0 4.354-2.418 8.408-7.405 8.408s-7.405-4.054-7.405-8.409c0-4.354 2.569-8.408 7.405-8.408zm0-6.157c-9.37 0-14.659 6.307-14.659 14.716 0 8.409 5.441 14.715 14.659 14.715 9.369 0 14.658-6.306 14.658-14.715 0-8.41-5.289-14.716-14.658-14.716zM87.951 5.856h7.707v22.975h7.404V5.856h7.707V.3H88.102l-.151 5.556zm68.909 8.86l14.659 14.265h-9.067l-13.299-12.914v12.914H141.9V.45h7.405v12.913L162.603.45h9.067l-14.81 14.266zM123.917 32.585h8.462v2.402h-5.893v3.754h2.266c3.023 0 4.836 1.502 4.836 4.055 0 2.703-1.813 4.204-4.836 4.204h-4.835V32.585zm2.569 8.108v4.205h1.964c1.813 0 2.72-.901 2.72-2.102 0-1.202-.907-2.103-2.72-2.103h-1.964zM140.691 32.585h2.266L149.304 47h-2.871l-1.511-3.454h-6.649L136.762 47h-2.72l6.649-14.415zm-1.511 9.16h4.986l-2.417-5.857-2.569 5.857zM160.336 40.843h-7.253V47h-2.569V32.585h2.569v5.856h7.253v-5.856h2.569V47h-2.569v-6.157zM165.928 32.585h2.569v6.757l5.742-6.757h3.778l-5.893 6.757L178.471 47h-3.93l-5.893-7.358V47h-2.569l-.151-14.415z" fill="#fff"/>
</svg>
