<svg width="221" height="47" fill="none" xmlns="http://www.w3.org/2000/svg">
  <path d="M36.248 41.02H13.852l1.41-2.002H31.52L23.42 27.532l1.631-2.308 11.198 15.797zM24.94 37.239l-4.203-5.923 1.604-2.253 5.778 8.177h-3.18zm-5.281-4.394l3.096 4.395h-6.22l3.124-4.395zM34.34 45.22H5.42L35.832 2.56l1.328 2.475L10.424 42.8h25.741l-1.825 2.42zM29.115 4.2H2.848l1.797-2.42H34.23L3.788 44.47l-1.41-2.504L29.115 4.2zm-9.456 10.317l-3.374-4.755h6.72l-3.346 4.755zm-2.738 3.838L10.84 9.762h3.29l4.451 6.285-1.659 2.308zM2.793 5.979h22.893l-1.41 2.003H7.41l8.433 11.903-1.604 2.252L2.793 5.98zm36.469-.834L36.469 0H3.76L0 5.09l13.161 18.605L.304 41.855 3.18 47h32.017l3.844-5.062-12.912-18.243 13.133-18.55zM46.285 38.462L61.631 14.99H49.215V9.094h23.087L57.096 32.566h14.599v5.896h-25.41zM75.87 38.462V9.094h19.879v5.896H82.284v5.534h12.58v5.757h-12.58v6.285h13.741v5.896H75.87zM97.878 38.462l15.318-23.472h-12.415V9.094h23.115l-15.207 23.472h14.571v5.896H97.878zM127.436 38.462V8.037l15.373 16.91 15.372-16.91v30.425h-6.193V23.556l-9.179 10.4-9.18-10.4v14.906h-6.193zM172.918 28.256h7.383l-3.705-7.704-3.678 7.704zm-11.446 10.206l15.151-31.036 15.152 31.036h-6.857l-2.267-4.672h-12.166l-2.267 4.672h-6.746zM195.093 38.462V7.954l19.548 17.826V9.095H221v30.48l-19.548-17.77v16.658h-6.359z" fill="#fff"/>
</svg>
