<svg width="221" height="47" viewBox="0 0 221 47" fill="none" xmlns="http://www.w3.org/2000/svg">
<path d="M36.2481 41.0207H13.8522L15.2624 39.0183H31.5201L23.4189 27.5325L25.0502 25.2243L36.2481 41.0207ZM24.9396 37.2385L20.7369 31.3148L22.3405 29.0621L28.1192 37.2385H24.9396ZM19.6586 32.8444L22.7553 37.2385H16.5342L19.6586 32.8444ZM34.3403 45.2201H5.41924L35.8334 2.55858L37.1605 5.03373L10.4237 42.8006H36.1651L34.3403 45.2201ZM29.1146 4.19941H2.84787L4.64506 1.77988H34.2297L3.78794 44.4692L2.37783 41.9663L29.1146 4.19941ZM19.6586 14.5172L16.2854 9.76154H23.0041L19.6586 14.5172ZM16.9213 18.355L10.8385 9.76154H14.1287L18.5803 16.0467L16.9213 18.355ZM2.79257 5.97929H25.6861L24.276 7.98166H7.40998L15.843 19.8846L14.2393 22.1373L2.79257 5.97929ZM39.2619 5.14497L36.4693 0H3.76029L0 5.08935L13.161 23.6947L0.304141 41.855L3.17966 47H35.1974L39.0407 41.9385L26.1285 23.6947L39.2619 5.14497Z" fill="white"/>
<path d="M46.2852 38.4623L61.6305 14.9901H49.216V9.09424H72.303L57.096 32.5664H71.6948V38.4623H46.2852Z" fill="white"/>
<path d="M75.8691 38.4623V9.09424H95.7489V14.9901H82.2838V20.5244H94.8641V26.2812H82.2838V32.5664H96.0254V38.4623H75.8691Z" fill="white"/>
<path d="M97.8779 38.4623L113.196 14.9901H100.781V9.09424H123.896L108.689 32.5664H123.26V38.4623H97.8779Z" fill="white"/>
<path d="M127.436 38.4622V8.03735L142.809 24.9462L158.181 8.03735V38.4622H151.988V23.5557L142.809 33.9569L133.629 23.5557V38.4622H127.436Z" fill="white"/>
<path d="M172.918 28.2557H180.301L176.596 20.5522L172.918 28.2557ZM161.472 38.4622L176.623 7.42554L191.775 38.4622H184.918L182.651 33.79H170.485L168.218 38.4622H161.472Z" fill="white"/>
<path d="M195.093 38.4621V7.95386L214.641 25.7805V9.09409H221V39.5746L201.452 21.8036V38.4621H195.093Z" fill="white"/>
</svg>
