<svg xmlns="http://www.w3.org/2000/svg" xmlns:xlink="http://www.w3.org/1999/xlink"><symbol id="icon-about-clock" viewBox="0 0 512 512"><path fill="#F8F7F7" d="M464.2 256c0-4.2 3.5-7.7 7.7-7.7h24.7c-4-126.7-106.2-228.9-232.9-232.9v24.7c0 4.2-3.5 7.7-7.7 7.7s-7.7-3.5-7.7-7.7V15.5c-126.7 4-228.9 106.2-232.9 232.9h24.7c4.2 0 7.7 3.5 7.7 7.7s-3.5 7.7-7.7 7.7H15.5c4 126.7 106.2 228.9 232.9 232.9V472c0-4.2 3.5-7.7 7.7-7.7s7.7 3.5 7.7 7.7v24.7c126.7-4 228.9-106.2 232.9-232.9H472c-4.4-.1-7.8-3.6-7.8-7.8zM343 263.7h-53.8c-3.5 15.1-17 26.5-33.2 26.5-18.8 0-34.1-15.3-34.1-34.1 0-16.2 11.2-29.8 26.5-33.2v-96.5c0-4.2 3.5-7.7 7.7-7.7s7.7 3.5 7.7 7.7v96.5c12.7 2.9 22.6 12.9 25.6 25.6H343c4.2 0 7.7 3.5 7.7 7.7 0 4-3.4 7.5-7.7 7.5z"/><path fill="#50406B" d="M343 248.3h-53.8c-2.9-12.7-12.9-22.6-25.6-25.6v-96.5c0-4.2-3.5-7.7-7.7-7.7s-7.7 3.5-7.7 7.7v96.5c-15.1 3.5-26.5 17-26.5 33.2 0 18.8 15.3 34.1 34.1 34.1 16.2 0 29.8-11.2 33.2-26.5h54c4.2 0 7.7-3.5 7.7-7.7 0-4-3.4-7.5-7.7-7.5zm-87 26.5c-10.4 0-18.8-8.4-18.8-18.8s8.4-18.8 18.8-18.8 18.8 8.4 18.8 18.8-8.4 18.8-18.8 18.8z"/><path fill="#50406B" d="M256 0C114.9 0 0 114.9 0 256s114.9 256 256 256 256-114.9 256-256S397.2 0 256 0zm7.7 496.5v-24.7c0-4.2-3.5-7.7-7.7-7.7s-7.7 3.5-7.7 7.7v24.7c-126.7-4-228.9-106.2-232.9-232.9h24.7c4.2 0 7.7-3.5 7.7-7.7s-3.5-7.7-7.7-7.7H15.5c4-126.7 106.2-228.9 232.9-232.9V40c0 4.2 3.5 7.7 7.7 7.7s7.7-3.5 7.7-7.7V15.5c126.7 4 228.9 106.2 232.9 232.9H472c-4.2 0-7.7 3.5-7.7 7.7s3.5 7.7 7.7 7.7h24.7c-4.1 126.5-106.4 228.8-233 232.7z"/><path fill="#F2BE96" d="M106.5 256c0 13.4-10.9 24.3-24.3 24.3S57.9 269.4 57.9 256s10.9-24.3 24.3-24.3 24.3 11 24.3 24.3zm349 0c0 13.4-10.9 24.3-24.3 24.3s-24.3-10.9-24.3-24.3 10.9-24.3 24.3-24.3 24.3 11 24.3 24.3zM256.8 105.8c13.4 0 24.3-10.9 24.3-24.3s-10.9-24.3-24.3-24.3-24.3 10.9-24.3 24.3c0 13.5 10.9 24.3 24.3 24.3zm24.1 324.8c0 13.4-10.9 24.3-24.3 24.3s-24.3-10.9-24.3-24.3 10.9-24.3 24.3-24.3c13.5 0 24.3 10.9 24.3 24.3z"/><path fill="#50406B" d="M153.6 133.7c0 5.4-2.1 10.3-5.9 14.1-3.9 3.9-8.9 5.8-14 5.8s-10.2-1.9-14-5.8c-3.8-3.8-5.9-8.7-5.9-14.1s2.1-10.3 5.9-14.1c3.8-3.8 8.7-5.9 14-5.9s10.3 2.1 14 5.9c3.8 3.7 5.9 8.8 5.9 14.1zm250.3 247.5c0 6.1-2.4 11.7-6.7 16-4.4 4.4-10.3 6.7-16.1 6.7-5.9 0-11.6-2.3-16.1-6.7-8.9-8.9-8.9-23.2 0-32.1 4.3-4.3 10-6.7 16.1-6.7 6.1 0 11.8 2.4 16.1 6.7 4.3 4.2 6.7 9.9 6.7 16.1zm-5.7-247.5c0 5.4-2.1 10.3-5.9 14.1-3.9 3.9-9 5.8-14 5.8-5.1 0-10.2-1.9-14-5.8-3.9-3.9-5.9-9-5.9-14.1s2-10.2 5.9-14.1c3.8-3.8 8.7-5.9 14-5.9 5.3 0 10.3 2.1 14 5.9 3.8 3.7 5.9 8.8 5.9 14.1zM153.6 378.3c0 5.3-2.1 10.3-5.9 14-3.9 3.9-8.9 5.9-14.1 5.9s-10.2-2-14.1-5.9c-1.9-1.9-3.4-4.1-4.3-6.4-.9-2.3-1.5-4.9-1.5-7.6 0-5.3 2.1-10.3 5.9-14 3.8-3.8 8.7-5.9 14.1-5.9s10.3 2.1 14.1 5.9c3.7 3.6 5.8 8.7 5.8 14z"/></symbol><symbol id="icon-about-confidentiality" viewBox="0 0 512 512"><defs><path id="a" d="M45.5 0h421v512h-421z"/></defs><clipPath id="b"><use xmlns:xlink="http://www.w3.org/1999/xlink" xlink:href="#a" overflow="visible"/></clipPath><g clip-path="url(#b)"><path fill="#FFF" d="M139 7.5h320v497H52.9V96.4L139 7.5z"/><path fill="#50406B" d="M459.1 512H52.9c-4.1 0-7.4-3.4-7.4-7.5V96.4c0-1.9.8-3.8 2.2-5.2l86.1-88.9c1.4-1.5 3.4-2.3 5.3-2.3h320c4.1 0 7.4 3.4 7.4 7.5v497c0 4.2-3.3 7.5-7.4 7.5zM60.4 497h391.2V15H142.1L60.4 99.4V497z"/><path fill="#F2BE96" d="M139 7.5v88.9H52.9L139 7.5z"/><path fill="#50406B" d="M139 103.9H52.9c-3 0-5.7-1.8-6.9-4.6-1.2-2.7-.5-6 1.5-8.2l86.2-88.8C135.9.1 139-.6 141.8.5c2.8 1.1 4.6 3.9 4.6 6.9v88.9c.1 4.2-3.2 7.6-7.4 7.6zm-68.5-15h61.1V25.8L70.5 88.9zm331.5-36H187.4c-4.1 0-7.4-3.4-7.4-7.5s3.4-7.5 7.4-7.5H402c4.1 0 7.4 3.4 7.4 7.5.1 4.1-3.3 7.5-7.4 7.5zm0 41.3H187.4c-4.1 0-7.4-3.4-7.4-7.5s3.4-7.5 7.4-7.5H402c4.1 0 7.4 3.4 7.4 7.5.1 4.1-3.3 7.5-7.4 7.5zm0 330.9h-57.4c-4.1 0-7.4-3.4-7.4-7.5s3.4-7.5 7.4-7.5H402c4.1 0 7.4 3.4 7.4 7.5.1 4.1-3.3 7.5-7.4 7.5zm0 41.3h-94.9c-4.1 0-7.4-3.4-7.4-7.5s3.4-7.5 7.4-7.5H402c4.1 0 7.4 3.4 7.4 7.5.1 4.1-3.3 7.5-7.4 7.5zm-223.2 0H83.9c-4.1 0-7.4-3.4-7.4-7.5v-33.5c0-4.1 3.4-7.5 7.4-7.5h94.9c4.1 0 7.4 3.4 7.4 7.5V459c0 4-3.4 7.4-7.4 7.4zm-87.5-14.9h80V433h-80v18.5z"/><path fill="#F2BE96" d="M372 196.8v66.1c0 135.2-116.1 180-116.1 180s-116.1-44.7-116.1-180v-66.1s77.2 8.6 116.1-32.6c39 41.1 116.1 32.6 116.1 32.6z"/><path fill="#50406B" d="M256.1 450.5c-.9 0-1.8-.1-2.7-.5-1.2-.5-30.8-12.1-60.5-40.9-27.6-26.7-60.3-73.6-60.3-146.1v-66.1c0-2.2.9-4.2 2.4-5.6 1.6-1.4 3.6-2 5.8-1.9.7.1 73.9 7.6 109.9-30.5 1.4-1.5 3.4-2.3 5.4-2.3 2 0 3.9.8 5.4 2.3 35.9 38.1 109.1 30.5 109.9 30.5 2.2-.3 4.2.4 5.8 1.9 1.6 1.4 2.4 3.4 2.4 5.6V263c0 72.5-32.8 119.4-60.3 146.1-29.7 28.8-59.3 40.4-60.5 40.9-1 .3-1.9.5-2.7.5zM147.4 204.8v58.1c0 53.7 18.6 99.1 55.3 134.9 22.7 22 45.7 33.6 53.2 37 7.7-3.4 30.7-15 53.2-37 36.8-35.8 55.3-81.2 55.3-134.9v-58.1c-20.5 1-74.3.1-108.7-30.3-34 30.6-87.7 31.3-108.3 30.3z"/><path fill="#FFF" d="M256.1 408.8s82.3-39.4 82.3-143.5v-35.1c-41.6 0-82.3-25-82.3-25s-40.7 25-82.3 25v35.1c0 104.2 82.3 143.5 82.3 143.5z"/><path fill="#50406B" d="M256.1 416.3c-1.1 0-2.2-.3-3.2-.7-.9-.4-22.2-10.7-43.5-34.4-19.6-21.9-43.1-59.7-43.1-115.7v-35.1c0-4.1 3.4-7.5 7.4-7.5 38.9 0 78-23.7 78.4-23.9 2.4-1.5 5.4-1.5 7.7 0 .4.3 39.5 23.9 78.4 23.9 4.1 0 7.4 3.4 7.4 7.5v35.1c0 56.2-23.4 94-43.1 115.7-21.4 23.7-42.6 34-43.5 34.4-.8.4-1.9.7-2.9.7zm-74.9-178.9v27.9c0 41.1 13.1 76.4 38.8 105.3 14.7 16.5 29.7 26.1 36.1 29.6 6.4-3.7 21.4-13.2 36.1-29.6C318 341.8 331 306.3 331 265.3v-27.9c-33.4-2.2-64.2-17.7-74.9-23.7-10.7 6.1-41.7 21.7-74.9 23.7z"/><path fill="#F2BE96" d="M288.8 280.3c0 13.5-8 25-19.5 30.2v27.3c0 3.7-1.5 7.1-3.9 9.4-2.4 2.4-5.7 3.9-9.3 3.9-7.3 0-13.2-6-13.2-13.3v-27.3c-11.5-5.2-19.5-16.7-19.5-30.2 0-18.2 14.6-32.9 32.7-32.9s32.7 14.7 32.7 32.9z"/><path fill="#50406B" d="M256.1 358.6c-11.5 0-20.7-9.4-20.7-20.8V315c-12-7.2-19.5-20.4-19.5-34.7 0-22.3 18-40.4 40.1-40.4 22.2 0 40.1 18.1 40.1 40.4 0 14.3-7.6 27.5-19.5 34.7v22.8c0 5.6-2.2 10.7-6.1 14.7-3.8 3.9-8.9 6.1-14.4 6.1zm0-103.8c-13.9 0-25.3 11.4-25.3 25.4 0 10.1 5.9 19.2 15 23.3 2.7 1.2 4.5 3.9 4.5 6.8v27.3c0 3.3 2.6 5.8 5.8 5.8 1.6 0 3-.5 4.2-1.8 1.1-1.1 1.8-2.6 1.8-4.2v-27.3c0-3 1.8-5.6 4.5-6.8 9.2-4.1 15-13.2 15-23.3-.3-13.7-11.6-25.2-25.5-25.2z"/></g></symbol><symbol id="icon-about-docs" viewBox="0 0 512 512"><defs><path id="a" d="M45.5 0h421v512h-421z"/></defs><clipPath id="b"><use xlink:href="#a" overflow="visible"/></clipPath><g clip-path="url(#b)"><path fill="#F8F7F7" d="M139 7.5h320v497H52.9V96.4L139 7.5z"/><path fill="#50406B" d="M459.1 512H52.9c-4.1 0-7.4-3.4-7.4-7.5V96.4c0-1.9.8-3.8 2.2-5.2l86.1-88.9c1.4-1.5 3.4-2.3 5.3-2.3h320c4.1 0 7.4 3.4 7.4 7.5v497c0 4.2-3.3 7.5-7.4 7.5zM60.4 497h391.2V15H142.1L60.4 99.4V497z"/><path fill="#F2BE96" d="M139 7.5v88.9H52.9L139 7.5z"/><path fill="#50406B" d="M139 103.9H52.9c-3 0-5.7-1.8-6.9-4.6-1.2-2.7-.5-6 1.5-8.2l86.2-88.8C135.9.1 139-.6 141.8.5c2.8 1.1 4.6 3.9 4.6 6.9v88.9c.1 4.2-3.2 7.6-7.4 7.6zm-68.5-15h61.1V25.8L70.5 88.9zm331.5-36H187.4c-4.1 0-7.4-3.4-7.4-7.5s3.4-7.5 7.4-7.5H402c4.1 0 7.4 3.4 7.4 7.5.1 4.1-3.3 7.5-7.4 7.5zM290.8 366.2H109.4c-4.1 0-7.4-3.4-7.4-7.5s3.4-7.5 7.4-7.5h181.4c4.1 0 7.4 3.4 7.4 7.5s-3.3 7.5-7.4 7.5zM402 94.2H187.4c-4.1 0-7.4-3.4-7.4-7.5s3.4-7.5 7.4-7.5H402c4.1 0 7.4 3.4 7.4 7.5.1 4.1-3.3 7.5-7.4 7.5zM229.7 441.7H109.4c-4.1 0-7.4-3.4-7.4-7.5s3.4-7.5 7.4-7.5h120.3c4.1 0 7.4 3.4 7.4 7.5s-3.3 7.5-7.4 7.5z"/><path fill="#F2BE96" d="M401.9 177.2H109.4v91.2h292.5v-91.2z"/><path fill="#50406B" d="M402 275.9H109.4c-4.1 0-7.4-3.4-7.4-7.5v-91.2c0-4.1 3.4-7.5 7.4-7.5h292.5c4.1 0 7.4 3.4 7.4 7.5v91.2c.2 4.1-3.2 7.5-7.3 7.5zM116.9 261h277.6v-76.3H116.9V261zm254.4 120.6c-1.9 0-3.8-.7-5.3-2.2l-22.6-22.7c-2.8-2.9-2.8-7.6 0-10.6 2.8-2.9 7.6-2.9 10.5 0l17.4 17.5 25.3-25.4c2.8-2.9 7.6-2.9 10.5 0 2.8 2.9 2.8 7.6 0 10.6l-30.7 30.6c-1.1 1.5-3 2.2-5.1 2.2z"/><path fill="#50406B" d="M340.1 244.6c-1.9 0-3.8-.7-5.3-2.2l-22.6-22.7c-2.8-2.9-2.8-7.6 0-10.6 2.8-2.9 7.6-2.9 10.5 0l17.4 17.5 25.3-25.4c2.8-2.9 7.6-2.9 10.5 0 2.8 2.9 2.8 7.6 0 10.6l-30.5 30.7c-1.4 1.5-3.4 2.1-5.3 2.1zm31.2 212.5c-2 0-3.9-.8-5.3-2.2l-22.6-22.7c-2.8-2.9-2.8-7.6 0-10.6 2.8-2.9 7.6-2.9 10.5 0l17.4 17.5 25.3-25.4c2.8-2.9 7.6-2.9 10.5 0 2.8 2.9 2.8 7.6 0 10.6l-30.7 30.6c-1.1 1.5-3 2.2-5.1 2.2z"/></g></symbol><symbol id="icon-about-eye" viewBox="0 0 512 512"><defs><path id="a" d="M0 49.6h512v412.7H0z"/></defs><clipPath id="b"><use xlink:href="#a" overflow="visible"/></clipPath><g clip-path="url(#b)"><path fill="#50406B" d="M495.5 252.4c-1.1-1.5-28-37.6-71.9-74.1-58.4-48.8-119-74.6-175.2-74.6-56.2 0-116.7 25.7-175.2 74.6-43.9 36.6-70.7 72.6-71.9 74.1-1.7 2.5-1.7 5.7 0 8.1 1.1 1.5 28.1 37.6 71.9 74.1 58.4 48.8 119 74.6 175.2 74.6 56.2 0 116.7-25.7 175.2-74.6 43.9-36.6 70.7-72.6 71.9-74.1 1.8-2.4 1.8-5.7 0-8.1zm-80.9 72c-38.9 32.5-99.5 71.2-166.2 71.2s-127.2-38.7-166.2-71.2c-34.3-28.6-58.4-57.5-66.8-67.9 8.3-10.4 32.5-39.4 66.8-67.9 38.9-32.5 99.5-71.2 166.2-71.2s127.2 38.7 166.2 71.2c34.3 28.6 58.4 57.5 66.8 67.9-8.3 10.4-32.4 39.3-66.8 67.9z"/><path fill="#F8F7F7" d="M414.6 188.6c-38.9-32.5-99.5-71.2-166.2-71.2-66.8 0-127.2 38.7-166.2 71.2-34.3 28.6-58.4 57.5-66.8 67.9 8.3 10.4 32.5 39.3 66.8 67.9 38.9 32.5 99.5 71.2 166.2 71.2 66.8 0 127.2-38.7 166.2-71.2 34.3-28.6 58.4-57.5 66.8-67.9-8.3-10.5-32.4-39.4-66.8-67.9zM248.4 334.2c-42.9 0-77.7-34.8-77.7-77.7s34.9-77.7 77.7-77.7c42.9 0 77.7 34.8 77.7 77.7 0 42.8-34.8 77.7-77.7 77.7z"/><path fill="#50406B" d="M248.4 178.8c-42.9 0-77.7 34.8-77.7 77.7s34.9 77.7 77.7 77.7c42.9 0 77.7-34.8 77.7-77.7s-34.8-77.7-77.7-77.7zm0 141.8c-35.3 0-64-28.7-64-64.1s28.7-64.1 64-64.1 64 28.7 64 64.1-28.7 64.1-64 64.1z"/><path fill="#F2BE96" d="M311.7 266.7c5.7-34.9-18-67.8-52.9-73.5-34.9-5.7-67.8 18-73.5 53-5.7 34.9 18 67.8 52.9 73.5 34.9 5.7 67.8-18 73.5-53z"/><path fill="#50406B" d="M248.4 462.4c-3.7 0-6.8-3.1-6.8-6.8 0-3.7 3.1-6.8 6.8-6.8 71.2 0 135.8-38.9 177.3-71.5 45.3-35.6 73.7-71.5 74-71.9 2.4-3 6.6-3.5 9.6-1.1s3.5 6.6 1.1 9.6c-1.2 1.5-29.7 37.6-76.3 74.1-43.2 33.8-110.5 74.4-185.7 74.4zM490 178.8c-1.9 0-3.6-.7-5-2.1-.2-.2-27.2-28.7-69.9-56.8-39-25.7-99.6-56.5-166.7-56.5S120.7 94 81.7 119.7c-42.6 28.1-69.6 56.6-69.9 57-2.6 2.7-7 2.9-9.7.2-2.7-2.6-2.9-7-.4-9.7 1.1-1.2 28.1-29.7 72-58.7 40.8-26.9 104.1-58.8 174.7-58.8s133.9 32 174.6 58.8c43.9 29 70.9 57.6 72 58.7 2.6 2.7 2.5 7.1-.4 9.7-1.3 1.2-2.9 1.9-4.6 1.9z"/></g></symbol><symbol id="icon-about-folder" viewBox="0 0 512 512"><defs><path id="a" d="M0 2.8h512v506.4H0z"/></defs><clipPath id="b"><use xlink:href="#a" overflow="visible"/></clipPath><g clip-path="url(#b)"><path fill="#4E4468" d="M495.1 103.5v344.2H254.8V186.8c0-4.6-3.8-8.4-8.4-8.4h-94.1v-74.9c-10.6-11.3-16.9-26.4-16.9-43.1v118H8.4c-4.6 0-8.4 3.8-8.4 8.4v313.9c0 4.6 3.8 8.4 8.4 8.4h237.9c4.6 0 8.4-3.8 8.4-8.4v-36.2h248.6c4.6 0 8.4-3.8 8.4-8.4V60.4c.3 16.7-6 31.8-16.6 43.1zM237.9 492.4h-221V195.2H238v297.2z"/><path fill="#4E4468" d="M512 26v34.4c0 16.7-6.3 31.8-16.9 43.1-9.5 10.1-22.2 17.1-37.1 19.4l-92.8 13.9v-17l90.4-13.6c23-3.5 39.5-22.8 39.5-45.9V26c0-3.5-2.9-6.4-6.4-6.4h-330c-3.5 0-6.4 2.9-6.4 6.4v34.4c0 23.1 16.5 42.5 39.5 45.9l90.4 13.6v17L189.4 123c-14.7-2.1-27.6-9.3-37.1-19.4-10.6-11.3-16.9-26.4-16.9-43.1V26c0-12.8 10.4-23.2 23.3-23.2h330C501.6 2.8 512 13.2 512 26z"/><path fill="#4E4468" d="M323.7 56.3c-22.8 0-41.5 18.6-41.5 41.4v122.1c0 22.9 18.7 41.4 41.5 41.4 23 0 41.5-18.6 41.5-41.4V97.7c0-22.7-18.7-41.4-41.5-41.4zm0 188.3c-13.6 0-24.7-11-24.7-24.6 0-13.6 11-24.6 24.7-24.6 13.6 0 24.7 11 24.7 24.6 0 13.5-11 24.6-24.7 24.6zm24.7-57.9c-6.9-5-15.5-8.1-24.7-8.1s-17.8 3.1-24.7 8.1v-47.2c8.1.8 16.4 1.1 24.7 1.1s16.5-.3 24.7-1.1v47.2zm-24.7-64.2c-13.6 0-24.7-11-24.7-24.6 0-13.6 11-24.8 24.7-24.8 13.6 0 24.7 11 24.7 24.6 0 13.6-11 24.8-24.7 24.8z"/><path fill="#F8F7F7" d="M495.1 103.5v344.2H254.8V186.8c0-4.6-3.8-8.4-8.4-8.4h-94.1v-74.9c9.5 10.1 22.2 17.1 37.1 19.4l92.8 13.9v83c0 22.9 18.7 41.4 41.5 41.4 23 0 41.5-18.6 41.5-41.4v-83l92.8-13.9c14.8-2.2 27.6-9.3 37.1-19.4z"/><path fill="#F2BE96" d="M348.4 219.9c0 13.6-11 24.6-24.7 24.6s-24.7-11-24.7-24.6c0-13.6 11-24.6 24.7-24.6s24.7 11.1 24.7 24.6z"/><path fill="#F8F7F7" d="M348.4 139.5v47.2c-6.9-5-15.5-8.1-24.7-8.1s-17.8 3.1-24.7 8.1v-47.2c8.1.8 16.4 1.1 24.7 1.1 8.3-.1 16.6-.5 24.7-1.1z"/><path fill="#F2BE96" d="M348.4 97.7c0 13.6-11 24.6-24.7 24.6s-24.7-11-24.7-24.6c0-13.6 11-24.6 24.7-24.6s24.7 11.2 24.7 24.6z"/><path fill="#F2BE96" d="M495.1 26v34.4c0 23.1-16.7 42.5-39.5 45.9l-90.4 13.6V97.7c0-22.9-18.7-41.4-41.5-41.4s-41.5 18.6-41.5 41.4v22.2l-90.4-13.6c-23-3.5-39.5-22.8-39.5-45.9V26c0-3.5 2.9-6.4 6.4-6.4h330c3.5 0 6.4 2.9 6.4 6.4z"/><path fill="#F8F7F7" d="M16.9 195.2v297.1H238V195.2H16.9zm147.3 269.4H89.5c-4.6 0-8.4-3.8-8.4-8.4 0-4.6 3.8-8.4 8.4-8.4h74.6c4.6 0 8.4 3.8 8.4 8.4.2 4.7-3.7 8.4-8.3 8.4zm23.3-39.8H66c-4.6 0-8.4-3.8-8.4-8.4 0-4.6 3.8-8.4 8.4-8.4h121.5c4.6 0 8.4 3.8 8.4 8.4 0 4.6-3.6 8.4-8.4 8.4zm-7.3-65.9c-.3.5-.8.8-1.2 1.1-7.7 6.7-16.7 12.1-26.7 15.3-5.4 1.8-11 3.1-16.9 3.7-2.6.3-5.4.5-8 .5-19.6 0-37.7-7.3-51.5-19.3-.5-.3-.9-.8-1.4-1.2a77.75 77.75 0 0 1-25.4-57.6c0-43.1 35.1-78.1 78.3-78.1 2.8 0 5.4.2 8 .5 5.8.6 11.5 1.8 16.9 3.7 31.1 10.4 53.5 39.7 53.5 74.1-.1 22.5-10 43-25.6 57.3z"/><path fill="#4E4468" d="M152.3 227.2c-5.4-1.8-11-3.1-16.9-3.7-2.6-.3-5.4-.5-8-.5-43.2 0-78.3 35-78.3 78.1 0 22.8 9.8 43.4 25.4 57.6.5.5.9.9 1.4 1.2 13.8 12.1 31.7 19.3 51.5 19.3 2.8 0 5.4-.2 8-.5 5.8-.6 11.5-1.8 16.9-3.7 10-3.4 19-8.6 26.7-15.3.5-.3.8-.8 1.2-1.1 15.6-14.2 25.6-34.8 25.6-57.6-.1-34.2-22.4-63.4-53.5-73.8zm0 130.1c-5.2 2.3-10.9 4-16.9 4.7-2.6.3-5.4.5-8 .5-13.8 0-26.5-4.6-36.8-12.2 6-14.8 20.4-24.8 36.8-24.8 2.8 0 5.4.3 8 .8 6.3 1.2 11.9 4 16.9 7.9 5.2 4.1 9.3 9.6 11.8 16-3.7 2.9-7.5 5.2-11.8 7.1zm-43.4-67c0-10.2 8.3-18.5 18.5-18.5 2.9 0 5.7.6 8 1.8 6.1 3.1 10.4 9.3 10.4 16.7 0 7.3-4.3 13.6-10.4 16.7-2.5 1.2-5.2 1.8-8 1.8-10.2 0-18.5-8.2-18.5-18.5zm67.9 47.4c-5.5-9.9-13.9-17.9-23.9-22.9 6.1-6.3 10-15 10-24.5 0-9.8-4-18.6-10.4-25.1-4.6-4.6-10.4-7.8-16.9-9.3-2.6-.6-5.2-.9-8-.9-19.5 0-35.4 15.9-35.4 35.3 0 9.5 3.8 18.2 10 24.5-10 5-18.4 13-23.9 22.9-7.7-10.2-12.1-22.8-12.1-36.5 0-33.8 27.6-61.3 61.4-61.3 2.8 0 5.4.2 8 .5 6 .8 11.6 2.4 16.9 4.7 21.4 9.5 36.6 31 36.6 56.1-.2 13.7-4.8 26.4-12.3 36.5z"/><path fill="#F2BE96" d="M164.1 350.4c-3.7 2.8-7.7 5-11.8 6.9-5.2 2.3-10.9 4-16.9 4.7-2.6.3-5.4.5-8 .5-13.8 0-26.5-4.6-36.8-12.2 6-14.8 20.4-24.8 36.8-24.8 2.8 0 5.4.3 8 .8 6.3 1.2 11.9 4 16.9 7.9 5.2 4.3 9.3 9.8 11.8 16.2z"/><path fill="#F2BE96" d="M188.9 301.3c0 13.6-4.4 26.3-12.1 36.5-5.5-9.9-13.9-17.9-23.9-22.9 6.1-6.3 10-15 10-24.5 0-9.8-4-18.6-10.4-25.1-4.6-4.6-10.4-7.8-16.9-9.3-2.6-.6-5.2-.9-8-.9-19.5 0-35.4 15.9-35.4 35.3 0 9.5 3.8 18.2 10 24.5-10 5-18.4 13-23.9 22.9-7.7-10.2-12.1-22.8-12.1-36.5 0-33.8 27.6-61.3 61.4-61.3 2.8 0 5.4.2 8 .5 6 .8 11.6 2.4 16.9 4.7 21.4 9.5 36.4 31.1 36.4 56.1z"/><path fill="#F2BE96" d="M146 290.3c0 7.3-4.3 13.6-10.4 16.7-2.5 1.2-5.2 1.8-8 1.8-10.3 0-18.5-8.3-18.5-18.5s8.3-18.5 18.5-18.5c2.9 0 5.7.6 8 1.8 6.1 3.1 10.4 9.4 10.4 16.7z"/><path fill="#4E4468" d="M76 360.2c-.5-.3-.9-.8-1.4-1.2.5.2.9.7 1.4 1.2zm119.9 56.2c0 4.6-3.8 8.4-8.4 8.4H66c-4.6 0-8.4-3.8-8.4-8.4 0-4.6 3.8-8.4 8.4-8.4h121.5c4.8 0 8.4 3.8 8.4 8.4zm-23.2 39.7c0 4.6-3.8 8.4-8.4 8.4H89.5c-4.6 0-8.4-3.8-8.4-8.4 0-4.6 3.8-8.4 8.4-8.4h74.6c4.7 0 8.6 3.9 8.6 8.4z"/></g></symbol><symbol id="icon-about-participant" viewBox="0 0 512 512"><defs><path id="a" d="M48.4 0h415.3v512H48.4z"/></defs><clipPath id="b"><use xlink:href="#a" overflow="visible"/></clipPath><g clip-path="url(#b)"><path fill="#50406B" d="M203.9 291.5c-.4-.3-.9-.7-1.5-.9.6.1 1.1.5 1.5.9zm122 48.1c-.9.8-2.2 1.5-3.5 1.8 1.2-.7 2.4-1.2 3.5-1.8zm62.2 128.2c0 4.5-3.6 8.1-8.1 8.1h-51.7c-4.5 0-8.1-3.7-8.1-8.1 0-4.5 3.6-8.1 8.1-8.1H380c4.5-.1 8.1 3.6 8.1 8.1zm-95.4-57.1c-.3-.4-.7-.9-.9-1.6.3.4.6.9.9 1.6z"/><path fill="#50406B" d="M462 463c-3.1-17.9-4.6-24.1-6.6-32.7-.5-2.4-1.2-5-1.9-8.1-3.9-17.2-24.4-37.2-45.6-44.5-12.6-4.3-29.3-9.8-39.2-12.7.5-4.1-.3-8.3-2.2-12.3-1.6-3.5-3.5-7.9-6.9-19.8-2.7-9.5-8.1-13.4-12.3-15.1-6.1-2.3-13.5-1.2-20.8 3.1l-3.5-21c11.1-8.5 21.2-19.4 30.4-32.3 9-12.6 16.6-26.9 22.4-41.8 27.1-2.3 47.7-21.2 47.7-44.9 0-18.7-8.6-31.2-23.8-34.7 1.9-9.4 4.6-24.3 4.6-34.9 0-23.3-8.8-48.6-23.6-67.7-17-22.1-40.4-34.2-65.6-34.2-13.4 0-23 2.4-28.4 4.3C279 8.5 260.8 0 224.5 0c-36.6 0-65.1 19.5-68.3 21.8-16.9 10.6-48.5 43-48.5 91 0 11.3 2.4 24.7 4.3 33.4-15 3.7-23.5 16.1-23.5 34.7 0 23.7 21.1 42.6 48.9 44.9 5.8 16.1 13.5 31.2 22.8 44.5 8.8 12.3 18.8 22.8 29.6 30.9l-3.4 19.8c-7.4-4.6-14.9-5.8-21.1-3.4-4.2 1.6-9.6 5.4-12.3 15.1-3.4 11.9-5.3 16.4-6.9 19.8-2.2 4.5-2.8 9-2 13.3-9.3 3.5-25.8 9.5-42.3 14.4-27 8.3-40.5 30.9-44 49.4-.5 2.7-.9 5-1.4 7.2-1.8 9-3 15.5-6.6 32-3 13.6-1.5 23.9 4.5 31.3 6.3 7.9 16.9 11.7 32.4 11.7h337.6c11.7 0 24.8-.8 32.8-10.2 6.7-7.8 8.2-19.7 4.9-38.6zM325.9 339.6c0-.1 0-.1 0 0 4.3-2.2 7.3-3.7 7.7-3.9.3-.1.4-.3.7-.4 2.7-1.8 5-2.4 6.5-2.4.4 0 .7 0 .9.1.9.4 1.8 1.9 2.4 4.2 3.2 11.9 5.4 17.5 7.8 22.5.7 1.4 1.5 3.1-.1 5.8-.1.1-.1.4-.4.5 0 0 0 .1-.1.1-.8 1.1-2 2.4-3.8 3.8-1.9 1.5-4.7 3.8-7.8 6.2-13.1 10.4-37.5 30-43.2 33.9-1.6 1.1-2.4 1.4-2.8 1.5l-.8-.8v-.1c-.3-.4-.7-.9-.9-1.6-.7-1.2-1.5-2.8-2.3-5.2-3.1-8.7-5.4-16.3-7.2-22.4-1.4-4.7-2.4-8.3-3.4-10.7-1.4-3.3-1.6-5-1.1-6.1 0-.1.1-.1.1-.3.4-.8 1.4-1.4 2.6-1.8 7.2-3.4 28.5-14.2 42-21.2.9-.6 2.1-1.1 3.2-1.7zm-52.4 8.2c-2 .9-4.9 2.6-7.3 5.3h-19.6c-2.4-2.7-5.3-4.3-7.3-5.3-6.2-3-24.3-12.1-37.7-18.9l3.1-18c15.9 8.7 33.2 13.3 51.3 13.3 18.2 0 35.9-4.9 52.3-14.2l3.2 18.9c-13.3 6.5-31.8 15.9-38 18.9zm2.8 67-5.8 14.1h-28.4l-5.8-14.2c.8-1.8 1.6-3.7 2.2-5.3 3.2-9.1 5.7-17.4 7.4-23.3 1.2-3.9 2.2-7.5 2.8-9.1 1.1-2.7 1.9-5.3 2.2-7.6h10.5c.4 2.3 1.1 4.9 2.2 7.6.7 1.6 1.8 5.2 2.8 9.1 1.8 6 4.2 14.2 7.4 23.3.9 1.6 1.7 3.5 2.5 5.4zM390 161.3h.5c11.5.1 16.9 6.4 16.9 19.7 0 13-10.5 23.7-25.5 27.5 4.6-15.6 7.5-31.5 8.1-47.2zM315.1 25.8c43.1 0 73.2 45 73.2 85.6 0 10.2-3 25.8-4.7 34.2-8.6.3-25.7-.9-37.4-12.2-8-7.7-17.4-21.2-25.8-33-10.1-14.4-17-24.1-23.2-29.2 2.6-7.1 3.9-13.6 3.9-19 0-9-2.6-17.9-4.7-24.3 4.2-1 10.6-2.1 18.7-2.1zM104.5 180.9c0-13.3 5.5-19.5 17.3-19.7h.1l3 .1c.5 16 3 31.9 7 47.1-15.7-3.5-27.4-14.5-27.4-27.5zm28.5-35.4-4.7-.3c-1.8-7.6-4.6-21.6-4.6-32.6 0-42.5 29.7-70.3 41.1-77.3.1-.1.4-.3.5-.4.3-.1 26.3-18.9 59.2-18.9 36.2 0 50.8 9.2 54.3 11.8 1.6 3.7 5.9 14.4 5.9 24.1 0 13.2-12 36.6-35 55.7-20.6 17.5-57.5 37.9-116.7 37.9zm8.1 16.3c59.3-1.9 97.2-23.2 118.8-41.2 13.1-10.9 22.8-22.8 29.6-34 5 5.6 12.2 15.9 17.4 23.3 9.2 13 18.6 26.6 27.8 35.4 12 11.5 27.4 15.3 39 16.4-.8 17.8-4.6 35.8-10.8 53-.1.4-.3.8-.5 1.4-18.6 50.3-58.2 92-106.6 92-19.4 0-37-6-52.1-16.3-.4-.3-.9-.7-1.5-.9-36.8-26.7-58.9-78.5-61.1-129.1zm19.8 197.8c2.4-5 4.5-10.6 7.8-22.5.7-2.3 1.5-3.8 2.4-4.2.3-.1.5-.1.9-.1 1.4 0 3.6.7 6.5 2.4.3.1.4.3.7.4.5.3 4.5 2.3 10 5.2h.1c13.2 6.8 35.8 18.2 43.1 21.7 1.1.5 2 .9 2.6 1.8 0 .1.1.3.1.3.4 1.1.1 2.8-1.1 6.1-.9 2.4-2 6-3.4 10.7-1.8 6.1-4.1 13.7-7.2 22.4-1.1 2.8-1.9 4.6-2.7 5.8-.1.1-.1.3-.3.5-.5.8-.9 1.2-1.1 1.4-.4-.1-1.4-.5-2.8-1.5-5.7-3.8-30.1-23.3-43.2-33.9-3.2-2.6-5.9-4.7-8-6.2-1.8-1.4-3-2.6-3.6-3.7v-.1c-.1-.1-.3-.4-.4-.5-1.9-2.9-1.1-4.7-.4-6zM86.7 495.7c-7 0-16.1-.9-19.7-5.6-2.7-3.4-3.1-9.4-1.4-17.6 3.6-16.7 5-23.3 6.6-32.4.4-2.2.9-4.6 1.4-7.2.9-4.7 6.9-29 33-37 18.4-5.6 36.9-12.3 45.6-15.7.9.8 1.9 1.8 2.8 2.4 1.9 1.5 4.7 3.8 7.8 6.2 19.3 15.5 38.5 30.8 44.3 34.6 1.8 1.2 6.5 4.3 12.2 4.3 1.5 0 3-.1 4.5-.7l4.2 10.3-17.3 58.3h-124zm141.1 0 15-50.6H270l15 50.6h-57.2zm216.9-4.3c-2.6 3.1-8.5 4.3-20.4 4.3H301.9l-17.3-58.3 4.2-10.2c1.5.4 3 .7 4.5.7 5.7 0 10.4-3.1 12.2-4.3 5.8-3.9 25.1-19.3 44.3-34.6 3.2-2.6 5.9-4.7 7.8-6.2 1.2-.9 2.4-2 3.5-3.1 8.9 2.8 27.8 8.8 41.6 13.6 17.2 6 32.7 22.1 35.1 32.7.7 3.3 1.4 5.8 1.9 8.3 2 8.3 3.4 14.2 6.3 31.7 2.8 16.3.9 22.8-1.3 25.4z"/><path fill="#F2BE96" d="M407.5 180.9c0 13-10.5 23.7-25.5 27.5 4.6-15.5 7.4-31.5 8.1-47.1.3 0 .4 0 .5-.1 11.5.3 16.9 6.6 16.9 19.7zM132 208.6c-15.8-3.7-27.3-14.6-27.3-27.7 0-13.3 5.5-19.5 17.3-19.7h.1l3 .1c.4 16.1 2.8 32.1 6.9 47.3z"/><path fill="#F8F7F7" d="M445.9 465.8c-3.1-17.5-4.5-23.5-6.3-31.7-.5-2.4-1.2-5.2-1.9-8.3-2.4-10.6-18-26.7-35.1-32.7-13.8-4.7-32.5-10.7-41.6-13.6-1.1 1.1-2.2 2-3.5 3.1-1.9 1.5-4.7 3.8-7.8 6.2-19.3 15.5-38.6 30.8-44.3 34.6-1.8 1.2-6.5 4.3-12.2 4.3-1.5 0-2.8-.1-4.5-.7l-4.2 10.2 17.3 58.3h122.5c11.9 0 17.7-1.2 20.4-4.3 2.2-2.4 4.1-8.9 1.2-25.4zM380 475.9h-51.7c-4.5 0-8.1-3.7-8.1-8.1 0-4.5 3.6-8.1 8.1-8.1H380c4.5 0 8.1 3.7 8.1 8.1 0 4.5-3.6 8.1-8.1 8.1z"/><path fill="#F2BE96" d="M285 495.7h-57.1l15-50.6H270l15 50.6z"/><path fill="#F8F7F7" d="M228.2 437.4 211 495.7H86.7c-7 0-16.1-.9-19.7-5.6-2.7-3.4-3.1-9.4-1.4-17.6 3.6-16.7 5-23.3 6.6-32.4.4-2.2.9-4.6 1.4-7.2.9-4.7 6.9-29 33-37 18.4-5.6 36.9-12.3 45.6-15.7.9.8 1.9 1.8 2.8 2.4 1.9 1.5 4.7 3.8 7.8 6.2 19.3 15.5 38.5 30.8 44.3 34.6 1.8 1.2 6.5 4.3 12.2 4.3 1.5 0 3-.1 4.5-.7l4.4 10.4zm5.7-66.7c-.9 2.4-2 6-3.4 10.7-1.8 6.1-4.1 13.7-7.2 22.4-1.1 2.8-1.9 4.6-2.7 5.8-.1.1-.1.3-.3.5-.5.8-.9 1.2-1.1 1.4-.4-.1-1.4-.5-2.8-1.5-5.7-3.8-30.1-23.3-43.2-33.9-3.2-2.6-5.9-4.7-8-6.2-1.8-1.4-3-2.6-3.6-3.7v-.1c-.1-.1-.3-.4-.4-.5-1.6-2.7-.8-4.6-.1-6 2.4-5 4.5-10.6 7.8-22.5.7-2.3 1.5-3.8 2.4-4.2.3-.1.5-.1.9-.1 1.4 0 3.6.7 6.5 2.4.3.1.4.3.7.4.5.3 4.5 2.3 10 5.2h.1c13.2 6.8 35.8 18.2 43.1 21.7 1.1.5 2 .9 2.6 1.8 0 .1.1.3.1.3.1 1.1 0 3-1.4 6.1z"/><path fill="#F2BE96" d="m276.3 414.8-5.8 14.1h-28.4l-5.8-14.2c.8-1.8 1.6-3.7 2.2-5.3 3.2-9.1 5.7-17.4 7.4-23.3 1.2-3.9 2.2-7.5 2.8-9.1 1.1-2.7 1.9-5.3 2.2-7.6h10.5c.4 2.3 1.1 4.9 2.2 7.6.7 1.6 1.8 5.2 2.8 9.1 1.8 6 4.2 14.2 7.4 23.3.9 1.6 1.7 3.5 2.5 5.4z"/><path fill="#F8F7F7" d="M351.8 365.4c-.1 0-.1 0 0 0-.1 0-.1 0 0 0-.1.3-.3.4-.4.5 0 0 0 .1-.1.1-.8 1.1-2 2.4-3.8 3.8-1.9 1.5-4.7 3.8-7.8 6.2-13.1 10.4-37.5 30-43.2 33.9-1.6 1.1-2.4 1.4-2.8 1.5l-.8-.8v-.1c-.3-.5-.5-1.1-.9-1.6-.7-1.2-1.5-2.8-2.3-5.2-3.1-8.7-5.4-16.3-7.2-22.4-1.4-4.7-2.4-8.3-3.4-10.7-1.4-3.3-1.6-5-1.1-6.1 0-.1.1-.1.1-.3.4-.8 1.4-1.4 2.6-1.8 7.2-3.4 28.5-14.2 42-21.2 1.4-.3 2.6-.9 3.5-1.8 4.3-2.2 7.3-3.7 7.7-3.9.3-.1.4-.3.7-.4 2.7-1.8 5-2.4 6.5-2.4.4 0 .7 0 .9.1.9.4 1.8 1.9 2.4 4.2 3.2 11.9 5.4 17.5 7.8 22.5.3 1.4 1.1 3.2-.4 5.9zm-40.2-36.8c-13.4 6.8-31.7 16.1-38.1 19.1-2 .9-4.9 2.6-7.3 5.3h-19.6c-2.4-2.7-5.3-4.3-7.3-5.3-6.2-3-24.3-12.1-37.7-18.9l3.1-18c15.9 8.7 33.2 13.3 51.3 13.3 18.2 0 35.9-4.9 52.3-14.2l3.3 18.7z"/><path fill="#F2BE96" d="M373.8 161.5c-.8 17.8-4.6 35.8-10.8 53-.1.4-.3.8-.5 1.4-18.6 50.3-58.2 92-106.6 92-19.4 0-37-6-52.1-16.3-.4-.4-.9-.7-1.5-.9-37-26.2-59.2-78.1-61.3-128.7 59.3-1.9 97.2-23.2 118.8-41.2 13.1-10.9 22.8-22.8 29.6-34 5 5.6 12.2 15.9 17.4 23.3 9.2 13 18.6 26.6 27.8 35.4 12.4 11.2 27.6 14.9 39.2 16z"/><path fill="#F8F7F7" d="M388.3 111.4c0 10.2-3 25.8-4.7 34.2-8.6.3-25.7-.9-37.4-12.2-8-7.7-17.4-21.2-25.8-33-10.1-14.4-17-24.1-23.2-29.2 2.6-7.1 3.9-13.6 3.9-19 0-9-2.6-17.9-4.7-24.3 4.5-1.1 10.8-2.2 18.9-2.2 42.9.1 73 45.1 73 85.7zM284.7 52.2c0 13.2-12 36.6-35 55.7C229 125 192.2 145.5 133 145.6l-4.7-.3c-1.8-7.6-4.6-21.6-4.6-32.6 0-42.5 29.7-70.3 41.1-77.3.1-.1.4-.3.5-.4.3-.1 26.3-18.9 59.2-18.9 36.2 0 50.8 9.2 54.3 11.8 1.6 4 5.9 14.6 5.9 24.3z"/></g></symbol><symbol id="icon-arrow" viewBox="0 0 512 512"><path d="M254.9 362.7c-4.4 0-8.8-1.4-12.6-4.1L8.7 187.9c-9.5-7-11.6-20.3-4.6-29.8 6.9-9.5 20.3-11.6 29.8-4.6l221 161.5 223.2-161.6c9.5-6.9 22.9-4.8 29.8 4.8 6.9 9.5 4.8 22.9-4.8 29.8L267.4 358.6c-3.8 2.7-8.1 4.1-12.5 4.1z"/></symbol><symbol id="icon-burger" viewBox="0 0 512 512"><path d="M493.1 78.7H18.9c-10.5 0-18.9-8-18.9-18s8.4-18 18.9-18h474.2c10.5 0 18.9 8 18.9 18s-8.4 18-18.9 18zM329.3 273.8H18.9c-10.5 0-18.9-8-18.9-18s8.4-18 18.9-18h310.4c10.5 0 18.9 8 18.9 18s-8.8 18-18.9 18zm163.8 195.5H18.9c-10.5 0-18.9-8-18.9-18s8.4-18 18.9-18h474.2c10.5 0 18.9 8 18.9 18s-8.4 18-18.9 18z"/></symbol><symbol id="icon-close" viewBox="0 0 512 512"><path d="M494.3 499.3c-4.4 0-8.7-1.6-12.1-4.8L5.5 42.8c-7.1-6.7-7.4-17.9-.7-25 6.7-7.1 17.9-7.4 25-.7l476.7 451.7c7.1 6.7 7.4 17.9.7 24.9-3.5 3.8-8.2 5.6-12.9 5.6z"/><path d="M17.7 499.3c-4.7 0-9.3-1.8-12.8-5.5-6.7-7.1-6.4-18.2.7-24.9L482.2 17.1c7.1-6.7 18.3-6.4 24.9.7 6.7 7.1 6.4 18.3-.7 25L29.8 494.5c-3.4 3.2-7.8 4.8-12.1 4.8z"/></symbol><symbol id="icon-faq" viewBox="0 0 512 512"><path d="M271.8 512c-17.7 0-32.4-6.4-43.7-18.9-11.2-12.3-16.7-27.5-16.7-46.5 0-19.7 5.9-35 17.6-45.3 10.4-11.6 25.1-17.9 42.7-17.9s32.4 6.4 43.7 18.9c11.5 12.7 16.7 26.4 16.7 44.3 0 18.9-5.4 34.1-16.7 46.5-11.2 12.5-25.9 18.9-43.6 18.9zm0-104.4c-11 0-18.9 3.4-25.7 10.9-7.2 6.5-10.4 15.6-10.4 28.1 0 12.8 3.3 22.4 10.4 30.2 6.8 7.6 14.8 10.9 25.7 10.9 11 0 18.9-3.4 25.7-10.9 7.1-7.8 10.4-17.4 10.4-30.2 0-12.1-2.8-19.7-10.4-28.1-6.8-7.5-14.7-10.9-25.7-10.9zm52.6-59.6H224.1l-1-11c-2-21.7 3.1-43.5 15-64.6l.4-.6c11.2-17.3 27.5-36.9 46-55.3 14.8-14.3 24.1-26.5 31.5-36.8 6-8.2 9.3-18.6 9.3-29.1 0-14.7-5.5-26.8-17.4-38-11-8.6-28.2-13.7-47.6-13.7-39.8 0-69.4 15-90.3 45.8l-7 10.2-79.6-56.7 6.7-9.8c18.5-27.2 43.3-49.9 71.7-65.6C189.5 7.5 223.6 0 266 0c48.1 0 85.4 10.9 117.2 34.3 30.3 23.9 45.5 57.2 45.5 99.2 0 22-2.5 37.9-8.5 53.4S408 214 399.4 225.8c-8.2 11.3-18.2 22.4-32.4 35.8-11.6 11.2-22.5 23.9-33.2 38.8-6.1 8.4-9.3 20.6-9.3 35.5V348zM247 323.7h53.8c1.6-14.8 6.1-27.7 13.3-37.6 11.6-16 23.4-29.8 36.1-42.1 13.1-12.4 22.2-22.4 29.5-32.5 7.4-10.2 12.5-19.9 17.8-33.5 4.9-12.6 6.9-25.5 6.9-44.6 0-34.8-11.7-60.9-35.9-79.9-27.1-19.8-59.8-29.2-102.5-29.2-38.2 0-68.4 6.5-92.5 19.8-21.7 12-41 28.6-56.4 48.4l40.2 28.6c25-30.8 59.6-46.5 103-46.5 25.2 0 47.2 6.8 63.5 19.6 17.7 16.6 25.8 34.9 25.8 56.4 0 15.6-4.9 31-13.9 43.3-8.1 11.2-18.1 24.4-34.2 39.9-16.8 16.7-32.3 35.3-42.4 50.8-7.5 13.2-11.5 26.1-12.1 39.1z"/></symbol><symbol id="icon-fonds" viewBox="0 0 512 512"><defs><path id="a" d="M12.2 0h487.6v512H12.2z"/></defs><clipPath id="b"><use xlink:href="#a" overflow="visible"/></clipPath><g clip-path="url(#b)"><path d="M485.4 165.5c-2.9 0-5.8 0-7.2-1.4l-224.4-133-220 130.1c-7.2 4.2-15.8 1.4-20.1-4.2-4.3-5.7-1.4-15.6 5.8-19.8L246.7 1.4c4.3-2.8 10.1-2.8 14.4 0l231.6 137.2c7.2 4.2 8.6 12.7 4.3 19.8-2.9 5.7-7.2 7.1-11.6 7.1zm0 346.5H26.6c-8.6 0-14.4-5.7-14.4-14.1 0-8.5 5.8-14.1 14.4-14.1h458.9c8.6 0 14.4 5.7 14.4 14.1-.1 8.4-7.3 14.1-14.5 14.1zM461 463.9H51.1c-8.6 0-14.4-5.7-14.4-14.1 0-8.5 5.8-14.1 14.4-14.1H461c8.6 0 14.4 5.7 14.4 14.1 0 8.4-7.2 14.1-14.4 14.1zM62.5 414.4c-8.6 0-14.4-5.7-14.4-14.1V192.4c0-8.5 5.8-14.1 14.4-14.1s14.4 5.7 14.4 14.1v206.5c0 8.4-5.7 15.5-14.4 15.5zm387 0c-8.6 0-14.4-5.7-14.4-14.1V192.4c0-8.5 5.8-14.1 14.4-14.1s14.4 5.7 14.4 14.1v206.5c0 8.4-7.2 15.5-14.4 15.5zm-197.1 0c-8.6 0-14.4-5.7-14.4-14.1V237.6c0-8.5 5.8-14.1 14.4-14.1 8.6 0 14.4 5.7 14.4 14.1v162.7c0 7-5.8 14.1-14.4 14.1z"/></g></symbol><symbol id="icon-foundations" viewBox="0 0 512 512"><path d="M485.4 165.5c-2.9 0-5.8 0-7.2-1.4l-224.4-133-220 130.1c-7.2 4.2-15.8 1.4-20.1-4.2-4.3-5.7-1.4-15.6 5.8-19.8L246.7 1.4c4.3-2.8 10.1-2.8 14.4 0l231.6 137.2c7.2 4.2 8.6 12.7 4.3 19.8-2.9 5.7-7.3 7.1-11.6 7.1zm0 346.5H26.6c-8.6 0-14.4-5.7-14.4-14.1 0-8.5 5.8-14.1 14.4-14.1h458.9c8.6 0 14.4 5.7 14.4 14.1-.1 8.4-7.3 14.1-14.5 14.1zM461 463.9H51c-8.6 0-14.4-5.7-14.4-14.1 0-8.5 5.8-14.1 14.4-14.1h410c8.6 0 14.4 5.7 14.4 14.1 0 8.5-7.2 14.1-14.4 14.1zM62.5 414.4c-8.6 0-14.4-5.7-14.4-14.1V192.4c0-8.5 5.8-14.1 14.4-14.1s14.4 5.7 14.4 14.1v206.5c0 8.4-5.7 15.5-14.4 15.5zm387 0c-8.6 0-14.4-5.7-14.4-14.1V192.4c0-8.5 5.8-14.1 14.4-14.1s14.4 5.7 14.4 14.1v206.5c0 8.4-7.2 15.5-14.4 15.5zm-197.1 0c-8.6 0-14.4-5.7-14.4-14.1V237.6c0-8.5 5.8-14.1 14.4-14.1 8.6 0 14.4 5.7 14.4 14.1v162.7c0 7-5.8 14.1-14.4 14.1z"/></symbol><symbol id="icon-full-mail" viewBox="0 0 512 512"><path fill="#50406B" d="M474.7 94.6H34.4C15.6 94.6.5 109.5 0 128v252.2c0 20.5 16.8 37.2 37.3 37.2h437.4c20.5 0 37.3-16.7 37.3-37.2V131.8c0-20.5-16.8-37.2-37.3-37.2zm-440.3 18h440.3c8.7 0 16.3 5.9 18.6 13.9l-10 5.1-210.5 105.9c-10.5 5.2-23 5.2-33.4-.2L28.9 129l-10-5.2c2.1-6.4 8.2-11.2 15.5-11.2zm459.5 267.6c0 10.5-8.5 19.2-19.2 19.2H37.3c-10.5 0-19.2-8.5-19.2-19.2V143.5l213 109.7c7.9 4.1 16.6 6.1 25.1 6.1s16.9-2 24.7-5.9l213-107.2v234z"/><path fill="#F8F7F7" d="M280.9 253.5c-7.7 3.9-16.3 5.9-24.7 5.9-8.7 0-17.3-2-25.1-6.1l-213-109.8v236.7c0 10.5 8.5 19.2 19.2 19.2h437.4c10.7 0 19.2-8.5 19.2-19.2V146.3l-213 107.2zm182.3 113.8c0 4.9-4.1 9-9 9H290.9c-4.9 0-9-4.1-9-9v-46.8c0-4.9 4.1-9 9-9h163.2c4.9 0 9 4.1 9 9v46.8z"/><path fill="#F8F7F7" d="m493.3 126.5-10 5.1-210.5 105.9c-10.5 5.2-23 5.2-33.4-.2L28.9 129l-10-5.2c2.1-6.5 8.2-11.1 15.5-11.1h440.3c8.9-.1 16.3 5.8 18.6 13.8z"/><path fill="#50406B" d="M454.1 311.5H290.9c-4.9 0-9 4.1-9 9v46.8c0 4.9 4.1 9 9 9h163.2c4.9 0 9-4.1 9-9v-46.8c.1-4.9-4-9-9-9zm-9 46.8H300v-28.8h145.1v28.8z"/><path fill="#F2BE96" d="M445.1 329.5H300v28.8h145.1v-28.8z"/></symbol><symbol id="icon-full-marker" viewBox="0 0 512 512"><path fill="#F8F7F7" d="M256 15C160.8 15 83.3 92.2 83.3 187.1c0 60.8 22.2 138.9 58 204C177.8 457.5 220.7 497 256 497c34.1 0 77.6-39.6 113.5-103.4 37-65.7 59.2-142.9 59.2-206.5C428.7 92.2 351.2 15 256 15zm0 248.6c-40.7 0-73.7-32.9-73.7-73.5 0-40.4 33-73.5 73.7-73.5s73.7 32.9 73.7 73.5c0 40.4-33 73.5-73.7 73.5z"/><path fill="#50406B" d="M256 116.6c-40.7 0-73.7 32.9-73.7 73.5s33 73.5 73.7 73.5 73.7-32.9 73.7-73.5-33-73.5-73.7-73.5zm0 132c-32.3 0-58.7-26.2-58.7-58.5 0-32.2 26.3-58.5 58.7-58.5 32.3 0 58.6 26.2 58.6 58.5.1 32.2-26.3 58.5-58.6 58.5z"/><path fill="#50406B" d="M256 0C152.5 0 68.3 84 68.3 187.1c0 63.1 22.9 144.1 59.7 211.1C167.8 470.5 214.3 512 256 512c21.2 0 43.7-10.8 67-32.2 20.8-19.1 41.4-46.4 59.6-78.8 38.2-67.9 61.1-147.8 61.1-213.9C443.7 84 359.5 0 256 0zm113.5 393.6C333.6 457.4 290 497 256 497c-35.5 0-78.4-39.6-114.7-105.8-35.8-65.1-58-143.3-58-204C83.3 92.2 160.8 15 256 15c95.2 0 172.7 77.2 172.7 172.1 0 63.6-22.1 140.8-59.2 206.5z"/><path fill="#F2BE96" d="M314.7 190.1c0 32.2-26.3 58.5-58.7 58.5-32.3 0-58.6-26.2-58.6-58.5 0-32.2 26.3-58.5 58.6-58.5 32.3.1 58.7 26.3 58.7 58.5z"/></symbol><symbol id="icon-full-phone" viewBox="0 0 512 512"><path fill="#F8F7F7" d="M109.7 404.5V461c0 19.8 16.2 35.8 36.2 35.8h219.9c20.1 0 36.4-16.1 36.4-35.8v-56.5H109.7zm146.2 74.1c-15 0-27.2-12.1-27.2-27s12.2-27 27.2-27 27.2 12.1 27.2 27c.2 15-12 27-27.2 27zM402.3 51.1v338.4H109.7V51.1c0-19.9 16.2-36.1 36.2-36.1h39.9v18.4c0 13.5 11.1 24.5 24.8 24.5h91c13.6 0 24.8-11 24.8-24.5V15H366c19.9 0 36.3 16.2 36.3 36.1z"/><path fill="#50406B" d="M365.8 0H145.9c-28.3 0-51.3 22.9-51.3 51.1v410.1c0 28.1 23 50.8 51.3 50.8h219.9c28.5 0 51.6-22.8 51.6-50.8V51.1c0-28.2-23.1-51.1-51.6-51.1zM200.9 15h110.2v18.4c0 5.2-4.3 9.5-9.6 9.5h-90.9c-5.2 0-9.6-4.2-9.6-9.5V15zm201.4 446c0 19.8-16.4 35.8-36.4 35.8h-220c-19.9 0-36.2-16.1-36.2-35.8v-56.5h292.5V461zm0-71.5H109.7V51.1c0-19.9 16.2-36.1 36.2-36.1h39.9v18.4c0 13.5 11.1 24.5 24.8 24.5h91c13.6 0 24.8-11 24.8-24.5V15H366c20.1 0 36.4 16.2 36.4 36.1v338.4h-.1z"/><path fill="#F2BE96" d="M311.1 15v18.4c0 5.2-4.3 9.5-9.6 9.5h-90.9c-5.2 0-9.6-4.2-9.6-9.5V15h110.1z"/><path fill="#50406B" d="M255.9 424.7c-15 0-27.2 12.1-27.2 27 0 15 12.2 27 27.2 27s27.2-12.1 27.2-27c.2-14.9-12-27-27.2-27zm0 38.9c-6.7 0-12.1-5.4-12.1-12 0-6.5 5.5-12 12.1-12s12.1 5.4 12.1 12-5.3 12-12.1 12z"/><path fill="#F2BE96" d="M268.2 451.6c0 6.7-5.5 12-12.1 12s-12.1-5.4-12.1-12c0-6.5 5.5-12 12.1-12 6.6.1 12.1 5.4 12.1 12z"/></symbol><symbol id="icon-info" viewBox="0 0 512 512"><path d="M256 512C114.6 512 0 397.4 0 256S114.6 0 256 0s256 114.6 256 256-114.6 256-256 256zm0-483.7C130.1 28.3 28.3 130.1 28.3 256c0 125.9 101.8 227.7 227.7 227.7 125.9 0 227.7-101.8 227.7-227.7 0-125.9-101.8-227.7-227.7-227.7z"/><path d="M256 403.1c-8.5 0-14.1-5.7-14.1-14.1V205.1h-22.6c-8.5 0-14.1-5.7-14.1-14.1 0-8.5 5.7-14.1 14.1-14.1H256c8.5 0 14.1 5.7 14.1 14.1v198c0 8.4-5.6 14.1-14.1 14.1zm0-239c10.9 0 19.8-8.9 19.8-19.8s-8.9-19.8-19.8-19.8-19.8 8.9-19.8 19.8 8.9 19.8 19.8 19.8z"/><path d="M292.8 403.1h-72.1c-8.5 0-14.1-5.7-14.1-14.1 0-8.5 5.7-14.1 14.1-14.1h72.1c8.5 0 14.1 5.7 14.1 14.1 0 8.4-7.1 14.1-14.1 14.1z"/></symbol><symbol id="icon-logo" viewBox="0 0 512 512"><defs><path id="a" d="M0 61h512v390.1H0z"/></defs><clipPath id="b"><use xlink:href="#a" overflow="visible"/></clipPath><g clip-path="url(#b)"><path d="M335.4 275 512 120.4l-118.1-13.3L335.4 275zm-165.7-39.3-60.6 136.1 27.4 77.5 91.1-79.7-57.9-133.9z"/><path d="m13.4 99.3 6.5 19.4 56.9 161.7 92.3-181.2L265.5 284l63.7-184.4L0 62.7l13.1 36.6h.3z"/></g></symbol><symbol id="icon-marker-map" viewBox="0 0 512 512"><path fill="#50406B" d="M256 14.1c-95.6 0-173.4 77.5-173.4 172.8 0 61 22.3 139.4 58.2 204.8C177.4 458.4 220.5 498 255.9 498c34.2 0 77.9-39.8 113.9-103.8 37.1-66 59.4-143.5 59.4-207.3.2-95.3-77.6-172.8-173.2-172.8zm0 249.5c-40.9 0-74-33-74-73.8 0-40.6 33.1-73.8 74-73.8s74 33 74 73.8c0 40.6-33.1 73.8-74 73.8z"/><path fill="#50406B" d="M256 512c-41.3 0-87.8-41.4-127.5-113.6-37-67.3-60-148.3-60-211.6C68.6 83.8 152.6 0 256 0s187.4 83.8 187.4 186.8c0 66-22.9 146.1-61.2 214.2-39.1 69.5-86.3 111-126.2 111zm0-483.9c-87.9 0-159.3 71.2-159.3 158.7 0 58.8 21.6 134.7 56.5 198 33.6 61.1 73 99 102.8 99 13.1 0 29.7-8.6 46.8-24.2 18.9-17.3 37.9-42.3 54.9-72.4 36.1-64.1 57.6-139 57.6-200.4 0-87.5-71.4-158.7-159.3-158.7zm0 249.6c-48.5 0-88-39.4-88-87.8s39.5-87.8 88-87.8 88 39.4 88 87.8-39.5 87.8-88 87.8zm0-147.6c-33 0-59.9 26.8-59.9 59.7 0 32.9 26.9 59.7 59.9 59.7s59.9-26.8 59.9-59.7c0-32.9-26.9-59.7-59.9-59.7z"/><path fill="#F2BE96" d="M314.7 190.1c0 32.2-26.3 58.5-58.7 58.5-32.3 0-58.6-26.2-58.6-58.5 0-32.2 26.3-58.5 58.6-58.5 32.2.1 58.7 26.3 58.7 58.5z"/></symbol><symbol id="icon-marker" viewBox="0 0 512 512"><path d="M256 512c-82.6 0-187.2-197.7-187.2-318.9C68.8 86.6 152.8 0 256 0c105 0 187.2 84.8 187.2 193.1C443.2 314.3 338.7 512 256 512zm0-483.9c-87.7 0-159.1 74-159.1 165C96.9 313 199.8 483.9 256 483.9s159.1-171 159.1-290.8c.1-92.5-69.8-165-159.1-165zm0 283.5c-65.7 0-117.1-52.1-117.1-118.5 0-65.3 52.5-118.5 117.1-118.5 63.4 0 115.1 53.2 115.1 118.5S319.5 311.6 256 311.6zm0-208.9c-49.9 0-89 39.7-89 90.4 0 51.5 38.3 90.4 89 90.4 48 0 87-40.6 87-90.4s-39-90.4-87-90.4z"/></symbol><symbol id="icon-percent" viewBox="0 0 512 512"><defs><path id="a" d="M0 11.6h512v488.7H0z"/></defs><clipPath id="b"><use xlink:href="#a" overflow="visible"/></clipPath><g clip-path="url(#b)"><path d="M105.9 254.7C47.9 254.7 0 206.1 0 147.3 0 88.4 47.9 39.8 105.9 39.8s105.9 48.6 105.9 107.5c.1 58.8-46.6 107.4-105.9 107.4zm0-189.3c-44.1 0-80.7 35.8-80.7 81.9 0 46.1 36.6 81.9 80.7 81.9s80.7-37.1 80.7-81.9c0-44.8-35.3-81.9-80.7-81.9zm300.2 408.1c-58 0-105.9-48.6-105.9-107.5s47.9-107.5 105.9-107.5S512 307.2 512 366s-47.9 107.5-105.9 107.5zm0-190.6c-44.1 0-80.7 37.1-80.7 81.9s36.6 81.9 80.7 81.9 80.7-37.1 80.7-81.9-36.6-81.9-80.7-81.9zM99.6 500.4c-2.5 0-5-1.3-7.6-2.6-6.3-3.8-7.6-11.5-3.8-17.9L399.8 16.8c3.8-5.1 11.4-6.4 17.7-2.6 6.3 3.8 7.6 11.5 3.8 17.9L111 495.2c-2.5 3.9-7.6 5.2-11.4 5.2z"/></g></symbol><symbol id="icon-phone" viewBox="0 0 512 512"><path d="M359.6 512H152.3c-30.6 0-55.5-25.4-55.5-56.7V56.7c.1-31.3 25-56.7 55.5-56.7h207.2C390.1 0 415 25.4 415 56.7v398.7c.1 31.2-24.8 56.6-55.4 56.6zM152.3 28.1c-15.1 0-27.4 12.8-27.4 28.6v398.7c0 15.8 12.3 28.6 27.4 28.6h207.2c15.1 0 27.4-12.8 27.4-28.6V56.7c0-15.8-12.3-28.6-27.4-28.6H152.3z"/><path d="M299.5 70.7h-84.9c-16 0-30.6-14.8-30.6-31.1V0h146.2v39.6c-.1 17.5-13.6 31.1-30.7 31.1zM212 28.1v11.6c.1.9 1.8 2.8 2.8 3h84.7c2.5 0 2.5-2.7 2.5-3V28.1h-90zM258 480c-18 0-32.7-14.9-32.7-33.2 0-18.3 14.7-33.2 32.7-33.2s32.7 14.9 32.7 33.2c0 18.3-14.6 33.2-32.7 33.2zm0-38.3c-2.5 0-4.6 2.3-4.6 5.1 0 5.7 9.2 5.7 9.2 0 .1-2.8-2-5.1-4.6-5.1z"/><path d="M113 393.5h288m-288-14h288v28.1H113z"/></symbol><symbol id="icon-report" viewBox="0 0 512 512"><path d="M458.9 512H53.1c-16.4 0-28.7-12-28.7-28V28c0-16 12.3-28 28.7-28h405.8c16.4 0 28.7 12 28.7 28v456c0 16-12.3 28-28.7 28zM53.1 26.7c-1.4 0-1.4 0 0 0L51.7 484c0 1.3 0 1.3 1.4 1.3h405.8c1.4 0 1.4 0 1.4-1.3V28c0-1.3 0-1.3-1.4-1.3H53.1z"/><path d="M368.7 114.7H102.3c-8.2 0-13.7-5.3-13.7-13.3s5.5-13.3 13.7-13.3h266.5c8.2 0 13.7 5.3 13.7 13.3-.1 7.9-5.6 13.3-13.8 13.3zM207.5 212H102.3c-8.2 0-13.7-5.3-13.7-13.3s5.5-13.3 13.7-13.3h105.2c8.2 0 13.7 5.3 13.7 13.3s-5.5 13.3-13.7 13.3zm127.1 96H102.3c-8.2 0-13.7-5.3-13.7-13.3s5.5-13.3 13.7-13.3h230.9c8.2 0 13.7 5.3 13.7 13.3s-5.5 13.3-12.3 13.3zM325 438.7c-4.1 0-6.8-1.3-9.6-4l-54.7-53.3c-5.5-5.3-5.5-13.3 0-18.7 5.5-5.3 13.7-5.3 19.1 0l45.1 44 75.2-73.3c5.5-5.3 13.7-5.3 19.1 0 5.5 5.3 5.5 13.3 0 18.7l-86.1 84c-1.3 1.2-4 2.6-8.1 2.6z"/></symbol></svg>