<svg xmlns="http://www.w3.org/2000/svg"><symbol id="icon-arrow" viewBox="0 0 512 512"><path fill="#36312D" d="M231.4 391.3c13.6 13.6 35.6 13.6 49.2 0l221.2-221.2c13.6-13.6 13.6-35.6 0-49.2-13.6-13.6-35.6-13.6-49.2 0L256 317.6 59.3 120.9c-13.6-13.6-35.6-13.6-49.2 0-13.6 13.6-13.6 35.6 0 49.2l221.3 221.2zm-10.2-47.7v23.2h69.5v-23.2h-69.5z"/></symbol><symbol id="icon-bath" viewBox="0 0 512 512"><path d="M60.5 165c-10.7 15.3-21.8 30.4-32.1 45.9C18.1 226.3 4.6 244 .8 262.4c-3.9 18.4 7.5 31.8 24.6 36.8 20 5.8 42.4 7 63.1 8 46.6 2.2 93.4-1.9 139.9-5 46.5-3 93-6.1 139.5-9.1 23.9-1.6 47.7-3.1 71.6-4.7 11.6-.8 23.3-1.5 34.9-2.3 8.9-.6 18.2-.9 25.7-6.1 14.3-9.8 12.8-28.9 10.2-43.8-3.5-20.4-10.9-39.8-19.2-58.6-7.1-16.3-13.8-38.1-29.3-48.5-16.8-11.3-42.7-10.8-62.2-11.8-45.2-2.3-90.3-1.2-135.5-.6-25.9.4-51.8 0-77.7-.3-18.4-.2-37 .4-55.2 3.6-30 5.2-54.6 20.1-71.5 45.6-6.6 10 9.5 19.2 16 9.3 32.7-49.1 98.1-39.6 149.3-39.4 39.6.1 79.1-1.4 118.6-1.2 20.4.1 40.9.5 61.4 1.8 17 1 43-.4 53.3 15.7 9.6 15 16.5 33.2 22.8 49.8 6.1 15.8 12.5 33.9 12.4 51.1-.1 8.5-2.8 13.3-11.5 14.5-9.8 1.3-19.9 1.4-29.7 2-20.8 1.4-41.6 2.7-62.4 4.1-82.6 5.4-165.3 12.7-248 15.6-22.5.8-45.1.8-67.7-1-11-.9-22-2.1-32.8-4-7.5-1.3-20-2.4-22.5-11.1-2.7-9.4 6.4-21.3 10.9-29 4.6-7.9 9.5-15.6 14.5-23.2 10.4-15.5 21.5-30.6 32.1-45.9 7-10.1-9.1-19.4-15.9-9.7z"/><path d="M47 304.7c4.6 28.1 11.5 59.9 35.7 78.1 14 10.6 31.3 13.6 48.5 13.5 19.9-.1 39.9-2.5 59.6-4 42.4-3.2 84.7-6.3 127.1-9.5 21.5-1.6 43-3.2 64.4-4.8 17.5-1.3 36.3-1.3 53.2-6.9 36.9-12.4 43.3-49.6 44.8-83.7.5-11.9-18.1-11.9-18.6 0-1.1 26.4-4.1 58.1-33.9 66.7-16.3 4.7-34.2 4.5-51 5.8-18.4 1.4-36.8 2.8-55.2 4.1-36.8 2.8-73.7 5.5-110.5 8.3-18.4 1.4-36.8 2.8-55.2 4.1-16.5 1.2-34.1 3.4-50.1-2-30-10.2-36.3-47.7-40.8-74.7-2-11.7-19.9-6.7-18 5z"/></symbol><symbol id="icon-btn-small" viewBox="0 0 512 512"><path d="M499.2 229.4c-46 140.1-372.7 225.8-426.8 209.4-200.9-38.9 61.9-320.2 237.9-357.9C407.9 60 556.7 54.3 499.2 229.4z"/></symbol><symbol id="icon-btn" viewBox="0 0 512 512"><path d="M11.5 204.3c17.1-25.6 50-32 64.2-32C156 163.6 430 162 494.2 199.2c36.1 20.9 8.9 57.1-8 73.6-37.5 36.4-83 65.7-193.6 70.9-110.6 5.2-202.5-6.9-248.9-26.8-46.4-20-53.6-80.6-32.2-112.6z"/></symbol><symbol id="icon-butter" viewBox="0 0 512 512"><path d="M64.2 203.9c.2 15.4.3 30.9.5 46.3.1 12.4 1.4 24.1 12.6 29 11.3 4.9 24.3 6.6 36 9.7 13.2 3.5 26.4 6.9 39.6 10.3 26 6.8 52 13.6 78.1 20.4 13.2 3.5 26.4 6.9 39.6 10.3 6.4 1.7 12.8 3.4 19.2 5 5.4 1.4 11.1 3.3 16.4.3 10.5-5.8 10.2-23.2 10.9-34.5 1.1-17.8.9-35.8-.6-53.6-.9-11-15.9-11.1-14.9 0 1.1 13.1 1.5 26.3 1.2 39.5-.1 6.6-.5 13.2-1 19.8-.2 2.3 0 12.2-2.2 13.6-.6.3-4.8-1.4-5.8-1.7-2.8-.8-5.6-1.4-8.4-2.2-5.6-1.4-11.2-2.9-16.8-4.4-11.2-2.9-22.4-5.8-33.6-8.8-44.8-11.7-89.7-23.4-134.5-35.1-5.7-1.5-12.1-2.4-17.7-4.7-4.5-1.9-3.2-9.6-3.3-14.3-.2-15-.3-30-.5-44.9.1-11.2-14.9-11.2-14.8 0z"/><path d="M76.8 208.4c76.2-1 146.9 40.5 222.8 44 9.6.5 9.6-16.9 0-17.3-75.8-3.5-146.4-45.1-222.8-44-9.6.1-9.7 17.4 0 17.3z"/><path d="M309.1 252.7c42.5-16.3 83.9-36.3 123.9-59.6-3.7-2.5-7.5-5-11.2-7.5 1.2 18.9 2.4 38.7 1 57.6-.6 8.4-9 12.2-14.7 15.9-7.2 4.6-14.6 8.7-22 12.8-14.7 8.2-29.5 16.2-44.3 23.9-14.3 7.4-28.9 13.7-41.2 25.2-7.5 7 3.1 19.2 10.5 12.2 12.8-12 30-18.2 44.8-26 16.3-8.5 32.5-17.3 48.5-26.5 12.5-7.2 31-15.5 33-33.8 2.1-19.9.5-41.4-.7-61.3-.4-6.8-6-10.5-11.2-7.5-38.9 22.5-79.1 41.9-120.4 57.8-9.1 3.5-5.2 20.3 4 16.8zM75 206.7c20.2-11.5 39.7-24.5 60.4-34.8 24.4-12.1 50.4-19 76.4-24.3 9.5-1.9 5.4-18.6-4-16.7-27 5.5-53.4 12.9-78.7 25.4C108 166.8 88 180 67.4 191.7c-8.6 5-1 20 7.6 15z"/><path d="M432.2 180.2c-34.8-14.2-71.9-19.6-108.2-26.9-37.4-7.5-74.8-15-112.3-22.4-9.4-1.8-13.4 14.8-4 16.7 37.4 7.5 74.8 15 112.3 22.4 36.3 7.3 73.4 12.7 108.2 26.9 9.2 3.7 13.1-13 4-16.7zm2.8 58.1c11.6-.1 23.2 1.1 34.6 4.3 8.6 2.4 18.3 6 23.8 14.6 13.8 21.5-8.5 44.9-22.7 55.3-37.6 27.5-83.3 35.4-126.6 42-92.2 14.2-187.9 15.1-277.8-15.7-18.7-6.4-49.3-15-50.7-43-.7-13.7 9.6-20.4 18.8-26.1 11.5-7 23.7-11.9 36.4-15 9.4-2.3 5.4-19.1-4-16.7-12.5 3.1-24.6 8-36 14.5-9.9 5.6-21 12.5-26.4 24.2-11.2 24.3 3.7 51.1 22 63.1 10.2 6.7 21.5 10.7 32.6 14.6 12.9 4.5 25.9 8.4 39.1 11.7 26.2 6.6 52.8 10.8 79.5 13.1 53.6 4.6 107.6 1.3 160.8-6.5 49.2-7.2 102.2-15.3 144.1-48.5 19.9-15.7 39.6-45.7 24.8-74.2-13.7-26-48.8-29.2-72.3-29-9.6.1-9.6 17.4 0 17.3z"/></symbol><symbol id="icon-cake" viewBox="0 0 512 512"><path d="M.5 143.8c-1.4 47.6.4 95.3 4.1 142.7 1.9 23.7 4 47.5 7.1 71 2.6 19.8 12.1 33.1 32.6 36.6 24.3 4.1 49.6 3.1 74.1 2.8 26-.4 51.9-.7 77.9-1.1 51.9-.7 103.8-1.5 155.7-2.2 25.4-.4 50.7-.7 76.1-1.1 13.3-.2 26.6-.3 39.8-.6 10.3-.2 20.5-1.2 28.8-7.8 13.1-10.4 15.6-28.5 15.3-44.2-.4-24.9-3.4-50.1-5.4-74.9-2.1-25-4.3-49.9-6.7-74.9-1.2-11.9-2.3-23.8-3.6-35.6-1.1-9.8-2.9-18.8-11-25.3-6.9-5.5-15.9-6.9-24.5-7.7-12.6-1.1-25.3-1.6-37.9-2.3-25.4-1.4-50.8-2.6-76.2-3.4-113.5-3.7-227.4-.1-339.4 19.1-11.5 2-6.6 19.4 4.8 17.4 92.3-15.9 186.1-20.7 279.6-19.7 46.1.5 92.2 2.4 138.2 5 10.3.6 20.6.9 30.8 1.9 3.9.4 9.1.8 12.4 3.1 4.4 3.1 4.5 8.5 5.1 13.5 2.5 23.1 4.7 46.3 6.8 69.5 2.1 23.2 4 46.4 5.8 69.6 1.5 19 5.5 40.1 2.2 59-1.2 6.9-3.7 14.1-10.5 17.4-10 4.7-25.5 2.2-36.3 2.4-22.9.3-45.9.7-68.8 1-95.2 1.3-190.7 4.6-285.9 3.8-13.1-.1-26.4-.3-39.5-2-11.5-1.5-19.1-4.5-21.6-16.6-4.8-22.9-5.5-47.3-7.4-70.6-3.9-48.6-5.8-97.3-4.3-146 .3-11.4-17.9-11.4-18.2.2z"/><path d="M55 134.8c.6 83 4.8 166.3 13 248.9 1.1 11.5 19.3 11.6 18.2 0-8.2-82.6-12.4-165.9-13-248.9-.1-11.6-18.3-11.7-18.2 0zm367.7 3c2.6 77.9 7.5 155.8 14.6 233.4 1.1 11.5 19.2 11.6 18.2 0-7.1-77.7-12-155.5-14.6-233.4-.4-11.6-18.6-11.7-18.2 0z"/></symbol><symbol id="icon-cheese" viewBox="0 0 512 512"><path d="M45.5 190.3c1.8 39.8 3.7 79.8 5.5 119.5.8 18.8.2 38.4 3.1 57 2.6 16.4 14.3 26.1 30.2 29.5 17.3 3.7 35.6 4.3 53.1 6.2 20.3 2.2 40.5 4.4 60.8 6.6 39.7 4.3 79.4 8.5 119 12.8 45 4.8 90 9.6 134.9 14.4 4.6.5 7.6-4.2 7.9-8.1 6.7-78.1 9.5-156.6 8.1-235-.2-10.3-16.2-10.1-16 .2 1.4 78.4-1.2 156.9-8.1 235 2.7-2.7 5.3-5.4 7.9-8.1-75.9-8.1-151.7-16.3-227.5-24.4-37.9-4.1-75.9-8.1-113.7-12.2-11.6-1.2-32.7-.3-39-12.7-3.6-7-2.7-16.9-3-24.5-.4-9.6-.8-19.3-1.3-28.9-1.9-42.5-3.9-85-5.8-127.4-.5-10.4-16.6-10.2-16.1.1z"/><path d="M56.7 193.9c101.5 2.2 203 4.6 304.6 6.8 28.8.6 57.6 1.3 86.5 1.9 10.3.2 10.1-15.8-.2-16-101.5-2.2-203-4.6-304.6-6.8-28.8-.6-57.6-1.3-86.5-1.9-10.3-.3-10.1 15.7.2 16z"/><path d="M55.7 187.7c88.8-44 183.4-76 280.5-95.5 10-2.1 5.6-17.4-4.5-15.4-98.4 19.7-194.1 52.5-284.2 97.1-9.2 4.6-.9 18.3 8.2 13.8z"/><path d="M332.6 90.8c44.7 28.1 85.1 62.3 120.4 101.4 6.9 7.6 18-3.8 11.2-11.5-36.2-40.2-77.9-75.2-123.7-103.9-8.8-5.4-16.6 8.6-7.9 14zm50.7 158.9c-4.7-4-10.5-6-16.8-5.2-6.1.7-11.6 3.3-15.8 7.8-8.1 8.6-10.7 22.3-8.1 33.6 2.9 12.3 15.5 19.2 27.6 17.8 11.6-1.2 21.6-8.2 25.9-19.2 4.5-11.3 1.2-25.2-7.6-33.4-3.1-2.8-8.4-3.2-11.3.2-2.8 3.2-3.2 8.3.2 11.3.5.5 1.2 1.7 1.9 2-1-.5-.7-.9-.1-.1.2.3.5.7.7 1.1.4.7.7 1.4 1.2 2.2.6 1.1-.7-1.8-.1-.2.2.5.4 1 .5 1.6.1.2.7 2.6.6 2.7-.1 0-.2-2.1-.1-.5.1.5.1.9.1 1.4.1.8 0 1.7 0 2.5 0 .2-.1.4-.1.5-.1.9-.1.7.1-.5.1.1-.3 1.5-.3 1.6-.2.8-.4 1.6-.7 2.3-.3 1.1-.7.6.1-.2-.2.2-.3.7-.5 1-.3.7-1.2 1.6-1.4 2.3.2-1 .8-1 .2-.4-.4.5-.8.9-1.2 1.4-.4.4-1.2 1.5-1.8 1.7.2-.2.5-.4.7-.6-.2.2-.6.4-.9.6l-.9.6c-.4.2-2 1.4-2.4 1.2 0 0 1.9-.7.4-.2-.5.2-1 .4-1.6.5-.8.2-1.7.4-2.6.6-1.6.3.5-.1.5-.1s-1.5.2-1.6.2c-.8.1-1.6 0-2.4 0-.8-.1-1.4-.5.2.1-.5-.2-1.1-.2-1.6-.3-.7-.2-2-.3-2.7-.7.2.1 1.6.7.2.1-.4-.2-.9-.5-1.3-.7-.1-.1-.2-.1-.2-.2-.7-.5-.7-.5.1.2-.2 0-.7-.7-.9-.8-.2-.2-.2-.3-.4-.4-.6-.7-.6-.7.1.2-.4-.2-.7-1.2-.9-1.6-.4-.7-.7-.5.1.2-.2-.2-.4-1.1-.5-1.4-.2-.5-.2-1-.4-1.5-.4-1.5-.1.1 0 .3-.6-1.8-.2-4.6-.2-6.5.2-1.7 0 0-.1 0 0 0 .2-1.1.2-1.2.2-1 .4-2.1.7-3 .2-.8.4-2.2.9-2.9-.1.2-.7 1.6-.1.2.2-.5.5-1.1.8-1.6.3-.5.7-1 .9-1.6.7-1.4-1 1 .2-.3.7-.7 1.4-1.5 2.1-2.2 1.2-1.3-1.4.8.1-.1.5-.2.9-.6 1.4-.8.2-.1.7-.5 1-.5-1.1.4-1.2.6-.3.2.2-.1.3-.1.5-.2.5-.2 1.1-.2 1.6-.4 1.6-.4-1.7.1.1 0 .3 0 .7-.1 1.1-.1h1.1c.7.1.7.1 0 0-.2 0-.4-.1-.5-.1.4.1.7.2 1.1.2.2.1 1.4.2 1.5.5.1.2-1.6-.8-.5-.1.3.2.7.3.9.5-.9-.7-1-.8-.3-.2 3.2 2.7 8.2 3.2 11.3-.2 3.1-2.9 3.7-8.4.3-11.2zm-143.7 9.6c-12.4 5.6-20.3 18.3-21.6 31.5-1.3 14.8 8.1 27.5 21.7 32.4 13.2 4.7 28-.3 37.7-9.9 9-9 14.2-23.7 9.2-36.1-3.4-8.4-10.5-13.4-18.7-16.5-8.2-3.2-16.9-3.2-24.9.4-3.8 1.7-4.9 7.6-2.7 11 2.6 4 6.9 4.6 11 2.7-1.1.5.5-.1.8-.2.7-.2 1.3-.4 2-.4-1.3.2 1.7 0 2 0 .5 0 1.1 0 1.7.1-1.2-.2.5.2.8.2 1.4.3 2.7.7 4.2 1.2s-1.6-.7.8.3c.5.2 1 .5 1.5.7 1.2.6 2.2 1.2 3.2 1.9 1.2.7-1.1-1.2.7.6.4.3.8.8 1.2 1.2.2.2.8 1.2.1.1.4.6.7 1.2 1.1 1.8.7 1.2.2.3.1 0 .2.5.4 1.1.6 1.7.1.4.2.9.3 1.4.4 1.2 0-1.8.1.3 0 1 .1 1.9 0 2.9 0-.1-.2 2.3 0 1.2.2-1-.2 1.2-.3 1.4-.2 1.1-.6 2.2-.9 3.2-.1.2-.6 1.4-.1.2-.2.4-.4.9-.7 1.3-.5 1-1.1 1.9-1.7 2.8-.2.2-1.1 1.6-.3.5-.5.7-1 1.2-1.6 1.8-1.6 1.7-3.1 3-4.2 3.7-1 .7-2 1.3-3.1 1.8-.5.2-1 .5-1.4.7 1.2-.6-.8.2-1 .4-1.1.4-2.3.7-3.4 1-.3.1-2 .3-.6.2-.5.1-1.1.1-1.6.2-1.2.1-2.3 0-3.5 0-1.2 0 1.2.3 0 0-.7-.2-1.4-.2-2.2-.4-.5-.1-3.2-1.1-1.8-.5-1-.4-2-.9-2.9-1.5-.4-.2-2.7-1.9-1.6-1-.9-.8-1.7-1.6-2.6-2.4-1-1.1-.3-.3-.1-.1-.2-.3-.6-.7-.8-1.2-.3-.5-.7-1-.9-1.6-.2-.3-.8-1.7-.2-.3-1.1-2.7-1.2-3.7-1.3-6.3v-2.2c0-.4.1-.8.1-1.2-.1.7-.1.8 0 .2.3-1.2.5-2.4.8-3.7.2-.6.3-1.2.6-1.7-.5 1.3.2-.5.4-.8.6-1.2 1.2-2.2 1.9-3.2.2-.4.6-.8.8-1.2-.9 1.2.6-.7.7-.7.8-.9 1.7-1.7 2.7-2.7 1.7-1.7-.7.4.4-.4.5-.4 1-.7 1.5-1.1 1.2-.8 2.6-1.5 3.9-2.2 3.8-1.7 4.9-7.7 2.7-11-2.3-3.7-6.5-4.3-10.6-2.5zm40.3 140.6c-.5-6.6 7.8-12.3 12.9-15.4 6.7-4.2 14.4-6.6 22.2-6.1 13.5 1 26.5 12.6 23.2 27-2.2 10 13.2 14.2 15.4 4.1 2.7-11.5-.5-23.2-8-32.4-7.3-9-18.4-13.6-29.7-14.6-11.4-1-23 2.7-32.5 8.9S263 387.6 263.8 400c.3 4.3 3.6 8 8.1 7.9 4.1 0 8.2-3.7 8-8zM65.2 258.4c.8-.6 1.6-1.1 2.5-1.5-1.6.7.8-.1 1.2-.2.6-.1.5-.1-.3 0 .5-.1 1-.1 1.4-.1.3 0 3.3.2 1.5-.1.7.1 1.4.2 2.2.4.3.1 3 1.2 1.7.5 1.6.7 3.2 1.7 4.6 2.7-1.2-.8.8.7 1 .9.7.6 1.3 1.2 1.9 1.8.7.7 1.3 1.4 1.9 2.1-.8-1.1.2.3.4.7.9 1.4 1.8 2.8 2.5 4.3-.7-1.6.3 1.1.4 1.4.2.8.4 1.6.6 2.3.1.6.1.4-.1-.4.1.4.1.9.1 1.4 0 .4-.2 3.2.1 1.2-.1.7-.2 1.3-.4 2-.1.4-.2.8-.4 1.3.3-.8.3-.8-.1 0-1.2 1.9-3.5 4.2-5.6 5.5-.7.4-1.5.9-2.2 1.2-.3.2-.7.3-1 .5.8-.3.7-.3-.1.1-1.7.6-3.2 1.1-5 1.4-.5.1-1 .2-1.4.2.9-.1.9-.2-.1-.1-.7 0-1.5.2-2.2.2-1 0-2 0-2.9-.1-1-.1-1-.1-.1 0-.5-.1-1-.2-1.4-.2-4.2-.8-8.9 1.2-9.8 5.7-.8 4 1.3 9 5.7 9.8 16 3.2 35.4-3.8 41.6-19.8 5.8-15.1-5.8-32.5-18.8-39.5-8.5-4.6-19.4-5.3-27.6.4-3.4 2.4-5.2 7.1-2.7 11 2.2 3.5 7.3 5.4 10.9 3zm271.5-142.7c-9.5-2.2-19.5 1.7-24.7 10.2-4.9 8.1-4.2 20.2 3.1 26.6 7.8 7 18.5 5.9 27.3 1.4 7.9-4.1 16.4-10.5 17.3-20 .4-5.1-2.3-10.5-6.4-13.6-5.1-4-10.8-4.8-17-5.6-1.9-.2-4.4 1.1-5.6 2.4-1.4 1.4-2.4 3.7-2.2 5.7.2 2.1.8 4.2 2.4 5.6 1.7 1.5 3.4 2.1 5.6 2.2 1.5.2-.1-.1-.2-.1.4 0 .8.1 1.2.2.7.1 1.4.2 2.2.4.7.2 1.4.3 2.1.6 1.2.3-.2 0-.2-.1.1-.1.9.4 1 .5-.1-.1.8.5.8.5-.1.1-1.5-1.3-.4-.3.2.2 1.5 1.7.7.7-.9-1.2.4.8.4.8s-.9-1.8-.3-.5c.4 1.1-.2-.3-.1-.7.1-.1-.1 1 0 1-.1-.1.4-2.1.1-.7-.3 1.2.9-1.6-.1.1-.2.2-.3.5-.5.8-.3.7.4-.6.5-.7-.5.3-1.2 1.2-1.6 1.7-.3.3-.9 1.2-1.4 1.2.1 0 1.5-1.2.3-.3-.2.2-.4.3-.7.4-1.2.8-2.6 1.7-3.9 2.6-.6.4-1.2.7-1.8 1-.3.2-.7.4-1.1.6-.2.1-1.1.4-.1.1 1.1-.4-.2.1-.4.2s-.6.2-.8.2c-.8.2-1.7.4-2.6.7-1.1.2 1.7-.2.7-.1-.2 0-.5.1-.7.1-.7 0-1.4-.2-2-.1.1 0 1.7.3.8.1-.3-.1-.7-.2-1-.2-.2-.1-.5-.2-.7-.2-1.6-.4 1 .7.3.1-.2-.2-.6-.3-.8-.5-.7-.3.5.4.6.5-.2-.2-.6-.5-.7-.7-.7-.5.1-.6.2.3-.1-.3-.8-1.3-1-1.7-.4-.7.3.6.2.7.1-.1-.3-1.1-.4-1.3-.1-.3-.2-1.4-.1-.2s.1.2 0 .1c-.1-.7 0-1.4 0-2.1 0-.2.1-1.2 0 .1-.2 1.2 0 .1.1-.2.2-.7.5-1.5.7-2.2 0 .1-.7 1.4-.2.7.2-.4.4-.7.7-1.2.2-.2.5-.6.6-.8-.2.4-1 1.2-.2.4l.7-.7c.9-1.1-1 .6-.2.1.6-.4 1.1-.7 1.7-1.1.2-.2 1.3-.7.2-.1-1.2.6.3-.1.5-.1.2-.1.5-.2.7-.2 1.6-.4 0 .2-.4-.1.2.2 1.7-.2 2.1-.2-.1 0 1 .1 1 0-.2.2-2-.3-.1.1 4.1.9 8.8-1.4 9.8-5.7.6-3.7-1.7-8.4-6-9.4zm-121.2-7c-9.5 6.2-16 16.7-16.4 28.1-.4 12.9 11.5 20.2 23.2 19.8 10.7-.2 21.2-5.1 28.9-12.5 7.9-7.6 14.4-21.3 7-31.5-4.2-5.6-10.6-8.2-17.5-8.6-3.2-.2-6.5.4-9.6.9-1.7.2-3.2.6-4.9.9-1.7.2-.7.1-.3.1-1.1.2-2.2.2-3.3.3-4.2.2-8.1 3.7-7.9 8.1.2 4.2 3.7 8.1 8.1 7.9 2.7-.2 5.3-.6 7.9-1 1.1-.2 2.2-.4 3.2-.7.5-.1 1.1-.2 1.7-.2.4-.1 1.2-.2.3-.1 1.9-.2 3.7-.2 5.6-.2-1.9 0 .5.2 1 .2l1.2.3c-1-.2-.7-.3.1.1.4.2.7.4 1.1.7.7.4-.4-.2-.4-.3.2.2.6.7.8.8-1.1-1-.4-.6-.2-.1.7 1.4.1.2 0-.1l.3 1.2c-.4-1.5-.1-.7-.1-.2 0 .2-.2 2.1 0 1s-.1.4-.2.7c-.1.4-.3.9-.4 1.3-.2 1.2.5-1 0 .1-.2.4-.4.8-.7 1.3-.3.7-.8 1.4-1.2 2.1-.7 1.2-.2.3 0 .1-.4.5-.8 1.1-1.3 1.6-1.2 1.3-2.4 2.4-3.7 3.7-.8.8.9-.7 0 0-.3.2-.7.6-1.1.8-.8.6-1.7 1.2-2.6 1.7-.8.4-1.6.9-2.4 1.3-.3.2-1.4.6 0 0-.3.1-.7.2-1 .4-1.8.7-3.7 1.2-5.6 1.6-1.5.3-.2.1.1.1-.5.1-.9.1-1.4.2-.8.1-1.7.2-2.5.2-.4 0-2.5-.1-1.4 0 1.1 0-.2-.1-.4-.1l-1.5-.3c-.4-.1-.7-.2-1.2-.3-1.4-.4.1 0 .2.1-.5-.3-1.6-.6-2-1.2.2.2 1 1.2.3.2-.4-.7-.8-.1.2.3-.1-.1-.6-1-.6-.9.1.2.2.6.3.8-.2-.3-.2-.7-.3-1.1-.3-.7-.1-.1 0 .2-.1-.8 0-1.6 0-2.4 0 .3-.2 1.2.1-.2.1-.5.2-1.2.3-1.7.2-1 .6-1.9.9-2.9-.1.3-.7 1.4 0 .1.2-.5.5-1 .7-1.5.5-.9 1.1-1.7 1.6-2.6.2-.3.9-1.1 0 0 .3-.4.7-.8 1.1-1.3.7-.7 1.4-1.5 2.2-2.2.2-.2 1.2-.8 0 0 .6-.4 1.1-.7 1.7-1.2 3.5-2.3 5.2-7.3 2.7-11-2.1-3.7-7-5.4-10.7-2.9zm-72.3 100.6c-10.6-2.8-20.8 6.3-22.2 16.5-1.2 8.9 1.8 17.9 9.1 23.4s17.3 5.6 25.1.9c3.6-2.2 6.9-5.3 8.7-9 2.3-4.6 2.9-9.5 1.8-14.4-2.1-10.1-12.5-18.7-23-17.7-2.2.2-4.1.8-5.6 2.4-1.4 1.4-2.4 3.7-2.2 5.7.2 4.1 3.7 8.3 8.1 7.9.9-.1 1.7-.1 2.7 0-.7-.1-1.4-.2-2.2-.2.7.1 1.4.2 2.2.4.7.2 1.4.7-.5-.2.3.2.7.3 1 .5.6.3 1.2.7 1.7 1.1.7.5-1.7-1.3-.4-.3.2.2.6.5.8.8.2.2.4.5.7.7 1 1-1.1-1.6-.3-.4.4.7.8 1.2 1.2 1.9.4.7.4 1.6-.2-.5.1.3.2.7.4 1.1.2.7.4 1.4.5 2.2-.1-.7-.2-1.4-.3-2.2.2 1.1.2 2.2 0 3.4.1-.7.2-1.4.2-2.2-.1.8-.3 1.6-.6 2.4-.3 1.2.9-1.9.2-.7-.2.3-.3.6-.5.9-.2.3-.3.6-.5.8-1 1.5.7-.8.3-.4-.5.6-1 1.2-1.5 1.7s-1.4.8.5-.4c-.3.2-.6.4-.8.6-.2.1-2.1 1.3-2.2 1.2 0 0 2.2-.9.7-.2-.3.1-.7.2-1 .3-.8.2-1.6.4-2.4.5.7-.1 1.4-.2 2.2-.3-1.2.2-2.5.2-3.8.1.7.1 1.4.2 2.2.2-.8-.1-1.6-.2-2.3-.5-.7-.2-1.4-.9.6.3-.3-.2-.7-.3-.9-.5-.3-.2-.6-.3-.9-.5-1.5-.9.8.7.4.3-.6-.5-1.2-1-1.7-1.5s-.8-1.4.4.5c-.2-.2-.4-.6-.6-.8-.1-.2-1.3-2.1-1.2-2.2 0 0 .9 2.2.2.7-.1-.3-.2-.7-.3-1l-.6-2.4c.1.7.2 1.4.3 2.2-.2-1.5-.2-3-.1-4.5-.1.7-.2 1.4-.2 2.2.2-1.1.4-2.1.7-3.1.3-1.1-.3 1-.4 1 0 0 .3-.7.3-.8.1-.2.8-1.6.9-1.5.1.1-1.2 1.5-.5.7.2-.2.3-.4.6-.6l.7-.7c.7-.7-1.4.9-.7.5.2-.2.6-.3.8-.6.9-.7-.7.2-.8.2.4-.3 1.4-.4 1.9-.6-.7.1-1.4.2-2.2.3.7-.1 1.2-.1 2 0-.7-.1-1.4-.2-2.2-.2.4.1.8.2 1.2.2 4 1.1 8.9-1.5 9.8-5.7 1.4-4.3-1-8.7-5.3-9.9zm-17.3 177.1c-.1-.3-.2-.8-.2-1.2.1 1.1.2 1.2.1.3 0-.6-.1-1.2-.1-1.8 0-.4.1-.8 0-1.2-.2 1.2-.2 1.2-.1.3.1-.6.2-1.2.4-1.7l.3-1.2c.3-.8.2-.7-.2.2 0-.4.7-1.3.7-1.7.3-.7.8-1.4 1.2-2.1-.7 1.2-.3.4.2-.2.5-.6 1.1-1.2 1.7-1.7 1.2-1.2-1.2.7.3-.2.7-.4 1.5-.9 2.2-1.3 1.4-.7-1.2.2.5-.2.7-.2 1.4-.4 2.2-.6 2.1-.4-.8-.1.8-.2.7 0 1.6-.1 2.3-.1.4 0 2.8.2.8 0 1.6.2 3 .6 4.5 1.2-1.7-.6.1.1.5.2.8.4 1.5.8 2.2 1.3 1.7 1.1-1-1.1.4.3l1.8 1.8c.2.3 1.2 1.8.3.3.4.7 1 1.4 1.4 2.2.3.5.6 1.1.9 1.7-.9-1.7.2.7.4 1.1l.6 1.8c.1.4.2.8.2 1.2.2.9.2.8 0-.2.5 1.1.1 2.9.1 4.2-.1.7 0 .4.1-.6-.1.4-.2.8-.2 1.2l.1-.2c.7-.8.7-.9.1-.2-3.2 2.8-2.9 8.5.2 11.3 3.4 3.1 8 2.8 11.3-.2 5.9-5.2 5.4-15.3 3.3-22.2-2.2-7.2-6.7-13.2-12.9-17.4-6.3-4.3-14.4-5.4-21.8-4.2-7.4 1.2-13.6 5.6-17.9 11.6-4.7 6.6-6.1 15.1-4.2 22.8 1 4.1 6 6.8 10 5.5 4.2-1.5 6.5-5.6 5.5-9.9z"/></symbol><symbol id="icon-close" viewBox="0 0 512 512"><path d="M28.4 501.4c-7.3 0-14.6-2.8-20.1-8.3-11.1-11.1-11.1-29.1 0-40.2L442.2 19c11.1-11.1 29.1-11.1 40.2 0 11.1 11.1 11.1 29.1 0 40.2L48.6 493c-5.6 5.6-12.9 8.4-20.2 8.4z"/><path d="M483.6 501.4c-7.3 0-14.6-2.8-20.1-8.3L29.6 59.2c-11.1-11.1-11.1-29.1 0-40.2C40.7 7.9 58.7 7.9 69.8 19l433.9 433.9c11.1 11.1 11.1 29.1 0 40.2-5.6 5.5-12.9 8.3-20.1 8.3z"/></symbol><symbol id="icon-combination" viewBox="0 0 512 512"><path d="M5.9 130.2C3.9 157.1 2 184 0 210.9c-.5 6.5 6.8 11.4 12.8 9.7 20.4-5.9 56.8-2.8 56.4 25.7-.1 8.3-3.8 18.6-12.5 21.3-6.8 2.2-14.6-.9-21.3-2.2-7.2-1.3-13.8-1.6-21-.1-4.3.9-7.4 5.5-7.4 9.7l-.6 113.7c0 5.3 4.6 10.2 10.1 10.1 18.7-.5 37.4-.9 56.1-1.4 9-.2 19.1.6 28.1-.7 5.6-.8 5-1.9 3.8 2.5-.8 2.9-2.4 5.6-3.3 8.5-7.5 23.3 4.2 50.8 26 61.7 21.9 11 50.6 3.9 65.5-15.4 16.3-21.1 13.1-51.1-4.1-70.6-2.4 5.7-4.8 11.5-7.1 17.2 28.2.2 56.2-1.9 84.1-6 4-.6 7.8-5.7 7.4-9.7-1.7-18.1-3.4-36.2-5.2-54.3-1.2-13.2-6-30.8-1.5-43.8 4.1-11.9 16.7 2.5 24.1 5.2 11.9 4.3 23.3-1 29.8-11.6 13.6-22.4 11.9-56.4-6.8-75.4-17.4-17.7-47.1-19.7-65.5-2.7 5.7 2.4 11.5 4.8 17.2 7.1l-4.5-85.8c-.3-5.1-4.4-10.5-10.1-10.1-21.2 1.6-42.3 1.2-63.4-1.1-8.5-1-11.3 9-8.7 15.1 6.9 16 15.8 53.3-12.7 53.3-27.2-.1-30.2-32-19-50.4 4.4-7.2-1.5-14.2-8.7-15.1-40.8-5.4-82-5.9-123-1.7-12.8 1.3-12.9 21.5 0 20.1 41-4.3 82.1-3.7 123 1.7-2.9-5.1-5.8-10.1-8.7-15.1-19.3 31.7-6.1 80.5 36.4 80.7 17.3.1 32.4-10.8 37.7-27.2 6.1-18.8-.2-39-7.7-56.3-2.9 5.1-5.8 10.1-8.7 15.1 21.1 2.4 42.2 2.8 63.4 1.1l-10.1-10.1 4.5 85.8c.5 8.8 10.6 13.2 17.2 7.1 18.5-17.1 43.5 2.6 46.3 23 1.1 7.8.7 27.8-7.2 32.8-5.7 3.6-18-8.5-24.4-10.1-21.6-5.7-31.5 16.3-32 34-.3 13.9 2.3 28.3 3.6 42.1 1.5 15.5 2.9 31 4.4 46.5 2.5-3.2 4.9-6.5 7.4-9.7-26.1 3.8-52.4 5.4-78.8 5.3-9.2-.1-12.7 10.8-7.1 17.2 14.6 16.6 11 44.4-10 53.8-20.7 9.2-43.7-4-45.2-26.8-.7-10.5 6.2-18.7 6.6-28.9.4-10.5-6.6-18.2-17-19.1-14.4-1.3-29.7.5-44.2.8l-48.1 1.2 10.1 10.1L27 275c-2.5 3.2-4.9 6.5-7.4 9.7 10.6-2.2 21.4 3.6 32.1 3.6 7.7 0 15-2.4 21.1-7 11.9-9.1 17.4-25 16.1-39.7-3.6-39.5-49.5-49.9-81.7-40.6 4.3 3.2 8.5 6.5 12.8 9.7 2-26.9 3.9-53.8 5.9-80.6 1.1-12.8-19.1-12.8-20 .1z"/><path d="M246.4 136c37 .8 74-2.5 110.3-9.6 4.6-.9 7.1-5.5 7.4-9.7.8-9.5-2.8-17.9-7.1-26.1-3.8-7.5-10.5-17.3-2.2-24.2 11.4-9.6 55.9-16.3 49.2 8.8-4 15.2-15.7 34.3 3.4 44.7 8.9 4.9 21.8 4.8 31.6 5.5 13.8 1 27.6.7 41.4-.4l-10.1-10.1c4.3 37.4 9.6 74.6 15.9 111.6 6.1-2.6 12.3-5.2 18.4-7.8-18.2-33.1-68.2-29-79.2 7.6-11.2 37.4 29.6 66.6 62.7 49.2-4.9-2-9.9-4-14.8-6 7.9 27.6 14.3 55.5 19 83.8 2.3-4.1 4.7-8.3 7-12.4-24.5 6.6-49.4 9.9-74.7 10-3.3 0-7.3 1.9-8.7 5-4.7 10.2-2.4 19 4.3 27.7 5.1 6.6 16.5 15.2 11.5 24.4-10.6 19.7-55.3 23.2-65.2 1.7-5.4-11.8 6.7-21.7 6.2-33.7-.5-12.1-10.4-19.5-21.5-21.3-12.5-2.1-26 1-38.3 3.1-16.1 2.7-32 6.7-47.7 11.5-12.3 3.8-7.1 23.3 5.4 19.4 16.3-5 32.8-9 49.5-11.8 7.5-1.2 15.4-2.8 23.1-2.8 1.8 0 6-.3 7.6 1 3.3 2.8 0 6.8-1.5 10.2-10.7 24.3 2.3 49.4 28.1 56.4 23 6.2 53.6 0 68.7-19.5 7-8.9 9.1-20 4.6-30.5-2.3-5.5-6-10-9.8-14.5-1.7-2.1-8.8-8.6-7.6-11.2-2.9 1.7-5.8 3.3-8.7 5 27.1-.1 53.9-3.7 80.1-10.7 5.6-1.5 7.9-7 7-12.4-4.8-28.3-11.1-56.2-19-83.8-1.9-6.5-9-9-14.8-6-17.8 9.4-39.3-6.7-33.1-26.5 6.4-20.2 32.7-20.4 42.4-2.8 5.8 10.6 20.2 2.9 18.4-7.8-6-35.3-11.1-70.7-15.2-106.3-.6-5-4.2-10.6-10.1-10.1-15 1.3-30.1 1.4-45.1.1-4.1-.3-16.3.4-18.8-3.1-1.6-2.2 3-10.7 3.7-12.6 3.7-9.5 6.8-19.3 3.1-29.4-3.9-10.5-13.7-18.1-24.4-20.8-19.4-5-51.5 1-63.4 18.8-6 9-6 19.7-2.2 29.6 3.7 9.6 11.6 18.5 10.7 29.2 2.5-3.2 4.9-6.5 7.4-9.7-34.6 6.8-69.7 9.6-105 8.9-12.9 0-12.9 20.2.1 20.4z"/></symbol><symbol id="icon-down" viewBox="0 0 512 512"><path d="M246.1 14.9c4.5 8.2 1.1 22.2 1.1 30.4v91.3c0 42.1 0 83.1 1.1 125.2 0 39.8 1.1 80.7 1.1 120.5 0 29.2-1.1 59.7 2.3 90.1-10.2-14-18.1-28.1-27.2-43.3-7.9-14-30.6-1.2-21.5 12.9 12.5 22.2 26 43.3 39.6 64.3 5.7 8.2 14.7 7 20.4 0 9.1-12.9 19.2-24.6 29.4-35.1 6.8-8.2 15.8-14 18.1-25.7 1.1-2.3-1.1-5.8-4.5-5.8-12.5 1.2-26 11.7-37.4 23.4 1.1-25.7 0-51.5 0-76 0-42.1-1.1-83.1-1.1-125.2 0-39.8 0-80.7-1.1-120.5 0-19.9-1.1-38.6-1.1-58.5 0-10.5 0-22.2-1.1-32.8 0-9.4-4.5-25.7 0-35.1 9.1-20-27.1-20-18.1-.1z"/></symbol><symbol id="icon-headline-1-1" viewBox="0 0 512 19.5"><path d="M3.8 9.6c16.2 2.4 32.6 4 49 5.3 41.3 3.5 82.8 4.9 124.2 4.5 26.4-.3 52.7-1.4 79-3.5 26.4-2.1 52.8-4.4 79.2-5.8 39.9-2.2 79.9-3.2 119.9-2.7 17.3.2 33.6.6 50.7 1.6h.7c4.6.3 5.9-6.9 1.2-7.2C493.8.8 479.9.5 466 .3c-37.2-.7-74.4-.1-111.6 1.6-52.5 2.3-104.7 8.4-157.1 9.9C153.5 13 109.7 12 66 8.7 45.8 7.2 25.8 5 5.8 2.5c-.3 0-.5 0-.8-.1C.4 1.7-.9 8.9 3.8 9.6z"/></symbol><symbol id="icon-headline-1-2" viewBox="0 0 723 20.3"><path d="M4.6 20.3c25.8-2.3 51.7-3.8 77.5-5.1 64.8-3.4 129.8-5.1 194.7-5.1 41.3 0 82.6.7 124 2.3 39.7 1.5 79.4 3.2 119.2 3.8 49.6.7 99.4.4 148.9-3.2 16.4-1.2 33.2-2.2 49.3-5.5.2 0 .4-.1.5-.1 4.6-1 3.8-8.3-.9-7.3-12.8 2.7-26 3.7-39 4.8-44.9 3.8-90.2 4.5-135.2 4.3-79.6-.5-158.9-5.6-238.5-6.3-68.4-.6-136.9.8-205.2 4-21.6 1-43.2 2.2-64.8 3.7-10 .7-20.1 1.2-30.1 2.3-.4.1-.9.1-1.3.1-4.7.5-3.9 7.7.9 7.3z"/></symbol><symbol id="icon-headline-2" viewBox="0 0 896 28.3"><path d="M5.8 10.1c31.9-1.3 64-1.8 96.1-2.2 80.4-1 160.9-.3 241.5 2.1 51.3 1.5 102.6 3.8 154 6.9 49.4 3 98.7 6.2 148 8.3 61.6 2.6 123.4 4.1 184.7 2.4 20.3-.6 41.1-.9 61-3.7.2 0 .4-.1.7-.1 5.6-.8 4.4-8.2-1.3-7.4-15.7 2.2-32.2 2.7-48.2 3.3-55.6 2.2-111.7 1.2-167.7-.8C575.7 15.6 477 7.5 378.2 3.8 293.3.7 208.4-.5 123.7.2 96.9.4 70.1.8 43.4 1.5c-12.4.3-25 .4-37.3 1.1-.5 0-1.1 0-1.6.1-5.8.3-4.5 7.6 1.3 7.4z"/></symbol><symbol id="icon-headline-3-1" viewBox="0 0 610 16"><path d="M5.2 15.6c18.5-1.2 37-2.1 55.5-3 42.8-2.1 85.7-3.6 128.7-4.5 48.1-1 96.3-1.2 144.5.9 59.2 2.6 118.3 3.5 177.5 2.5 21-.4 41.9-.9 62.9-1.7 10.2-.4 20.6-.6 30.8-1.4.4 0 .9-.1 1.3-.1 5.5-.3 4.2-7-1.3-6.7-25.7 1.5-51.5 2.2-77.2 2.8-58.1 1.3-116.4 1.1-174.7-1.3-49.1-2-98.1-2.7-147.2-2-44.6.7-89.2 2.2-133.7 4.2C57.1 6 42 6.8 26.9 7.6c-7.4.4-14.8.6-22.1 1.3h-.9c-5.5.4-4.2 7.1 1.3 6.7z"/></symbol><symbol id="icon-headline-3-2" viewBox="0 0 481 12.3"><path d="M5.1 8.8c50 .3 100.1.7 150.2 1.3 41.2.5 82.3 1.5 123.5 2 44 .6 88-.2 131.7-1.9 22.2-.9 44.5-1.9 66.5-3.5 6.2-.4 4.1-7.1-2.1-6.7-59.4 4.3-119.8 5.9-180 5.5-41.6-.2-83.4-1.4-125-1.9-36.4-.5-72.8-.8-109.1-1.1-18.4-.2-36.8-.3-55.2-.4-6.2 0-6.8 6.7-.5 6.7z"/></symbol><symbol id="icon-headline-4" viewBox="0 0 458 17.6"><path d="M3.7 17.6c16.5-2.1 33-3.4 49.4-4.6 41.2-3.1 82.3-4.5 123.2-4.4 26 .1 51.9.8 77.7 2.3 24.8 1.5 49.6 3.1 74.5 3.7 31.1.8 62.5.6 94.1-2.7 10.4-1.1 21.1-2 31.7-5 .1 0 .2-.1.4-.1 3-.9 3.4-7.7.4-6.7-8.4 2.5-16.8 3.4-25.1 4.3-28.7 3.5-57.3 4-85.6 3.7-50-.5-99.3-5.4-149.3-6.2-43-.6-86.2.5-129.6 3.4-13.7.9-27.5 2-41.2 3.3-6.4.6-12.8 1.1-19.2 2-.3.1-.5.1-.8.1-3.3.5-3.6 7.3-.6 6.9z"/></symbol><symbol id="icon-headline-5" viewBox="0 0 593 19.5"><path d="M4.2 13.9C25.5 12 46.8 11 68.1 10c53.4-2.4 106.6-3.1 159.7-2 33.8.7 67.5 2.1 101.2 4.4 32.3 2.2 64.6 4.6 97.1 5.9 40.5 1.6 81.2 2.1 122.1-.8 13.5-1 27.3-1.7 40.8-4.8.2 0 .3-.1.4-.1 3.8-.9 3.9-8.4 0-7.4-10.7 2.5-21.6 3.3-32.3 4.2-37.1 3.2-74.2 3.1-111 2.1-65-1.7-129.5-8.3-194.4-10.3-55.9-1.7-112-1.4-168.2.7-17.8.6-35.6 1.5-53.4 2.6-8.3.6-16.6.9-24.9 1.8-.3.1-.7.1-1 .2-3.9.3-3.9 7.8 0 7.4z"/></symbol><symbol id="icon-headline-action-other" viewBox="0 0 414 13"><path d="M3.4 12.2C18.1 10.8 32.9 9.9 47.6 9 84.7 7 121.8 6 159 6.2c23.7.1 47.4.7 71.1 1.8 22.8 1.1 45.6 2.3 68.4 2.7 28.4.6 56.9.5 85.2-1.7 9.3-.7 18.9-1.3 28.1-3.5.1 0 .2 0 .3-.1 2.6-.6 1.9-5.4-.7-4.7-7.2 1.7-14.8 2.3-22.2 3-25.6 2.4-51.5 2.7-77.3 2.5-45.6-.5-91.2-4-136.8-4.6-39.3-.6-78.5.2-117.5 2.1-12.4.6-24.7 1.4-37 2.3-5.7.4-11.5.7-17.2 1.3-.2 0-.5 0-.7.1-2.7.3-2 5 .7 4.8z"/></symbol><symbol id="icon-headline-action" viewBox="0 0 465 21"><path d="M1.8 20.4c17.5-2.5 34.7-4.1 51.7-5.5 42.8-3.6 84.7-5.2 125.7-4.9 26.1.2 51.8 1.2 77 3.2 24.2 1.9 48.3 4.1 73.1 4.9 30.9 1.1 62.5 1 95.7-2.9 11-1.3 22.1-2.3 34.1-6.1.1-.1.3-.1.4-.1 3.4-1.1 6.9-9.4 3.4-8.3-9.5 3-18.4 4.1-27.2 5.3-30.4 4.2-59.3 4.7-87.7 4.2-49.9-.9-97.2-7.2-147-8.3-42.9-1-86.8.3-131.7 3.7-14.2 1-28.5 2.3-42.9 3.8-6.7.7-13.3 1.3-20.2 2.4-.3.1-.6.1-.9.1-3.2.6-6.7 8.9-3.5 8.5z"/></symbol><symbol id="icon-headline-shops" viewBox="0 0 351 10"><path d="M3.43 6.457c36.49.188 73.017.525 109.534.977 30.019.365 60.059 1.06 90.076 1.44 32.113.405 64.16-.148 96.074-1.4 16.208-.63 32.424-1.373 48.51-2.554 4.506-.322 3.021-5.198-1.51-4.862-43.34 3.157-87.396 4.271-131.269 4.023-30.369-.164-60.824-1.023-91.198-1.417-26.541-.343-53.066-.604-79.594-.815-13.407-.109-26.839-.204-40.249-.28-4.501-.023-4.947 4.86-.374 4.888z"/></symbol><symbol id="icon-lang" viewBox="0 0 512 512"><path d="M454.4 412.1c-65.7 113.5-170.1 61.2-297.8 36C-11.9 406.1-21 343.3 17.1 234.5 62 106 257.6-46.8 397.6 65.1c140 111.8 138.8 205.1 56.8 347z"/></symbol><symbol id="icon-left" viewBox="0 0 512 512"><path d="M119.3 189.7c-21.1 4.3-38.4 18.2-55.5 28.5-19.3 10.9-38 24-55.9 35.7-9 5.8-11.9 20.7 0 25.7 18.1 10.5 37.9 18.2 56.8 27.3 18.3 6.9 37.9 18.2 58.2 15.2 4.4-1.1 6.8-5.3 3.4-9.1-12.2-14.4-32.1-18.5-48.8-28.2l-9.8-5.6c67.7-1.3 136.8-1.8 205.9-2.3 40.2 1.2 79.1 1.6 119.3 2.8 37.4-.4 77.5 4.3 111.9-7 9.6-3.7 9.5-16.5.4-20-35.3-13-76.5-9.3-113.1-10.2-38.8-.4-79.9-.2-118.7-.6-57.6-.2-113.7.5-171.3.3 12.5-5.6 25.1-11.2 35-22 12.9-12.8-1-33.7-17.8-30.5z"/></symbol><symbol id="icon-line-menu" viewBox="0 0 281 3.9"><path d="M277.6 2.2c-29.1-.3-58.3-.6-87.4-1-24-.3-48-.7-71.9-1C92.6-.1 67-.1 41.7.2 28.8.3 15.9.4 3.1.7-.5.8 1 2.4 4.6 2.3 39 1.5 74 1.4 109.1 1.8c24.2.2 48.6.7 72.8 1 21.2.3 42.4.5 63.5.7l32.1.3c3.6.1 3.7-1.5.1-1.6z"/></symbol><symbol id="icon-milk-powder" viewBox="0 0 512 512"><path d="M69.6 242.5c3.5-14.8 7.1-30 13.9-43.8 7.3-14.8 17.3-23.9 31.1-32.7 13.5-8.6 22.1-18.4 29.8-32.2 3.4-6 6.7-12.4 12.5-16.4 6.9-4.8 15.8-6.3 23.2-10.1 13.2-6.7 23-18.4 32.9-29.1 7.1-7.5 21.2-23.7 33.3-18.3 5.6 2.4 7.3 11.7 10.8 16.2 4 5.5 9.5 9.3 15.7 12 11.4 5.1 26.3 5.4 36 13.7 10.7 9.3 14.4 24.4 24.9 34.1 11.4 10.5 26.3 12.8 41.1 14.6 16.2 2 29.5 6.2 41.2 18.1 12.2 12.4 19.4 28.5 25.3 44.6 4.6 12.6 16.4 34.8 4 46-12 10.9-30.1 15.9-45.5 19.2-35.1 7.4-72.7 6.8-108.4 6.6-43.8-.2-87.6-3.2-131.1-8.8-18.5-2.4-37.5-4.7-55.6-9.5-15.1-4-30.4-10.4-39.1-24.1-7.1-11.2-25.1-.8-17.8 10.4 18.8 29.4 54.6 35.4 86.5 40.2 43.1 6.6 86.6 10.6 130.2 12 40.7 1.3 82.2 1.3 122.6-3.9 29.8-4 84.4-15.5 84.6-54.2.1-18.4-9.2-38.5-16.3-55-7.2-16.8-17-32.8-31.3-44.5-13.8-11.3-29-15.4-46.3-17.6-7.6-.9-15.7-1.7-22.8-4.8-8.2-3.7-12.5-11.1-16.8-18.5-8.5-14.3-17.4-24.8-33.5-30.5-6.3-2.2-13-3.5-19.4-5.7-8.1-2.8-11.3-6.7-15.1-14.2-8.2-15.8-23.9-21.5-40.5-15.9-15.9 5.5-26.9 18.3-38 30.2-6.2 6.7-12.6 13.5-20.7 17.8-8.7 4.7-18.5 6.4-26.6 12.4-15.1 11-18.4 31.1-33.1 42.3-8 6.1-17.1 10.5-24.7 17.1-7.1 6.1-13 13.8-17.6 21.9-9.7 16.8-14.6 35.9-19.1 54.5-3.3 13.4 16.6 18.9 19.7 5.9z"/><path d="M122 220.1c13.3 0 13.3-20.7 0-20.7s-13.3 20.7 0 20.7zm31.5-33.7c13.3 0 13.3-20.7 0-20.7s-13.3 20.7 0 20.7zm5.6-32.6c13.3 0 13.3-20.7 0-20.7-13.3.1-13.3 20.7 0 20.7zm51.7 21.4c13.3 0 13.3-20.7 0-20.7s-13.3 20.7 0 20.7zm-13.4-37.1c13.3 0 13.3-20.7 0-20.7s-13.4 20.7 0 20.7zm34.8-38.2c13.3 0 13.3-20.7 0-20.7-13.4 0-13.4 20.7 0 20.7zm-8.2 31.2v1.1c-.1 1.4.3 2.8.9 4 .4 1.3 1.1 2.4 2.1 3.3.9 1 2.1 1.7 3.3 2.1 1.3.6 2.5.9 4 .9.9-.2 1.9-.3 2.8-.3 1.7-.5 3.3-1.3 4.5-2.7.6-.7 1.1-1.3 1.6-2.1.9-1.6 1.3-3.4 1.3-5.2v-1.1c.1-1.4-.3-2.8-.9-4-.4-1.3-1.1-2.4-2.1-3.3-.9-1-2.1-1.7-3.3-2.1-1.3-.6-2.5-.9-4-.9-.9.2-1.9.3-2.8.3-1.7.5-3.3 1.3-4.5 2.7-.6.7-1.1 1.3-1.6 2.1-.8 1.6-1.3 3.4-1.3 5.2zm-44.7 41.8c13.3 0 13.3-20.7 0-20.7s-13.3 20.7 0 20.7zm-1 46.1h1.1c1.4.1 2.8-.3 4-.9 1.3-.4 2.4-1.1 3.3-2.1 1-.9 1.7-2.1 2.1-3.3.6-1.3.9-2.5.9-4-.2-.9-.3-1.9-.3-2.8-.5-1.7-1.3-3.3-2.7-4.5-.7-.6-1.3-1.1-2.1-1.6-1.6-.9-3.4-1.3-5.2-1.3h-1.1c-1.4-.1-2.8.3-4 .9-1.3.4-2.4 1.1-3.3 2.1-1 .9-1.7 2.1-2.1 3.3-.6 1.3-.9 2.5-.9 4 .2.9.3 1.9.3 2.8.5 1.7 1.3 3.3 2.7 4.5.7.6 1.3 1.1 2.1 1.6 1.5.8 3.3 1.3 5.2 1.3zm-50 26.2l1.1 1.1c.9 1 2.1 1.7 3.3 2.1 1.3.6 2.5.9 4 .9 1.4.1 2.8-.3 4-.9 1.3-.4 2.4-1.1 3.3-2.1.6-.7 1.1-1.3 1.6-2.1.9-1.6 1.3-3.4 1.3-5.2-.2-.9-.3-1.9-.3-2.8-.5-1.7-1.3-3.3-2.7-4.5l-1.1-1.1c-.9-1-2.1-1.7-3.3-2.1-1.3-.6-2.5-.9-4-.9-1.4-.1-2.8.3-4 .9-1.3.4-2.4 1.1-3.3 2.1-.6.7-1.1 1.3-1.6 2.1-.9 1.6-1.3 3.4-1.3 5.2.2.9.3 1.9.3 2.8.5 1.7 1.3 3.2 2.7 4.5zm-38.8-.4h1.1c1.4.1 2.8-.3 4-.9 1.3-.4 2.4-1.1 3.3-2.1 1-.9 1.7-2.1 2.1-3.3.6-1.3.9-2.5.9-4-.2-.9-.3-1.9-.3-2.8-.5-1.7-1.3-3.3-2.7-4.5-.7-.6-1.3-1.1-2.1-1.6-1.6-.9-3.4-1.3-5.2-1.3h-1.1c-1.4-.1-2.8.3-4 .9-1.3.4-2.4 1.1-3.3 2.1-1 .9-1.7 2.1-2.1 3.3-.6 1.3-.9 2.5-.9 4 .2.9.3 1.9.3 2.8.5 1.7 1.3 3.3 2.7 4.5.7.6 1.3 1.1 2.1 1.6 1.6.9 3.3 1.3 5.2 1.3zm197.8-86.5c13.3 0 13.3-20.7 0-20.7s-13.4 20.7 0 20.7zm30.3 5.7c13.3 0 13.3-20.7 0-20.7s-13.3 20.7 0 20.7zm-22.4 34.8c13.3 0 13.3-20.7 0-20.7s-13.4 20.7 0 20.7zm63.9-22.5c13.3 0 13.3-20.7 0-20.7s-13.3 20.7 0 20.7zm-24.6 29.2c13.3 0 13.3-20.7 0-20.7s-13.4 20.7 0 20.7z"/><path d="M40.5 249.8c2.2 25.3 5.9 50.3 11.3 75.1 4.6 21 9.7 42.7 20.2 61.4 21.3 38 68.2 55.8 108.5 64.7 45.8 10.1 95 13.6 141.7 9.3 42.1-3.8 85.1-17.1 114.2-49.3 35.8-39.6 33.2-97.9 33.8-148.1.2-13.3-20.5-13.3-20.7 0-.3 22.7-1 45.4-3 67.9-1.8 20.1-6.1 39.6-17.6 56.4-21.8 31.7-60.7 46.5-97.5 51.3-41.9 5.5-86.3 2.8-127.9-4.2-36.6-6.1-80.6-17.5-105.9-47-14.6-17-19.7-40.4-24.7-61.7-5.8-25.1-9.8-50.4-12-76.1-.8-12.8-21.5-13-20.4.3z"/></symbol><symbol id="icon-product" viewBox="0 0 512 512"><path d="M75.2 101.2c20.9 26.9-8.1 63.2-18.3 71.4-33.4 33.4-68.7-15.7-53.1-54.3 8.6-21.4 45.3-50.8 71.4-17.1zm230.4 333.7c-103.2.9-168.8-39.3-196.1-75.3-57.3-86-56.2-164.2-4.2-217.3 52-53.1 190.9-82.9 254.3-53.8 63.5 29.1 98.1 154.2 107.3 212.4 9.2 58.1-32.3 132.9-161.3 134zM504 426c-13.6 9.9-24.8 2.1-28.7-3-16-17 2.6-40.7 21.3-32.4 10.5 4.5 24.4 23 7.4 35.4z"/></symbol><symbol id="icon-recipe" viewBox="0 0 512 512"><path d="M118.6 33.2l6 316.7c.6 30.2 1.1 60.3 1.7 90.5.1 3.9 3.4 7.9 7.6 7.6 96-7.7 192.5-7.6 288.5.2 4 .3 7.8-3.8 7.6-7.6l-13.5-337.5c-1.3-31.8-2.5-63.6-3.8-95.4-.2-3.7-3.4-8.1-7.6-7.6C314 10.9 222.6 19.2 131 25c-9.7.6-9.8 15.8 0 15.2 91.6-5.8 183-14.2 274.2-25l-7.6-7.6 13.5 337.5c1.3 31.8 2.5 63.6 3.8 95.4l7.6-7.6c-96-7.8-192.5-7.9-288.5-.2l7.6 7.6-6-316.7c-.6-30.2-1.1-60.3-1.7-90.5-.2-9.7-15.4-9.7-15.3.1z"/><path d="M126 24c-13-.9-25.7.1-38.5 2.4-3.2.6-5.7 4.2-5.6 7.3C86 156.4 90 279 94 401.5c.4 12.9-.2 28 8.6 38.5 7.4 8.8 21 12.7 30.9 5.7 7.9-5.6.3-18.8-7.7-13.1-10.7 7.6-15.6-10.4-16.1-17.6-.9-13.5-1-27.1-1.4-40.7-.9-27.2-1.8-54.5-2.7-81.7-1.8-55-3.6-110-5.4-164.9-1-31.3-2-62.6-3.1-93.8-1.9 2.4-3.7 4.9-5.6 7.3 11.4-2.1 22.9-2.7 34.4-1.9 9.9.6 9.8-14.6.1-15.3zm70.4 411.8c-.4 20.8-.2 41.8 1.6 62.5.7 7.9 4.8 12.8 13.3 11.8 10.2-1.2 18.2-2 28.1 1.6 6 2.2 10.2-4.2 9.4-9.3-3.1-19.2-3.3-39-.4-58.2 1.4-9.6-13.3-13.7-14.7-4-3.2 22.2-3.1 44.2.4 66.3 3.1-3.1 6.3-6.2 9.4-9.3-5.9-2.1-12.1-3.4-18.4-3.6-3-.1-6 .1-9 .5-1.5.2-3 .4-4.6.7-2.9.4-3.4.6-1.4.7 1.2 1.5 2.3 3 3.5 4.5-2.5-9.9-1.6-21.8-1.8-31.9-.3-10.6-.3-21.3-.1-32 .1-10.1-15.1-10.1-15.3-.3zm23.7-203.6c.5 14.6 1.1 29.2 1.6 43.8.3 7.8.3 15.6.9 23.4.4 5 1.7 9.7 6.2 12.5 4.3 2.7 10.1 2.4 15 2.7 7.8.5 15.6.8 23.4 1.1 14.6.5 29.3.5 43.9.1 4.5-.1 7.1-3.4 7.6-7.6 2-14.9 3-30 2.8-45-.1-9.3 2.6-28-9.6-31-9.5-2.4-13.6 12.3-4.1 14.6-2-2.9-2.7-3.2-2.3-1l.3 4.2c.2 2.9.3 5.8.3 8.7.1 5.3.1 10.7 0 16-.3 11.2-1.2 22.3-2.7 33.4l7.6-7.6c-11.7.3-23.4.3-35.2.1-5.9-.1-11.7-.3-17.6-.5-5.2-.2-14.3.9-19-1-1-.5-1.5-.5-1.5.3 0-1.5-.1-2.9-.2-4.4-.1-2.9-.2-5.8-.3-8.8-.2-5.8-.4-11.7-.6-17.5-.4-12.2-.9-24.4-1.3-36.5-.3-9.8-15.6-9.8-15.2 0z"/><path d="M221.1 222.4c-7.7 5.1-12.2-9-11.2-14.5 1.4-7.6 10.9-13.3 17.8-7.9 5.5 4.3 15.2.6 12.7-7.4-2.2-7.1.7-15.9 8.2-18.6 7.2-2.6 15.8 2 18.3 8.9 1.8 4.9 8.7 8 12.7 3.4 6.2-7.2 16.6-11.4 25.9-7.3 9.3 4.1 13 15.1 9.8 24.2-1.8 5.2 4.1 11.4 9.4 9.3 8-3.1 17 2.5 14.5 11.7-2.6 9.7-14.2 10.9-21 4.7-7.3-6.5-18.1 4.2-10.8 10.7 15.2 13.7 40.7 9.6 46.5-11.4 5.3-19.4-14-37.9-33.3-30.4 3.1 3.1 6.3 6.2 9.4 9.3 5.5-15.5-2-33.9-16.8-41.4-14.9-7.5-33.7-2.7-44.4 9.7 4.3 1.1 8.5 2.2 12.7 3.4-5.3-14.8-21.4-24.4-37-19.5-15.3 4.8-23.4 22.4-18.9 37.3 4.3-2.5 8.5-4.9 12.7-7.4-16.4-12.8-40.3-4.1-43.6 16.8-2.8 17.5 14.9 42 33.9 29.5 8.4-5.3.7-18.5-7.5-13.1z"/><path d="M223.7 232.1c11.6 11.5 30.3 13.7 43.9 4.3 8-5.5.4-18.7-7.7-13.1s-18.4 5.1-25.4-2c-7-6.9-17.7 3.9-10.8 10.8z"/></symbol><symbol id="icon-right" viewBox="0 0 512 512"><path d="M392.4 323.5c21.1-4.3 38.4-18.2 55.5-28.5 19.3-10.9 38-24 55.9-35.7 9-5.8 11.9-20.7 0-25.7-18.1-10.5-37.9-18.2-56.8-27.3-18.3-6.9-37.9-18.2-58.2-15.2-4.4 1.1-6.8 5.3-3.4 9.1 12.2 14.4 32.1 18.5 48.8 28.2l9.8 5.6c-67.7 1.3-136.8 1.8-205.9 2.3-40.2-1.2-79.1-1.6-119.3-2.8-37.4.4-77.5-4.3-111.9 7-9.6 3.7-9.5 16.5-.4 20 35.3 13 76.5 9.3 113.1 10.2 38.8.4 79.9.2 118.7.6 57.6.2 113.7-.5 171.3-.3-12.5 5.6-25.1 11.2-35 22-12.9 12.8 1.1 33.7 17.8 30.5z"/></symbol><symbol id="icon-sour-milk" viewBox="0 0 512 512"><path d="M1.5 271.9c21.4 32.7 44.4 65.2 76 88.9 33.5 25.1 74.8 34.4 115.8 38.3 81.5 7.7 171.4 3.2 241.5-43.6 34.1-22.8 61.8-54.1 76.7-92.5 3.9-10.1-12.3-14.5-16.2-4.5-26.2 67.4-94.6 106.3-162.5 119.7-40.2 7.9-81.7 8.1-122.4 5.5-38.7-2.5-78.6-8.3-112.2-29-35.4-21.9-59.7-57.1-82.1-91.2-6-9.1-20.5-.7-14.6 8.4z"/><path d="M11.7 271.2c64.3 13 130 17.1 195.4 20.1 62.4 2.9 125.4 6.5 187.7-.3 34.6-3.8 68.8-10.8 101.6-22.8 10.1-3.7 5.7-20-4.5-16.2-57.4 21.1-118.5 26.3-179.2 26.1-62.7-.2-125.9-3.4-188.4-8.4-36.3-3-72.5-7.5-108.2-14.7-10.6-2.2-15 14-4.4 16.2z"/><path d="M42.1 258.1c-8.1-3.5-14-11.9-11.6-21.1 2.2-8.5 11.8-13.9 20.3-12.2 4.8 1 11.3-2.3 10.6-8.1-2-18.1 15.7-30.8 31.9-21.1 5 3.1 13.3-.8 12.7-7.3-2-19.6 19.6-34.4 36-20.7 4.5 3.8 9.7 2.9 13.2-1.7 10.3-13.4 30.7-15.2 44.3-6.3 5 3.3 10.4-.3 12.3-5 4.9-11.7 13.9-23.8 26.8-27.1 9.5-2.5 22.6 1.1 26.5 10.9 2.5 6.3 8.8 7.8 14.1 3.7 12.1-9.4 26.8 0 28.9 13.5.8 5.3 8.2 7.8 12.3 5 11.1-7.3 24.9-.7 24.7 13-.1 5 5.5 10.1 10.6 8.1 7.9-3 16.6-6.6 25.2-5.3 5.8.9 13.7 5.9 12.4 12.8-1.3 7 5.7 13.5 12.3 9.5 14.7-8.7 33.5 3 30 20.4-1.2 6.2 3.8 12.1 10.4 10.4 16.2-4.3 31.3 9.2 27.6 25.9-2.3 10.5 13.9 15.1 16.2 4.5 6.3-29-19.3-54.3-48.3-46.6l10.4 10.4c2.8-14.1-1.7-28.7-13.4-37.6-12-9.1-28.5-9.4-41.3-1.8 4.1 3.1 8.2 6.3 12.3 9.5 2.5-12.9-4.4-25-16.1-30.8-13.6-6.7-28.9-2.5-42.2 2.6 3.5 2.7 7.1 5.4 10.6 8.1.2-25.8-28.2-42-50.1-27.5 4.1 1.7 8.2 3.4 12.3 5-1.8-12.3-10.5-23-22.2-27.4-12.2-4.5-24.8-1.2-34.8 6.4 4.7 1.2 9.4 2.5 14.1 3.7-7-17.5-25.3-26.4-43.7-23.4-20.7 3.4-34.5 21.4-42 39.6 4.1-1.7 8.2-3.4 12.3-5-22-14.5-51.6-8.1-67.3 12.3 4.4-.6 8.8-1.1 13.2-1.7-12.5-10.5-29.9-13.4-44.7-5.6-13.6 7.2-21.6 23-20 38.2 4.2-2.4 8.4-4.8 12.7-7.3-26.2-15.9-60.6 4.5-57.2 35.6 3.5-2.7 7.1-5.4 10.6-8.1-16.9-3.4-34.8 5.5-40.5 22.2-5.4 16 3.4 35.1 18.9 41.8 10 4.3 18.6-10.1 8.7-14.4z"/><path d="M122.8 264.8c-5.8-4.1-11.7-12.8-8.1-20.1 1.5-3 7.6-6.2 10.1-2.5 3 4.5 9.2 5.7 13.2 1.7 7-6.8 5.5-17.8 13.4-23.9 6.4-5 16.6-4.7 21.6 2.3 4.7 6.6 15.5 4.5 15.7-4.3.1-6.3 3.6-13.4 10.2-15.2 4.8-1.3 11.4 1 13.2 5.9 3.8 10 20 5.7 16.2-4.5-4.9-13.2-18.6-21-32.6-18-14.6 3.1-23.7 17.5-23.9 31.7 5.2-1.4 10.4-2.8 15.7-4.3-8.2-11.6-23.2-17.3-36.9-12.3-6.7 2.5-12.3 6.9-16.5 12.6-2 2.8-3.6 5.9-4.8 9.1-1 2.6-1.1 6.7-3.2 8.7 4.4.6 8.8 1.1 13.2 1.7-8.7-13.3-28.6-12.6-37.7.1-11.2 15.7-1.2 35.6 12.7 45.5 8.9 6.6 17.3-8 8.5-14.2zM253 230.2c.4-5.9 5.4-10.3 10.5-12.7 3.8-1.8 15.2-4.6 15.8 2.5.7 8.4 10.8 11.4 15.7 4.3 3.6-5.3 9.2-10.3 15.9-10.6 5.5-.3 11.9 3.4 12.4 9.3.5 6.8 9 11.6 14.3 5.9 8.5-9.1 15.5 5.9 15.6 13.1.1 5.7 5.3 9.2 10.6 8.1 14.5-3 20.9 13 12.9 23.4-6.6 8.6 8 17 14.5 8.5 7.7-10 8.4-24.8 1.3-35.4-7.4-11-20.6-15.3-33.2-12.7 3.5 2.7 7.1 5.4 10.6 8.1-.1-11.2-4.4-23-14.5-28.9-9.5-5.5-22.2-4.1-29.8 3.9 4.8 2 9.6 4 14.3 5.9-1-13.7-11.5-24.4-25.2-25.9-14.3-1.6-26.8 7.4-34.5 18.8 5.2 1.4 10.4 2.8 15.7 4.3-1.5-16.9-17.8-24.3-33.1-20.2-14.3 3.8-25.8 15.2-26.9 30.3-.4 10.8 16.4 10.7 17.1 0z"/></symbol><symbol id="icon-step-1" viewBox="0 0 512 512"><path d="M44.2 95c78.2-106.2 314.3-40.5 359.2-11.3 136.1 88.2 132.7 282.8 52.8 336.2-108.9 72.8-292 72.8-379.9 8.5-101.2-74-91-253.3-32.1-333.4z"/></symbol><symbol id="icon-step-2" viewBox="0 0 512 512"><path d="M42.3 108.5C117.5 6.3 363.7 51.9 416.9 89.1c146.7 102.5 98.6 280.5 21.7 331.9-104.7 70-280.3 49.4-364.8-12.4-97.4-71.2-88.3-223.1-31.5-300.1z"/></symbol><symbol id="icon-step-3" viewBox="0 0 512 512"><path d="M39.4 117.1c75.6-102.7 323-56.9 376.5-19.5 147.4 103 100.4 252.3 23.2 304-105.3 70.4-275.8 74.3-360.7 12.2-97.9-71.6-96-219.3-39-296.7z"/></symbol><symbol id="icon-step-4" viewBox="0 0 512 512"><path d="M46.5 117.3c79.5-108 314.6-52.5 390.1 0 121.4 84.4 78.1 207.7-3.2 262-110.7 74-268.2 107.6-357.5 42.3-102.8-75.3-89.3-223-29.4-304.3z"/></symbol><symbol id="icon-step-mobile-1" viewBox="0 0 358 566"><path d="M58 17C-1 56.5.3 190.2 0 228.2c0 119 0 262 91.5 316 50 29.5 195.9 42.1 238.5-59 33.5-79.5 45-225 0-356S112.4-19.4 58 17z"/></symbol><symbol id="icon-step-mobile-2" viewBox="0 0 360.3 577"><path d="M46.3 19.3c-59 39.5-44.7 182.2-45 220.2 0 119 0 262 91.5 316 50 29.5 195.9 42.1 238.5-59 33.5-79.5 44.8-238.3-6-367.2-56-142-224.6-146.5-279-110z"/></symbol><symbol id="icon-step-mobile-3" viewBox="0 0 357.8 574"><path d="M62.8 20C3.8 59.5.1 204.2-.2 242.2c0 119 0 262 91.5 316 50 29.5 185.9 22 228.5-79.2 33.5-79.5 60.4-206.8 10-335.8C267.7-16 117.2-16.4 62.8 20z"/></symbol><symbol id="icon-step-mobile-4" viewBox="0 0 361 503"><path d="M61.5 15.5C-2.1 47.1 2.3 208.4 2 246.4 2 365.4 2 432 93.5 486c50 29.5 186.4 26.4 237-71 32.5-62.5 39-153.5 15.5-252.5-39.1-164.7-212-183-284.5-147z"/></symbol><symbol id="icon-step" viewBox="0 0 512 512"><path d="M500.2 322.5c17.1 73.4 14.2 104 0 124.9-51.2 104.3-226.1 47.1-213.3-107.2 12.8-154.4 192-109.5 213.3-17.7zM235.9 116.6c-1.1 24.1 9.7 41.7 15.2 47.5 21.6 30.1 83.7.5 71.2-47.5-12.6-48-85-30.2-86.4 0zM93.7 196.5C34.3 182.4-4.3 98.6.4 58.5c-4.8-74.3 141.5-49.5 159.2 0 17.7 49.6 8.4 155.7-65.9 138z"/></symbol><symbol id="icon-tab" viewBox="0 0 512 512"><path d="M449.3 370c-133.7 135.5-272.9 69.2-325.8 19.2-209-160.5-133.6-240.4 88-308.3 209.6-64.4 405 119.7 237.8 289.1z"/></symbol><symbol id="icon-tasting" viewBox="0 0 512 512"><path d="M77 62.1c11.6 145.9 23.3 291.8 34.9 437.6.4 5.2 4 9.5 9.5 9.5l154.7 1.2 79.2.6 37.7.3c10.5.1 24.4 2.5 33.9-3 7.8-4.5 9.9-12.8 10.1-21.2.3-13.4-1.2-27.1-1.8-40.5l-3.6-77.4c-2.5-51.6-5.1-103.2-7.7-154.8-3-58.5-6.2-117.1-9.5-175.6-.3-5-4.1-9.7-9.5-9.5-107 2.9-213.9 5.7-320.8 8.6-12.2.3-12.3 19.3 0 19C191 54 297.9 51.2 404.8 48.3l-9.5-9.5c5.5 98.2 10.7 196.3 15.5 294.5 2.4 48.5 4.6 96.9 6.8 145.4.2 4.3 2.3 11.5-2.7 13.7-3.9 1.7-13.9-.1-18.1-.1l-37.7-.3-71.7-.6c-55.3-.4-110.7-.9-166-1.3l9.5 9.5C119.3 353.9 107.6 208 96 62.2c-1-12.2-20-12.3-19-.1z"/><path d="M125.3 18.7c-1.1 11.1-1 22 .5 33.1 1.2 8.6 1.6 20.1 9.8 25 3.7 2.2 8.5 1.4 11.5-1.5 3.3-3.1 3.7-6.6 3-10.9-.7-4.3-5.3-6.7-9.2-7-.2 0-.5 0-.7-.1-12.2-.9-12.1 18.1 0 19 .2 0 .5 0 .7.1-3.1-2.3-6.1-4.7-9.2-7 .1.3.1.7.2 1 .8-3.1 1.6-6.2 2.5-9.2-.2.2-.5.4-.7.6 3.8-.5 7.7-1 11.5-1.5 2.6 1.5.2-5.8 0-6.9-.7-4.2-1.2-8.4-1.5-12.7-.4-7.4-.2-14.7.6-22.1 1.2-12-17.8-11.9-19 .1zm49.1-3.9c1.5 16.5 3 33 4.4 49.5 1.1 12.1 20.1 12.2 19 0-1.5-16.5-3-33-4.4-49.5-1.1-12-20.1-12.2-19 0zm53-3.6c1.6 16.3 2.1 33.3 5 49.4 2.1 11.2 14 16.1 21.2 5.8 2-2.8 1.5-6.7 0-9.6-.2-.3-.3-.6-.5-.9-5.6-10.9-22-1.3-16.4 9.6.2.3.3.6.5.9v-9.6c-.2.3-.5.7-.7 1 1.9-1.5 3.8-2.9 5.7-4.4-.4.1-.8.1-1.2.2 3.1.8 6.2 1.6 9.2 2.5.5.6.1-6.8 0-7.9-.4-4.3-.9-8.6-1.3-13-.8-8-1.6-16-2.4-24.1-1.3-12-20.3-12.1-19.1.1zm57.4-2c.9 17.1 1.8 34.2 2.7 51.4.6 12.2 19.7 12.2 19 0-.9-17.1-1.8-34.2-2.7-51.4-.6-12.2-19.6-12.3-19 0zm59.6 1.9c.7 13.9 1.5 27.9 2.2 41.8.6 12.2 19.7 12.2 19 0-.7-13.9-1.5-27.9-2.2-41.8-.6-12.1-19.6-12.2-19 0zM139.3 174.7c48.1.8 96.3 1.6 144.4 2.5 12.2.2 12.2-18.8 0-19-48.1-.8-96.3-1.6-144.4-2.5-12.3-.3-12.3 18.8 0 19zm5.7 66.8c35.6-.4 71-2.7 106.4-6.8 12-1.4 12.1-20.4 0-19-35.3 4.1-70.8 6.4-106.4 6.8-12.2.1-12.3 19.1 0 19zm-1.9 64.6c50.2-.1 100.2-3 150.1-8.6 12-1.3 12.2-20.4 0-19-49.8 5.6-99.9 8.5-150.1 8.6-12.3 0-12.3 19 0 19zm13.3 58.7c35.3-4.3 70.8-5.5 106.4-3.7 12.2.6 12.2-18.4 0-19-35.5-1.8-71.1-.6-106.4 3.7-12 1.5-12.1 20.5 0 19zm14.6 42c-1.7.3-3.4.6-5.2.8-10.5 1.7-8.1 19.3 2.5 18.7 42.3-2.6 84.6-5.2 126.8-7.8 12.1-.7 12.2-19.8 0-19-42.3 2.6-84.6 5.2-126.8 7.8.8 6.2 1.7 12.4 2.5 18.7 1.7-.3 3.4-.6 5.2-.8 12-2 6.9-20.4-5-18.4zM334.7 145c6.6 9.8 14.2 18.7 22.8 26.7 5.6 5.1 13.3 2.5 15.9-4.2 4.8-12.7 9.5-25.3 14.3-38 4.3-11.5-14-16.4-18.3-5.1-4.8 12.7-9.5 25.3-14.3 38l15.9-4.2c-7.5-6.9-14.1-14.4-19.9-22.9-6.8-10-23.3-.5-16.4 9.7zm3.2 83.7c5.7 6.3 11.9 12.2 18.4 17.7 4.4 3.7 12 4 14.9-1.9 4.8-9.6 9.7-19.1 14.5-28.7 5.5-10.9-10.9-20.5-16.4-9.6-4.8 9.6-9.7 19.1-14.5 28.7 5-.6 10-1.3 14.9-1.9-6.6-5.5-12.7-11.4-18.4-17.7-8.2-9.1-21.6 4.4-13.4 13.4zm3.8 68.4c5.7 7.1 11.8 13.8 18.4 20.1 4.2 4.1 12 3.6 14.9-1.9 5.8-11.1 11.7-22.2 17.5-33.3 5.7-10.8-10.7-20.4-16.4-9.6-5.8 11.1-11.7 22.2-17.5 33.3 5-.6 10-1.3 14.9-1.9-6.5-6.3-12.6-13-18.4-20.1-7.6-9.6-21 4-13.4 13.4zm2.2 67.2c6.3 3.2 11.9 7 17 11.8 4.7 4.4 11.4 3.2 14.9-1.9 6.1-8.9 11.6-18.1 16.6-27.7 5.6-10.9-10.8-20.5-16.4-9.6-4.9 9.6-10.4 18.8-16.6 27.7 5-.6 10-1.3 14.9-1.9-6.3-5.9-13.2-10.8-20.9-14.7-10.8-5.6-20.4 10.8-9.5 16.3zm5.3 56c8.2 4.9 15.5 10.6 22.1 17.4 4.1 4.2 12.1 3.5 14.9-1.9 4.6-8.9 9.2-17.7 13.7-26.6 5.6-10.9-10.8-20.5-16.4-9.6-4.6 8.9-9.2 17.7-13.7 26.6 5-.6 10-1.3 14.9-1.9-7.8-7.9-16.5-14.7-26-20.4-10.4-6.3-20 10.1-9.5 16.4z"/></symbol></svg>