<svg width="262" height="60" viewBox="0 0 262 60" fill="none" xmlns="http://www.w3.org/2000/svg">
<path d="M51.5874 32.9421L78.7436 8.95216L60.5757 6.89014L51.5874 32.9421Z" fill="#F2BE97"/>
<path d="M26.1042 26.8564L16.7812 47.9797L20.9886 59.9998L34.9969 47.6276L26.1042 26.8564Z" fill="#F2BE97"/>
<path d="M2.05584 5.68315L3.05985 8.70075L11.8091 33.7971L26.0088 5.68315L40.8299 34.3504L50.631 5.73345L0 0L2.00803 5.68315H2.05584Z" fill="#F2BE97"/>
<path d="M134.395 35.8593H119.478C119.717 37.1167 120.386 38.1728 121.39 38.9272C122.49 39.6816 123.781 40.084 125.119 40.0337C126.076 40.0337 126.984 39.8828 127.845 39.5811C128.657 39.229 129.422 38.7261 130.044 38.0723L133.104 41.5928C131.239 43.856 128.514 44.9624 124.976 44.9624C122.92 45.0127 120.912 44.5098 119.095 43.6045C117.47 42.7495 116.083 41.3916 115.127 39.7319C114.171 38.0723 113.693 36.1611 113.741 34.1997C113.693 32.2885 114.171 30.3774 115.127 28.7177C116.035 27.1083 117.326 25.8007 118.904 24.8954C120.53 23.9901 122.394 23.4872 124.259 23.5375C126.076 23.4872 127.892 23.9398 129.518 24.8451C131.048 25.7001 132.339 27.0077 133.199 28.5668C134.108 30.2768 134.586 32.2885 134.538 34.25C134.49 34.3505 134.442 34.8535 134.395 35.8593ZM121.056 29.2206C120.147 30.0253 119.573 31.1318 119.43 32.3891H129.135C128.992 31.1821 128.418 30.0253 127.51 29.2709C126.602 28.4662 125.454 28.0639 124.307 28.1142C123.111 28.0136 121.964 28.4159 121.056 29.2206Z" fill="#50406B"/>
<path d="M138.315 17.6533H144.052V44.5603H138.315V17.6533Z" fill="#50406B"/>
<path d="M149.359 17.6533H155.097V44.5603H149.359V17.6533Z" fill="#50406B"/>
<path d="M178.284 25.8005C179.766 27.3596 180.531 29.6228 180.531 32.6404V44.5096H174.794V33.596C174.89 32.2883 174.507 30.9807 173.742 29.9245C172.977 29.0695 171.878 28.6169 170.778 28.7175C169.487 28.6672 168.244 29.1701 167.336 30.1257C166.38 31.2825 165.949 32.7913 166.045 34.3001V44.6102H160.308V23.7887H165.758V26.2028C166.523 25.2975 167.527 24.6437 168.579 24.1911C169.774 23.6882 171.017 23.4367 172.26 23.487C174.555 23.3864 176.707 24.2414 178.284 25.8005Z" fill="#50406B"/>
<path d="M204.915 23.7886L196.596 44.5597H190.715L182.396 23.7886H188.277L193.727 37.921L199.416 23.7886H204.915Z" fill="#50406B"/>
<path d="M225.951 35.8593H210.987C211.226 37.1167 211.895 38.1728 212.899 38.9272C213.999 39.6816 215.29 40.084 216.628 40.0337C217.584 40.0337 218.493 39.8828 219.353 39.5811C220.166 39.229 220.931 38.7261 221.553 38.0723L224.613 41.5928C222.748 43.856 220.023 44.9624 216.485 44.9624C214.429 45.0127 212.421 44.5098 210.604 43.6045C208.979 42.7495 207.592 41.3916 206.636 39.7319C205.68 38.0723 205.202 36.1611 205.249 34.1997C205.202 32.2885 205.68 30.3774 206.636 28.7177C207.544 27.1083 208.835 25.8007 210.413 24.8954C212.038 23.9901 213.903 23.4872 215.768 23.5375C217.584 23.4872 219.401 23.9398 221.027 24.8451C222.557 25.7001 223.848 27.0077 224.708 28.5668C225.617 30.2768 226.095 32.2885 226.047 34.25C226.047 34.3505 225.999 34.8535 225.951 35.8593ZM212.612 29.2206C211.704 30.0253 211.13 31.1318 210.987 32.3891H220.596C220.453 31.1821 219.879 30.0253 218.971 29.2709C218.063 28.4662 216.915 28.0639 215.768 28.1142C214.572 28.0639 213.473 28.5165 212.564 29.2709L212.612 29.2206Z" fill="#50406B"/>
<path d="M262 43.5539C261.379 44.0066 260.661 44.3586 259.944 44.5598C259.084 44.761 258.223 44.9118 257.363 44.9118C255.402 45.0627 253.442 44.3586 251.912 43.051C250.574 41.5925 249.856 39.5304 250 37.5187V28.9688H246.94V24.3418H250V17.8037H255.737V24.3418H260.614V28.9688H255.737V37.3678C255.689 38.1222 255.928 38.8263 256.359 39.3796C256.837 39.8825 257.458 40.134 258.128 40.0837C258.94 40.134 259.753 39.8322 260.422 39.3293L262 43.5539Z" fill="#50406B"/>
<path d="M244.645 34.7028C243.928 33.8981 243.02 33.2945 241.968 32.9425C240.677 32.5401 239.338 32.2384 237.999 31.9869C236.948 31.836 235.896 31.5846 234.844 31.2325C234.27 31.0816 233.84 30.5284 233.84 29.8746C233.84 29.2711 234.222 28.7179 234.748 28.4664C235.609 28.064 236.565 27.8629 237.521 27.9132C239.434 27.8126 241.394 28.1143 243.211 28.7681V24.292C242.733 24.1412 242.255 23.9903 241.681 23.8394C240.294 23.5376 238.908 23.3365 237.521 23.3365C235.848 23.2862 234.175 23.5879 232.645 24.1914C231.402 24.6441 230.302 25.4991 229.537 26.5552C228.82 27.5611 228.437 28.7681 228.437 30.0255C228.342 31.3331 228.772 32.6407 229.585 33.6466C230.35 34.5016 231.258 35.1051 232.31 35.4069C233.601 35.8092 234.94 36.111 236.326 36.3624C237.378 36.463 238.382 36.6642 239.386 37.0163C239.96 37.1671 240.342 37.6701 240.39 38.2736C240.39 39.5309 239.195 40.1344 236.756 40.1344C235.609 40.1344 234.462 40.0339 233.314 39.8327C232.406 39.6818 231.402 39.38 229.967 38.9777V43.4538C230.541 43.7053 231.163 43.9065 231.736 44.0573C233.314 44.4597 234.94 44.7111 236.517 44.7111C238.239 44.7614 239.912 44.4597 241.537 43.8562C242.781 43.4035 243.928 42.5988 244.741 41.5427C245.458 40.5368 245.84 39.3298 245.84 38.1227C245.84 37.0163 245.458 35.7086 244.645 34.7028Z" fill="#50406B"/>
<path d="M115.223 17.6025L115.032 18.1055L105.948 44.5598H100.402L95.9554 28.4156L91.4134 44.5598H85.8674L78.7915 23.7886H84.1941L88.8317 37.8205L93.278 20.9219H98.8718L103.223 37.8205L110.155 17.6025H115.223Z" fill="#50406B"/>
</svg>
