<svg width="141" height="32" fill="none" xmlns="http://www.w3.org/2000/svg">
  <path d="M27.763 17.57L42.377 4.773l-9.777-1.1-4.837 13.895zM14.049 14.323L9.03 25.59 11.295 32l7.54-6.598-4.786-11.078z" fill="#F2BE97"/>
  <path d="M1.106 3.031l.54 1.61 4.71 13.384 7.641-14.994 7.976 15.29 5.275-15.263L0 0l1.08 3.031h.026z" fill="#F2BE97"/>
  <path d="M72.327 19.125h-8.028c.129.67.49 1.234 1.03 1.636a3.34 3.34 0 002.006.59c.515 0 1.004-.08 1.467-.241a3.61 3.61 0 001.184-.805l1.646 1.878c-1.003 1.207-2.47 1.797-4.374 1.797a6.785 6.785 0 01-3.164-.724 5.368 5.368 0 01-2.136-2.066 5.587 5.587 0 01-.746-2.95 5.557 5.557 0 01.746-2.924 5.408 5.408 0 012.033-2.039 5.697 5.697 0 012.881-.724 5.548 5.548 0 012.83.698 5.136 5.136 0 011.982 1.985c.489.912.746 1.984.72 3.03-.025.054-.051.322-.077.859zm-7.179-3.54a2.621 2.621 0 00-.874 1.689h5.223c-.077-.644-.386-1.26-.875-1.663a2.452 2.452 0 00-1.724-.617 2.337 2.337 0 00-1.75.59zM74.436 9.415h3.088v14.35h-3.088V9.415zM80.38 9.415h3.088v14.35H80.38V9.415zM95.947 13.76c.797.832 1.21 2.039 1.21 3.648v6.33h-3.088v-5.82a2.963 2.963 0 00-.566-1.958 1.928 1.928 0 00-1.596-.644 2.426 2.426 0 00-1.852.751c-.515.617-.746 1.422-.695 2.226v5.5h-3.088V12.686h2.934v1.288c.411-.483.952-.832 1.518-1.073a4.654 4.654 0 011.98-.375 4.339 4.339 0 013.243 1.233zM110.278 12.687l-4.477 11.078h-3.164L98.16 12.687h3.164l2.934 7.538 3.062-7.538h2.958zM121.6 19.125h-8.054c.129.67.489 1.234 1.03 1.636a3.337 3.337 0 002.007.59c.514 0 1.003-.08 1.466-.241a3.611 3.611 0 001.184-.805l1.646 1.878c-1.003 1.207-2.47 1.797-4.374 1.797a6.78 6.78 0 01-3.164-.724 5.37 5.37 0 01-2.136-2.066 5.58 5.58 0 01-.746-2.95 5.55 5.55 0 01.746-2.924 5.41 5.41 0 012.033-2.039 5.693 5.693 0 012.881-.724 5.55 5.55 0 012.831.698 5.138 5.138 0 011.981 1.985 6.18 6.18 0 01.72 3.03c0 .054-.025.322-.051.859zm-7.179-3.54a2.625 2.625 0 00-.875 1.689h5.172c-.077-.644-.386-1.26-.875-1.663a2.452 2.452 0 00-1.724-.617c-.643-.027-1.235.215-1.724.617l.026-.027zM141 23.229c-.335.241-.72.429-1.106.536-.464.108-.927.188-1.39.188-1.055.08-2.11-.295-2.933-.992a3.99 3.99 0 01-1.029-2.951v-4.56h-1.647v-2.468h1.647V9.495h3.087v3.487h2.625v2.468h-2.625v4.48a1.57 1.57 0 00.335 1.073c.257.268.592.402.952.375.437.027.875-.134 1.235-.402l.849 2.253zM131.66 18.508a3.338 3.338 0 00-1.441-.939 19.058 19.058 0 00-2.135-.51 9.74 9.74 0 01-1.698-.402.744.744 0 01-.541-.724c0-.322.206-.617.489-.751a3.172 3.172 0 011.492-.295 7.95 7.95 0 013.062.456v-2.387c-.257-.08-.514-.161-.823-.242-.746-.16-1.492-.268-2.239-.268a6.695 6.695 0 00-2.624.456 3.622 3.622 0 00-1.672 1.26 3.157 3.157 0 00-.592 1.851c-.052.698.18 1.395.617 1.932.412.456.901.778 1.467.939.695.214 1.415.375 2.161.51.566.053 1.107.16 1.647.348.309.08.514.349.54.67 0 .671-.643.993-1.955.993-.618 0-1.235-.054-1.853-.161-.489-.08-1.029-.241-1.801-.456v2.387c.309.134.643.242.952.322.849.215 1.724.349 2.573.349a7.168 7.168 0 002.702-.456 3.856 3.856 0 001.724-1.234c.386-.537.591-1.18.591-1.824a2.97 2.97 0 00-.643-1.824zM62.009 9.388l-.103.268-4.889 14.11h-2.984l-2.393-8.61-2.444 8.61H46.21l-3.808-11.079h2.907l2.496 7.484L50.2 11.16h3.01l2.342 9.012 3.73-10.783h2.728z" fill="#50406B"/>
</svg>
